<?xml version="1.0" encoding="UTF-8"?> <svg xmlns="http://www.w3.org/2000/svg" xmlns:xlink="http://www.w3.org/1999/xlink" viewBox="0 0 62.5 62.5"><defs><clipPath id="a"><rect width="62.5" height="62.5" fill="none"></rect></clipPath></defs><g clip-path="url(#a)"><path d="M29.94,0V3.14L18,11.36h11.9V19.3H18l11.9,8.22v3.14H25.89L11.26,20.55V30.66H4.74V20.55L-9.89,30.66h-4V62.17H79.28V0ZM10.69,52.12,7.8,49,4.91,52.12l.58-4.29-4.18-.37,3.61-2.21-2.33-3.6,3.93,1.53L7.8,39.07l1.29,4.11L13,41.65l-2.32,3.6,3.61,2.21-4.18.37ZM50.18,9.34l2.1.82L53,8l.69,2.2,2.1-.82-1.24,1.93,1.93,1.18-2.24.2.31,2.29L53,13.27l-1.55,1.67.31-2.29-2.24-.2,1.93-1.18ZM42,28.87,40.49,27.2l-1.55,1.67.31-2.29L37,26.38l1.93-1.18L37.7,23.27l2.1.82.69-2.2.69,2.2,2.1-.82L42,25.2,44,26.38l-2.23.2ZM54.51,49.23,53,47.55l-1.54,1.68.3-2.29-2.23-.2,1.93-1.18-1.25-1.93,2.1.82.69-2.2.69,2.2,2.1-.82-1.24,1.93,1.93,1.18-2.24.2Zm4.66-16.58L58,31.87l-1.22.78.34-1.44L56,30.26l1.44-.11L58,28.78l.55,1.37,1.43.11-1.1.95Zm6.43-7.21-1.55-1.67L62.5,25.44l.31-2.29L60.58,23l1.93-1.18-1.25-1.93,2.1.82.69-2.2.69,2.2,2.1-.82L65.6,21.77,67.53,23l-2.24.2Z" fill="#111fa3"></path><path d="M4.74,0H-9.89L4.74,10.11Z" fill="#111fa3"></path><path d="M25.89,0H11.26V10.11Z" fill="#111fa3"></path><path d="M10.69,45.25,13,41.65,9.09,43.19,7.8,39.07,6.52,43.19,2.6,41.65l2.32,3.6L1.31,47.46l4.18.38-.58,4.28L7.8,49l2.89,3.14-.57-4.28,4.18-.38Z" fill="#ededed"></path><path d="M54.51,45.56l1.24-1.93-2.1.82L53,42.25l-.69,2.2-2.1-.82,1.25,1.93-1.93,1.18,2.23.2-.31,2.29L53,47.55l1.55,1.68-.31-2.29,2.23-.2Z" fill="#ededed"></path><path d="M42,25.2l1.24-1.93-2.1.82-.68-2.2-.69,2.2-2.1-.82,1.24,1.93L37,26.38l2.24.2-.31,2.29,1.55-1.68L42,28.87l-.31-2.29,2.24-.2Z" fill="#ededed"></path><path d="M51.73,12.65l-.31,2.29L53,13.26l1.55,1.68-.31-2.29,2.24-.2-1.93-1.18,1.24-1.93-2.1.82L53,8l-.69,2.2-2.1-.82,1.25,1.93-1.93,1.18Z" fill="#ededed"></path><path d="M65.59,21.77l1.25-1.93-2.1.82-.69-2.2-.69,2.2-2.1-.82,1.24,1.93L60.57,23l2.24.2-.31,2.29,1.55-1.67,1.55,1.67-.31-2.29,2.23-.2Z" fill="#ededed"></path><path d="M58.49,30.15,58,28.78l-.54,1.37L56,30.26l1.1.95-.34,1.44L58,31.87l1.23.78-.35-1.44,1.1-.95Z" fill="#ededed"></path><path d="M29.94,12.76v-1.4H18l11.9-8.22V.22L13.81,11.36H11.27v-.13L27.51,0H25.89L11.27,10.11V0H10.15V12.76Z" fill="#ededed"></path><path d="M4.74,19.3v.23l-16.1,11.13h1.47L4.74,20.55V30.66H5.85V17.9H-13.93v1.4H-2l-11.9,8.22v3L2.34,19.3Z" fill="#ededed"></path><path d="M5.85,0H4.74V10.11L-9.89,0h-4V.15L2.3,11.36H-.45L-13.93,2.05v1.1L-2,11.37h-11.9v1.4H5.85Z" fill="#ededed"></path><path d="M10.15,30.66h1.12V20.55L25.89,30.66h4.05v-.23L13.82,19.3h2.75l13.37,9.24v-1L18,19.3h11.9V17.9H10.15Z" fill="#ededed"></path><path d="M5.85,30.66h4.3V17.9H29.94V12.76H10.15V0H5.85V12.76H-13.94V17.9H5.85Z" fill="#f71100"></path><path d="M2.3,11.36-13.93.15v1.9L-.45,11.37Z" fill="#f71100"></path><path d="M4.74,19.54V19.3H2.34L-13.93,30.54v.12h2.57Z" fill="#f71100"></path><path d="M11.26,11.36h2.55L29.93.22V0H27.51L11.26,11.23Z" fill="#f71100"></path><path d="M13.83,19.3,29.94,30.44v-1.9L16.57,19.3Z" fill="#f71100"></path></g></svg> 