<?xml version="1.0" encoding="UTF-8"?> <svg xmlns="http://www.w3.org/2000/svg" xmlns:xlink="http://www.w3.org/1999/xlink" viewBox="0 0 62.5 62.5"><defs><clipPath id="a"><rect width="62.5" height="62.5" fill="none"></rect></clipPath></defs><g clip-path="url(#a)"><path d="M36.51,62.25a31,31,0,1,1,31-31,31,31,0,0,1-31,31Z" fill="none"></path><path d="M14.65,50.09l12.44-6.28L14.65,37.53l12.44-6.28L14.65,25l12.44-6.29L14.65,12.4,27.09,6.12,14.65-.16H-10.6V62.66H14.65l12.44-6.28Z" fill="#fff"></path><path d="M14.65-.16,27.09,6.12,14.65,12.4l12.44,6.28L14.65,25l12.44,6.28L14.65,37.53l12.44,6.28L14.65,50.09l12.44,6.29L14.65,62.66h69V-.16Z" fill="#d60029" fill-rule="evenodd"></path></g></svg> 