<?xml version="1.0" encoding="UTF-8"?> <svg xmlns="http://www.w3.org/2000/svg" xmlns:xlink="http://www.w3.org/1999/xlink" viewBox="0 0 62.5 62.5"><defs><clipPath id="a"><rect width="62.5" height="62.5" fill="none"></rect></clipPath></defs><g clip-path="url(#a)"><path d="M31.25,62.25a31,31,0,1,1,31-31h0A31,31,0,0,1,31.25,62.25Z" fill="none"></path><path d="M13.16-.85v64.2H49.8V-.85ZM39.5,40.76c-2.2-.26-6.28-.79-7.44-.85-.13,0-.47-.06-.49.23-.11,1.28.12,5.21.23,7.2,0,.53,0,.76.05.93a2.44,2.44,0,0,1-1.2,0c0-.17,0-.41.05-.93.1-2,.33-5.92.23-7.2,0-.29-.36-.24-.5-.23-1.16.06-5.24.59-7.43.85.47-1.1.95-2.15.79-2.69-.27-.91-3.84-3.7-7.79-6.81.89-.28,1.85-.52,2-1.08.2-.78-.26-2.31-1.32-5.4,2.54.77,3.94,1.17,4.75,1,.51-.18.63-1,.78-2.42,1.41,1.46,3.5,4.6,4.21,4.4,1.1-.39-.49-6.18-1-9.28,1.2.76,2,1.33,2.6,1.33.87,0,1.73-2.1,3.3-5.63,1.57,3.53,2.43,5.59,3.3,5.63.62,0,1.4-.57,2.6-1.33-.54,3.09-2.14,8.88-1,9.28.72.2,2.81-2.94,4.21-4.4.15,1.45.27,2.24.78,2.42.81.21,2.21-.19,4.75-1-1.05,3.09-1.52,4.62-1.32,5.4.13.57,1.08.8,2,1.08-4,3.11-7.52,5.9-7.79,6.81-.16.54.32,1.59.79,2.69Z" fill="#fff"></path><rect x="-16.9" y="-0.85" width="30.06" height="64.19" fill="#ef0017"></rect><rect x="49.8" y="-0.85" width="29.6" height="64.19" fill="#ef0017"></rect><path d="M46.5,31.26c-.89-.28-1.85-.52-2-1.08-.19-.78.27-2.31,1.33-5.4-2.54.77-3.94,1.17-4.76,1-.5-.18-.62-1-.78-2.42-1.4,1.46-3.49,4.6-4.2,4.4-1.1-.39.49-6.18,1-9.28-1.2.76-2,1.33-2.61,1.33-.86,0-1.72-2.1-3.29-5.63-1.57,3.53-2.44,5.59-3.3,5.63-.62,0-1.4-.57-2.6-1.33.54,3.09,2.13,8.88,1,9.28-.72.2-2.81-2.94-4.21-4.4-.15,1.45-.27,2.24-.78,2.42-.82.21-2.22-.19-4.75-1,1.05,3.09,1.52,4.62,1.32,5.4-.13.57-1.09.8-2,1.08,3.95,3.11,7.52,5.9,7.79,6.81.15.54-.33,1.59-.8,2.69,2.2-.26,6.28-.79,7.44-.85.14,0,.47-.06.49.23.11,1.28-.12,5.21-.23,7.2,0,.53,0,.76,0,.93a2.4,2.4,0,0,0,1.19,0c0-.17,0-.41,0-.93-.11-2-.34-5.92-.23-7.2,0-.29.35-.24.49-.23,1.16.06,5.24.59,7.43.85-.46-1.1-1-2.15-.79-2.69C39,37.16,42.54,34.37,46.5,31.26Z" fill="#ef0017"></path></g></svg> 