<?xml version="1.0" encoding="UTF-8"?> <svg xmlns="http://www.w3.org/2000/svg" xmlns:xlink="http://www.w3.org/1999/xlink" viewBox="0 0 62.5 62.5"><defs><clipPath id="a"><rect width="62.5" height="62.5" fill="none"></rect></clipPath></defs><g clip-path="url(#a)"><path d="M30.33,62.09a31,31,0,1,1,31-31,31,31,0,0,1-31,31Z" fill="none"></path><rect x="-7.36" y="-0.89" width="95.94" height="63.96" fill="#ef1600"></rect><path d="M13.73,8.27l2.79,8.15,9.09,0-7.36,5,2.82,8.14-7.34-5-7.34,5,2.82-8.14-7.36-5,9.09,0Z" fill="#ffe600" fill-rule="evenodd"></path><path d="M41.25,25,42,27.19h2.39l-1.94,1.32.75,2.14-1.94-1.32-1.93,1.32.74-2.14-1.94-1.32h2.4Z" fill="#ffe600" fill-rule="evenodd"></path><path d="M39.91,13.89l1.77,1.51,2.07-1.13-1,2.06,1.78,1.5-2.37-.24-1,2.06-.5-2.2-2.37-.24,2.07-1.12Z" fill="#ffe600" fill-rule="evenodd"></path><path d="M34.57,5.17l.06,2.25,2.3.64-2.25.75.07,2.25L33.29,9.27,31,10,32.4,8.18,30.93,6.39l2.3.64Z" fill="#ffe600" fill-rule="evenodd"></path><path d="M35.38,32.3l-.23,2.24,2.2.89L35,35.92l-.22,2.25-1.22-1.94-2.33.5L32.83,35,31.61,33.1l2.19.9Z" fill="#ffe600" fill-rule="evenodd"></path></g></svg> 