<?xml version="1.0" encoding="UTF-8"?> <svg xmlns="http://www.w3.org/2000/svg" xmlns:xlink="http://www.w3.org/1999/xlink" viewBox="0 0 62.5 62.5"><defs><clipPath id="a"><rect width="62.5" height="62.5" fill="none"></rect></clipPath></defs><g clip-path="url(#a)"><path d="M31.25,62.25a31,31,0,1,1,31-31,31,31,0,0,1-31,31Z" fill="none"></path><rect x="-16.91" y="41.95" width="96.33" height="21.41" fill="#161616"></rect><rect x="-16.91" y="20.55" width="96.33" height="21.41" fill="#fff"></rect><rect x="-16.91" y="-0.86" width="96.33" height="21.41" fill="#e0001b"></rect><path d="M38.21,26a1.41,1.41,0,0,0-.6-1.27c-.74-.41-1.92.17-2.39.45a3.77,3.77,0,0,1-2.09.6h0a.07.07,0,0,0-.06.07.06.06,0,0,0,.06.06h0a3.9,3.9,0,0,0,2.15-.62c.45-.26,1.57-.82,2.25-.44a1.24,1.24,0,0,1,.53,1.1,2.41,2.41,0,0,0-.77-.38l.5,11.89-.25-.23L37,25.7c-.17.17-.68.59-.77.68h0l.43,10-.34-.32-.43-9.43c-.16.17-.5.41-.59.5h0l.33,8.29-.34-.32L35,27.32a5.38,5.38,0,0,1-.55.24,6.73,6.73,0,0,1-.07,1.19l.27,5.74-.33-.31-.17-4.31a7.69,7.69,0,0,1-.61,1.55l.09,2.12.13.12-1-1-.08.11,2,1.87v0L35,35l3.6,3.33h.07a.07.07,0,0,0,0-.07Z" fill="#dba100"></path><path d="M24.25,26a1.39,1.39,0,0,1,.6-1.27c.74-.41,1.91.17,2.39.45a3.74,3.74,0,0,0,2.08.6h0a.07.07,0,0,1,.07.07.07.07,0,0,1-.07.06h0a3.9,3.9,0,0,1-2.15-.62c-.46-.26-1.58-.82-2.26-.44a1.25,1.25,0,0,0-.52,1.1,2.41,2.41,0,0,1,.77-.38l-.5,11.89.24-.23.52-11.48c.17.17.67.59.76.68h0l-.42,10,.34-.32.42-9.43c.17.17.51.41.6.5h0l-.33,8.29.34-.32.33-7.79a5.38,5.38,0,0,0,.55.24,6.73,6.73,0,0,0,.07,1.19l-.27,5.74.33-.31.17-4.31a8.29,8.29,0,0,0,.6,1.55l-.09,2.12-.12.12,1-1,.08.11-2,1.87v0l-.37.31-3.59,3.33h-.07a.06.06,0,0,1,0-.07Z" fill="#dba100"></path><path d="M32.47,25.91l-.06,0a6.25,6.25,0,0,1-.51-2.25.09.09,0,0,1,.06-.08.08.08,0,0,1,.08.07,6.11,6.11,0,0,0,.48,2.19.08.08,0,0,1,0,.1h0Zm-.81,0a.06.06,0,0,1-.06-.05,16,16,0,0,1-.12-2.3.07.07,0,0,1,.07-.07.07.07,0,0,1,.06.07,17.12,17.12,0,0,0,.12,2.26.07.07,0,0,1,0,.08Zm-.85,0h0a.06.06,0,0,1,0-.09h0a8.81,8.81,0,0,0,.39-2.32.07.07,0,1,1,.14,0h0a8.74,8.74,0,0,1-.41,2.38A.08.08,0,0,1,30.81,25.87Zm-.67-.05,0,0a.06.06,0,0,1,0-.09,6.21,6.21,0,0,0,.67-2.22.07.07,0,0,1,.09,0,.06.06,0,0,1,0,.06,6.34,6.34,0,0,1-.7,2.3l-.06,0Z" fill="#dba100"></path><path d="M33.4,26c-.37-.17-.82-1.53-.77-2.69s-.16-1.62-.35-1.81a2.8,2.8,0,0,0-1.4-.45.29.29,0,0,0-.23.08.19.19,0,0,0,0,.1,1.69,1.69,0,0,0-1.13,0,.82.82,0,0,0-.21.65c0,.09,0,.14.08.16a.09.09,0,0,0,.11,0,.4.4,0,0,1,.32-.1.75.75,0,0,1,.46.38,2.79,2.79,0,0,1-.1,1.89,6.38,6.38,0,0,1-1.05,1.87.06.06,0,0,0,0,.09h0a2.17,2.17,0,0,0,.92-.3l-.1.44a.07.07,0,0,0,0,.07H30a3.32,3.32,0,0,0,.77-.51l.39.4a0,0,0,0,0,.05,0l.05,0a3.51,3.51,0,0,1,.37-.4,1.61,1.61,0,0,0,.9.4h0s0,0,.07,0,0-.06,0-.26a2.84,2.84,0,0,0,.77.15.06.06,0,0,0,.06,0A.06.06,0,0,0,33.4,26Zm-.88-.23a.08.08,0,0,0-.09,0,.07.07,0,0,0,0,.08,2.31,2.31,0,0,1,.1.28,1.52,1.52,0,0,1-.8-.4.06.06,0,0,0-.09,0,3.68,3.68,0,0,0-.39.4l-.38-.4a.07.07,0,0,0-.09,0,3.43,3.43,0,0,1-.66.47l.11-.45a.07.07,0,0,0-.05-.08h-.05a2.82,2.82,0,0,1-.84.35,6.18,6.18,0,0,0,1-1.8,3.9,3.9,0,0,0,.19-1.76l0-.05c.07-.06.37,0,.37,0-.4-.69-.86-.85-1.06-.84s-.28.17-.34.29l-.06,0a.82.82,0,0,1,0-.27.86.86,0,0,1,.07-.21.63.63,0,0,1,.3-.1.77.77,0,0,1,.64.22c.24.19.38.28.49.26s.08.13.25.13.13-.12.19-.14l.57-.13a.92.92,0,0,1,.37.05,3.07,3.07,0,0,1,.22,1.58A4.55,4.55,0,0,0,33.16,26a1.37,1.37,0,0,1-.65-.2Z" fill="#dba100"></path><path d="M31.14,21.62a.11.11,0,0,1,0,.22h0a.11.11,0,0,1,0-.22Z" fill="#fff"></path><path d="M30.72,33.72l-.84,3.83.34.33.35-.26.5-3.59C31,33.93,30.83,33.83,30.72,33.72Z" fill="#dba100"></path><path d="M31.24,34.16h0l-.12-.1-.21,3.56.34.43.34-.43-.21-3.56Z" fill="#dba100"></path><path d="M31.42,34l.5,3.6.36.26.33-.34-.84-3.82Z" fill="#dba100"></path><path d="M28.88,31.06s2,2,2,2l-1.07,5.2-2.85-.49Zm4.74,0s-2,2-2,2l1.07,5.2,2.85-.49Z" fill="#ededed"></path><path d="M29,37.38a.06.06,0,0,0-.06,0l-.39.65.15,0,.28-.48.17.52.15,0L29,37.43S29,37.39,29,37.38Z" fill="#dba100"></path><path d="M35.45,37.78l.12,0L33.7,31.09l-.09.18.56,2h0l-.21.51-.71-.69.13-1.29v0l-.16.26-.1,1-.33-.32-.09.1.4.39L33,34.2l-.39-.52,0,0-.3-.4-.1.11.29.37-.34,1.2-.05-.08-.25-1.15-.11.1.23,1.08s0,0,0,.05l.55,2.48a.09.09,0,0,0,0,.05l.16.71h.13l-.17-.74.24-1.13.55.85a.07.07,0,0,0,.09,0s0,0,0,0l.29-.89.53.88-.28.94h.15l.24-.81.48.68.13,0a.06.06,0,0,0,0,0l-.56-.78.37-1.37Zm-2.91-.68-.4-1.85h0l.6.91ZM32.78,36l-.59-.89.35-1.21.43.56a.07.07,0,0,0,.06,0h0a.06.06,0,0,0,.05-.06l.13-1.15.71.68a.06.06,0,0,0,0,0h0a0,0,0,0,0,0,0l.19-.45.51,1.79L34,34.52a.07.07,0,0,0-.06,0s0,0,0,0l-.24.84-.54-.73a.11.11,0,0,0-.07,0,.06.06,0,0,0,0,.06Zm1.6,1-.53-.87a.08.08,0,0,0-.06,0,.1.1,0,0,0-.06.05l-.29.89-.55-.84.23-1.25.53.72a.08.08,0,0,0,.1,0l0,0,.24-.87.77.79Z" fill="#dba100"></path><path d="M33.54,37.38s0,0,0,0l-.24.72.15,0,.17-.51.28.47.14,0-.38-.65A.07.07,0,0,0,33.54,37.38Z" fill="#dba100"></path><path d="M30.7,33.7l-.26,1.15,0,.07-.35-1.19.29-.38-.1-.1-.3.39a.09.09,0,0,0,0,0l-.39.51-.12-1.08.4-.38-.08-.11-.34.32-.1-1-.15-.25a0,0,0,0,0,0,0l.14,1.29-.72.68-.21-.5h0l.55-2c0-.05-.05-.09-.07-.14-.43,1.48-1.89,6.62-1.89,6.62l.12,0,.59-2.09L28,37.05l-.56.79s0,0,0,0l.13,0,.47-.68.25.81h.15l-.29-1,.53-.87.29.89s0,0,.06,0a.09.09,0,0,0,.07,0l.54-.85.24,1.13-.16.74h.13l.15-.72s0,0,0,0l.55-2.48a.09.09,0,0,0,0,0l.24-1.08ZM29.06,37l-.3-.89L28.71,36h0a.09.09,0,0,0-.06,0l-.53.87-.4-1.44.77-.78.24.86.05,0a.08.08,0,0,0,.07,0l.53-.72.23,1.25Zm.42-2.27s0,0-.05,0a.06.06,0,0,0-.07,0l-.54.74-.24-.85a.07.07,0,0,0-.12,0l-.7.72.5-1.79.19.45a.07.07,0,0,0,.05,0h0l0,0,.72-.68.12,1.15a.05.05,0,0,0,.05,0h0l.05,0,.43-.56.35,1.21-.59.89ZM30,37.1l-.21-1,.61-.92h0Z" fill="#dba100"></path><path d="M31.24,34.22h0A8.28,8.28,0,0,1,28,27.53a.05.05,0,0,1,0,0,0,0,0,0,1,.05,0,1.07,1.07,0,0,0,.25,0,5.8,5.8,0,0,0,2.91-.94l.05,0s0,0,0,0a5.13,5.13,0,0,0,2.83.92,1.09,1.09,0,0,0,.26,0l0,0s0,0,0,0a8.27,8.27,0,0,1-3.22,6.68Zm-3.13-6.61a8.15,8.15,0,0,0,3.13,6.47,8.16,8.16,0,0,0,3.14-6.47l-.22,0a5.45,5.45,0,0,1-2.89-.93,6.17,6.17,0,0,1-2.95.93l-.21,0Z" fill="#dba100"></path><path d="M34.16,27.83h-.09a5.77,5.77,0,0,1-2.8-.85,6.47,6.47,0,0,1-2.85.85h-.09c0,.15,0,.31,0,.44a6.89,6.89,0,0,0,.27,1.56,7.63,7.63,0,0,0,2.62,4,7.6,7.6,0,0,0,2.64-4,7.48,7.48,0,0,0,.26-1.56c0-.14,0-.29,0-.43Z" fill="#ededed"></path><path d="M30.11,27.51a6.84,6.84,0,0,1-1.68.32h-.09c0,.15,0,.31,0,.44a8.21,8.21,0,0,0,.27,1.56,7.8,7.8,0,0,0,1.49,2.87V27.51Zm2.21,0v5.28a7.64,7.64,0,0,0,1.56-3,8.21,8.21,0,0,0,.27-1.56,3.09,3.09,0,0,0,0-.43h-.09a7,7,0,0,1-1.75-.34Z" fill="#dba100"></path><path d="M31.24,38.86h.21c0-.07,0-.13,0-.19a.15.15,0,0,1,0-.07H31a1.15,1.15,0,0,1,0,.26Z" fill="#dba100"></path><path d="M37.73,39.19h-.08c-.06,0-.11-.07-.2-.19a.71.71,0,0,0-.46-.33.74.74,0,0,0-.12-.29.11.11,0,0,1,0,.08,1.51,1.51,0,0,0-.12.26v.09a.14.14,0,0,0,0,.1.12.12,0,0,0,.1,0c.14,0,.21.05.35.23a1,1,0,0,0,.2.21.86.86,0,0,0-.07.21c0,.17-.08.32-.28.39a.12.12,0,0,0-.09.12c0,.34,0,.49-.4.56h0a21.79,21.79,0,0,1-5.34.5h0a22.12,22.12,0,0,1-5.32-.5h0c-.42-.07-.42-.22-.42-.56a.12.12,0,0,0-.09-.12c-.2-.07-.24-.22-.28-.39a.86.86,0,0,0-.07-.21,1,1,0,0,0,.2-.21c.13-.17.21-.25.35-.23a.12.12,0,0,0,.1,0,.14.14,0,0,0,.05-.1v-.11l0,0c-.06,0-.11,0-.15-.1s0,0,0-.05a.83.83,0,0,0,0,.15.71.71,0,0,0-.46.33c-.09.12-.15.18-.2.19h-.08a.12.12,0,0,0-.12.13.12.12,0,0,0,.09.12h.07s0,.06.07.18a.7.7,0,0,0,.37.54.63.63,0,0,0,.61.73,22.2,22.2,0,0,0,5.39.51,22.28,22.28,0,0,0,5.4-.51.63.63,0,0,0,.61-.65v-.08a.71.71,0,0,0,.36-.54.4.4,0,0,1,.07-.18h.07a.13.13,0,0,0,0-.25Z" fill="#dba100"></path><path d="M26.25,39.23c-.14,0-.05-.23.05-.19A.1.1,0,1,1,26.25,39.23Zm5.88.42c-.12,0,0-.28.14-.14S32.26,39.69,32.13,39.65Zm0,.27c-.08,0-.11-.13,0-.2.21.09.08.23,0,.2Zm-5.44-1.17-.12,0c-.07,0-.15.06-.22,0s-.16,0-.16.07a.11.11,0,0,0,.14.08h0c.05-.06.2-.09.18,0a1.07,1.07,0,0,1-.14.39s-.09,0-.14,0a.39.39,0,0,0-.27.3c0,.12,1.19.38,1.29.39s.3-.66.17-.63-.29.1-.17.23a.23.23,0,0,1-.06.19c-.05,0-.38,0-.3-.14s.07-.26.09-.39-.11,0-.15,0c-.28.12,0-.06-.1.29-.05.16-.3.11-.26,0s.16-.49.19-.6.11-.25,0-.26Zm-.39.78c.14,0-.06.16-.07,0S26.32,39.54,26.34,39.53Zm-.11.53c-.05-.05,0-.08,0-.14S26.43,40.25,26.23,40.06Zm.33.11c-.24-.06.11-.31.11-.09a.08.08,0,0,1-.08.09Zm9.54,0c-.12-.1.12-.24.18-.13S36.19,40.25,36.1,40.17ZM27,40.3c-.13,0,0-.25.09-.16s0,.19-.09.16Zm2.35.1a7.46,7.46,0,0,1,.1-1.06c0-.17.1,0,.21.1s0,.07,0,.08,0,1.15-.28.88Zm3.18-1c-.29.22-.11.16-.08.25.14.52,0,.39-.08.47s-.08.07-.12.11c-.29.56.26.26.82.27.06,0,.09-.05.09-.1s0-.67-.17-.49-.1,0-.13.09.07.07.09.11,0,.22-.09.24-.18-.08-.25-.83c0,0,0-.13-.08-.12Zm-.07.88h0v.08l-.08,0c-.08-.05,0-.12,0-.1Zm-3.2-1c-.26.09-.23.17-.15.2a9,9,0,0,1-.1.91c0,.09-.08,0-.13,0v-.11c0-.19-.26-.06-.21-.25s.11,0,.16,0,.1-.12,0-.17-.13-.09-.15-.17a.28.28,0,0,0-.13-.23.31.31,0,0,0-.25.19c-.64.21.06.27-.06.39a.17.17,0,0,1-.21.06c-.23,0-.13-.21-.21-.37s-.08-.06-.12,0a.2.2,0,0,0,0,.22c.11.42-.41.34-.35.44s.37.06.47-.12.38,0,.48,0,.13-.16.17,0,.22,0,.21.25a.22.22,0,0,0,.16.19c.36.1.34-.48.46-1.33,0,0,0,0-.06,0Zm-.73.44s0,.12.07.14-.1.11-.23,0l.16-.12Zm7.07-.84-.18,0c-.11,0-.17.11-.06.16s.16,0,.27,0,.15.3.27.69c.1.11-.08.18-.16.1s-.2-.16-.28-.06-.1.17-.18.2-.15-.12-.21-.18-.19-.1-.29-.13,0-.25-.11-.32-.23.19-.11.26,0,.15-.1.22a.57.57,0,0,0-.1.31c-.32.18,0-.67-.58,0a1.62,1.62,0,0,0,0,.22c0,.09.13,0,.19,0s.15.07.06.13-.23,0-.22.15c.27,0,.42-.11.44-.24s.5-.23.53,0,.25.17.33.06a.25.25,0,0,0,.12-.24c0-.08.13-.09.17,0s.23.07.32,0c.27-.21-.22-.06.81-.35.15,0,0-.13-.06-.18s-.25.41-.48-.28c0-.19,0-.53-.39-.52Zm-.73,1c.12,0,.2.21,0,.19S34.78,39.86,34.86,39.85Zm.7,0c.24,0-.07.27-.09.07A.08.08,0,0,1,35.56,39.89Zm-1,0c.06,0,.12.17,0,.17s-.09-.16,0-.17Zm-.59.15c.24.06-.22.24-.06,0A.07.07,0,0,1,34,40.05Zm1,.13s.08,0,0,.08S34.82,40.18,35,40.18Zm-1.84.52s0,0,0,0a1,1,0,0,0,.24-.17c.1-.66-.3-.12,0-.65,0-.05.11,0,.14.12.26.3.14.81-.32.73,0,0,0,0,0,0Zm-.73,0c-.09-.09,0-.19.15-.13s.1,0,.11,0a.11.11,0,0,1,.14,0,.09.09,0,0,1,0,.17.08.08,0,0,1-.1-.06c0-.11-.14.16-.26,0Zm-2.12-1a.17.17,0,0,0-.16.13.67.67,0,0,1,0,.24c0,.12-.08.15-.15.09a1.73,1.73,0,0,0-.14-.31c-.06-.08-.18.16-.18.16s.39.46-.27.58c-.14.08.29.16.45,0s.07-.19.17-.2a4.26,4.26,0,0,1,.8.08.28.28,0,0,0,.2.24c.05,0,.27,0,.3-.27.72,0,.49,0,.6-.08l0-.2c0-.09,0-.2-.06-.28s-.16.06-.25.07a.29.29,0,0,0-.19.25c-.06.09-.15,0-.12-.1v-.1c-.13-.16-.86.13-.95-.28l-.07,0Zm.21.4a2.18,2.18,0,0,1,.63.06c0,.25,0,.3,0,.32a.08.08,0,0,1-.07,0v-.15l-.08,0c-.89-.05-.55-.17-.44-.16Zm1.21,0s.07.1,0,.12C31.56,40.4,31.62,40.21,31.73,40.21Z" fill="#dba100"></path><path d="M30.73,38.24a.4.4,0,0,0-.33-.17h0a8.7,8.7,0,0,1-2-.09,12.06,12.06,0,0,1-1.87-.43.43.43,0,0,0-.36.08.59.59,0,0,0-.47.24.72.72,0,0,0-.09.72.08.08,0,0,0,.06,0h0a.09.09,0,0,0,.06,0c0-.06.13-.1.22-.14a.77.77,0,0,0,.25-.14l.13.07c.48.13,1.19.27,1.65.35a.66.66,0,0,0,.13.25.43.43,0,0,1,.13.3h0a.07.07,0,0,0,.14,0h0a.46.46,0,0,1,.15-.29l.12-.15a10.54,10.54,0,0,0,1.12.08,3.81,3.81,0,0,0,.59,0h.11a.45.45,0,0,0,.23.24c.12.07.19.12.19.21a.08.08,0,0,0,0,.07h0a.05.05,0,0,0,0,0,1,1,0,0,0,.13-.89A.41.41,0,0,0,30.73,38.24ZM26.09,38a.35.35,0,0,1,0,.2c0,.06-.13.1-.22.13l-.2.1a.54.54,0,0,1,.1-.46.42.42,0,0,1,.35-.19.34.34,0,0,0,0,.22Zm2.3.9a1.34,1.34,0,0,0-.11.14l-.1-.14a.35.35,0,0,1-.11-.32v0c0-.14.07-.23.17-.24h0a.26.26,0,0,1,.25.21c.05.17,0,.26-.13.38Zm2-.17-.12,0a7.49,7.49,0,0,1-1.64,0,.81.81,0,0,0,0-.22.41.41,0,0,0-.43-.32.34.34,0,0,0-.29.37.09.09,0,0,1,0,.05c-.46-.09-1.14-.22-1.6-.35l-.11-.06a.5.5,0,0,0,0-.21.29.29,0,0,1,.06-.22s0,0,0,0l.11,0h.05a11.26,11.26,0,0,0,1.89.44h0a8.87,8.87,0,0,0,2.06.09.3.3,0,0,1,.27.22s0,.06-.1.11a.58.58,0,0,0-.16.19Zm.5.44a.68.68,0,0,0-.21-.17c-.1-.07-.16-.11-.17-.18s0-.11.11-.17a.33.33,0,0,0,.15-.25.29.29,0,0,1,.17.14.81.81,0,0,1-.05.63Z" fill="#dba100"></path><path d="M36.84,37.88a.55.55,0,0,0-.47-.24.48.48,0,0,0-.37-.09,10.68,10.68,0,0,1-1.86.43,8.62,8.62,0,0,1-2,.09.42.42,0,0,0-.33.17.43.43,0,0,0-.38.23.94.94,0,0,0,.13.89.06.06,0,0,0,.06,0h0a.05.05,0,0,0,0-.06c0-.11.11-.18.22-.25s.18-.13.21-.21l.1,0a5.68,5.68,0,0,0,.59,0,8.71,8.71,0,0,0,1.13-.08A.83.83,0,0,0,34,39a.41.41,0,0,1,.15.29.07.07,0,0,0,.14,0,.43.43,0,0,1,.13-.3.56.56,0,0,0,.13-.24c.46-.09,1.17-.23,1.66-.37l.12-.06a.52.52,0,0,0,.25.14c.09,0,.19.08.22.14a.07.07,0,0,0,.06,0h0a.08.08,0,0,0,.06,0A.7.7,0,0,0,36.84,37.88ZM31.79,39a1,1,0,0,0-.22.2.81.81,0,0,1-.05-.63.26.26,0,0,1,.17-.14.28.28,0,0,0,.13.24c.08.06.13.1.13.19s-.08.09-.16.14Zm2.53-.06a1.71,1.71,0,0,0-.11.14.76.76,0,0,0-.11-.14c-.1-.12-.18-.21-.13-.37a.26.26,0,0,1,.25-.22h0c.11,0,.17.1.17.24v0a.34.34,0,0,1-.09.33Zm1.85-.66a15.44,15.44,0,0,1-1.61.35v0a.34.34,0,0,0-.29-.37.39.39,0,0,0-.43.31.41.41,0,0,0,0,.22,7.49,7.49,0,0,1-1.64,0l-.13,0a.45.45,0,0,0-.16-.2l-.08-.07a.3.3,0,0,1,.27-.24,8.87,8.87,0,0,0,2.06-.09h0A11.92,11.92,0,0,0,36,37.69a.22.22,0,0,1,.16,0,.07.07,0,0,0,0,0,.23.23,0,0,1,.06.22.55.55,0,0,0,0,.22l-.11.05Zm.67.18a1,1,0,0,0-.21-.1c-.09,0-.18-.07-.21-.13a.34.34,0,0,1,0-.2.33.33,0,0,0,0-.22.44.44,0,0,1,.35.18.62.62,0,0,1,.11.47Z" fill="#dba100"></path><path d="M30.27,38.44a1.17,1.17,0,0,1-.37,0,0,0,0,0,0,0,0h0s0,0,0,0h.05a1.12,1.12,0,0,0,.36,0,0,0,0,0,0,0-.05h0A.05.05,0,0,0,30.27,38.44Z" fill="#dba100"></path><path d="M26.88,38.06a1.18,1.18,0,0,1-.37-.09,0,0,0,0,0-.06,0,0,0,0,0,0,0,.06,1.19,1.19,0,0,0,.41.11h0a0,0,0,0,0,.05,0S26.91,38.07,26.88,38.06Z" fill="#dba100"></path><path d="M27.63,38.26a1.05,1.05,0,0,1-.35-.08.06.06,0,0,0-.07,0,0,0,0,0,0,0,.07h0a1.3,1.3,0,0,0,.39.09h0a0,0,0,0,0,.05,0S27.65,38.26,27.63,38.26Z" fill="#dba100"></path><path d="M29.4,38.45a1.41,1.41,0,0,1-.41,0,.05.05,0,0,0-.06,0h0a.06.06,0,0,0,0,.06h.44a.05.05,0,0,0,0-.06s0,0-.05,0Z" fill="#dba100"></path><path d="M36,38a1.12,1.12,0,0,1-.37.09.07.07,0,0,0,0,.06h0s0,0,.05,0h0a1.19,1.19,0,0,0,.42-.11A0,0,0,0,0,36,38s0,0-.06,0Z" fill="#dba100"></path><path d="M32.58,38.48a1.58,1.58,0,0,1-.38,0,.07.07,0,0,0-.06,0s0,.06,0,.06a1.49,1.49,0,0,0,.36,0h0s.05,0,.05,0a0,0,0,0,0,0-.05Z" fill="#dba100"></path><path d="M35.2,38.18a1.05,1.05,0,0,1-.35.08.05.05,0,0,0,0,.06.08.08,0,0,0,0,0h0a1.38,1.38,0,0,0,.39-.09.07.07,0,0,0,0-.07h0a.07.07,0,0,0-.07,0Z" fill="#dba100"></path><path d="M33.5,38.45a1.48,1.48,0,0,1-.42,0,.05.05,0,0,0,0,0h0a.05.05,0,0,0,0,.06h.44s.05,0,0-.06h0S33.52,38.45,33.5,38.45Z" fill="#dba100"></path></g></svg> 