<?xml version="1.0" encoding="UTF-8"?> <svg xmlns="http://www.w3.org/2000/svg" xmlns:xlink="http://www.w3.org/1999/xlink" viewBox="0 0 62.5 62.5"><defs><clipPath id="a"><rect width="62.5" height="62.5" fill="none"></rect></clipPath></defs><g clip-path="url(#a)"><path d="M31,62.25a31,31,0,1,1,31-31,31,31,0,0,1-31,31Z" fill="none"></path><rect x="-2.66" y="20.62" width="15.29" height="14" fill="#0d5acc"></rect><rect x="-2.66" y="-0.52" width="15.29" height="14.1" fill="#0d5acc"></rect><path d="M92.66,6.53h0v-7h-73V13.57H36.39v-7Z" fill="#0d5acc"></path><path d="M92.66,20.62v-7H36.39v7.05Z" fill="#0d5acc"></path><path d="M92.66,55.82H-2.66V63H92.66v-7.2Z" fill="#0d5acc"></path><path d="M92.66,41.74H-2.66v7H92.66v-7Z" fill="#0d5acc"></path><path d="M92.66,34.61V27.66H36.39v-7H19.67v14Z" fill="#0d5acc"></path><rect x="-2.66" y="34.61" width="95.31" height="7.12" fill="#fff"></rect><path d="M19.67,13.57V-.52h-7V13.57H-2.66v7.05H12.63v14h7v-14H36.39v-7Z" fill="#fff"></path><rect x="-2.66" y="48.78" width="95.31" height="7.04" fill="#fff"></rect><rect x="36.39" y="6.53" width="56.27" height="7.04" fill="#fff"></rect><rect x="36.39" y="20.62" width="56.27" height="7.04" fill="#fff"></rect></g></svg> 