<?xml version="1.0" encoding="UTF-8"?> <svg xmlns="http://www.w3.org/2000/svg" xmlns:xlink="http://www.w3.org/1999/xlink" viewBox="0 0 62.5 62.5"><defs><clipPath id="a"><rect width="62.5" height="62.5" fill="none"></rect></clipPath></defs><g clip-path="url(#a)"><rect x="-15.97" y="-0.23" width="94.44" height="20.99" fill="#f48725"></rect><rect x="-15.97" y="20.75" width="94.44" height="20.99" fill="#fff"></rect><rect x="-15.97" y="41.74" width="94.44" height="20.99" fill="#0e8e00"></rect><path d="M31.25,22.74a8.51,8.51,0,1,0,8.5,8.51h0A8.52,8.52,0,0,0,31.25,22.74Zm4.8,14.18a.25.25,0,0,0,0-.07.37.37,0,0,0-.59.44h0a.17.17,0,0,0,.06.06,8.75,8.75,0,0,1-1.07.62.29.29,0,0,0,0-.09.37.37,0,0,0-.48-.19.36.36,0,0,0-.2.48l0,.07a6.73,6.73,0,0,1-1.19.32v-.09a.36.36,0,0,0-.41-.31.37.37,0,0,0-.32.41h0s0,.06,0,.09l-.61,0-.62,0a.29.29,0,0,0,0-.09.36.36,0,1,0-.72-.11.38.38,0,0,0,0,.1,8.33,8.33,0,0,1-1.19-.31l.05-.08a.37.37,0,0,0-.68-.29h0l0,.08A7.52,7.52,0,0,1,27,37.36l.06-.06a.37.37,0,0,0-.07-.51.36.36,0,0,0-.52.07.43.43,0,0,0,0,.07,8.93,8.93,0,0,1-.87-.87.18.18,0,0,0,.07-.05.36.36,0,0,0-.44-.58h0a.17.17,0,0,0-.06.06,7.1,7.1,0,0,1-.62-1.07l.08,0a.37.37,0,1,0-.27-.68h0l-.08.05a7,7,0,0,1-.31-1.2.36.36,0,0,0,.08-.72.37.37,0,0,0-.18,0c0-.2,0-.41,0-.62s0-.41,0-.61a.38.38,0,0,0,.48-.21.29.29,0,0,0,0-.09.36.36,0,0,0-.31-.41h-.09a6.73,6.73,0,0,1,.32-1.19l.07,0a.37.37,0,1,0,.3-.67h0l-.09,0A8.75,8.75,0,0,1,25.14,27l.06.06a.36.36,0,0,0,.52-.07.37.37,0,0,0-.07-.51h0l-.07,0a6,6,0,0,1,.87-.87.25.25,0,0,0,0,.07.37.37,0,0,0,.51.07.38.38,0,0,0,.07-.52L27,25.14a8.75,8.75,0,0,1,1.07-.62.29.29,0,0,0,0,.09.37.37,0,0,0,.48.2.35.35,0,0,0,.2-.47h0l0-.08a6.73,6.73,0,0,1,1.19-.32.37.37,0,0,0,.73.08v-.09l0-.08c.2,0,.41,0,.62,0s.41,0,.62,0a.19.19,0,0,0,0,.08.36.36,0,1,0,.72.1h0a.14.14,0,0,0,0-.09,8.16,8.16,0,0,1,1.2.32.35.35,0,0,0-.05.08.37.37,0,0,0,.2.48.36.36,0,0,0,.48-.2.24.24,0,0,0,0-.08,6.34,6.34,0,0,1,1.07.62l-.06.05a.38.38,0,0,0,.07.52.37.37,0,0,0,.51-.07l.05-.07a7.85,7.85,0,0,1,.86.87l-.06,0a.36.36,0,0,0-.07.52.37.37,0,0,0,.51.07l.06-.06A7.52,7.52,0,0,1,38,28.08s-.06,0-.08,0a.36.36,0,0,0-.21.47.38.38,0,0,0,.48.21h0l.07,0a7.22,7.22,0,0,1,.32,1.19h-.08a.37.37,0,0,0-.32.42.37.37,0,0,0,.42.31l.08,0c0,.2,0,.41,0,.62s0,.41,0,.61l-.08,0a.37.37,0,1,0-.1.73h.08a7.22,7.22,0,0,1-.32,1.19l-.07,0a.36.36,0,0,0-.48.19.35.35,0,0,0,.19.48h0l.08,0a7,7,0,0,1-.62,1.06l-.06-.05a.36.36,0,0,0-.51.06.36.36,0,0,0,.07.52h0l.06,0A6.43,6.43,0,0,1,36.05,36.92Z" fill="#120fc0" fill-rule="evenodd"></path><path d="M33.67,32.93l3.94,2L33.92,32.5,32.71,32l.09-.22,1.22.49,4.32.9-4.19-1.38-1.3-.19a1,1,0,0,0,0-.23l1.31.15,4.41-.25L34.19,31l-1.31.16a1,1,0,0,0,0-.24l1.3-.19,4.19-1.38-4.32.9-1.22.49-.09-.22L33.92,30l3.69-2.42-3.94,2-1.06.79a1.33,1.33,0,0,0-.14-.19l1-.82,2.94-3.29L33.15,29l-.82,1a.9.9,0,0,0-.19-.15l.79-1.06,2-3.94L32.5,28.58,32,29.8l-.22-.1.49-1.22.9-4.32-1.38,4.19-.19,1.3-.23,0,.15-1.31-.25-4.4L31,28.31l.16,1.31-.24,0-.19-1.3-1.38-4.19.9,4.32.49,1.22-.22.1L30,28.58l-2.42-3.69,2,3.94.79,1.06a.9.9,0,0,0-.19.15l-.82-1-3.3-2.94L29,29.35l1,.82-.15.19-1.05-.79-3.94-2L28.58,30l1.21.52a.85.85,0,0,0-.09.22l-1.22-.49-4.33-.9,4.2,1.38,1.3.19a1,1,0,0,0,0,.24L28.31,31l-4.41.25,4.41.25,1.31-.15a1,1,0,0,0,0,.23l-1.3.19-4.2,1.38,4.33-.9,1.22-.49a.85.85,0,0,0,.09.22l-1.21.52-3.69,2.42,3.94-2,1.05-.79.15.19-1,.82-2.94,3.3,3.3-2.94.82-1,.19.15-.79,1.05-2,3.94L30,33.92l.52-1.21a.85.85,0,0,0,.22.09L30.25,34l-.9,4.32,1.38-4.19.19-1.3.24,0L31,34.19l.25,4.41.25-4.41-.15-1.3.23,0,.19,1.3,1.38,4.19L32.25,34l-.49-1.23a.85.85,0,0,0,.22-.09l.52,1.21,2.42,3.69-2-3.94-.79-1.05.19-.15.82,1,3.29,2.94-2.94-3.3-1-.82a1.33,1.33,0,0,0,.14-.19Z" fill="#120fc0" fill-rule="evenodd"></path></g></svg> 