<?xml version="1.0" encoding="UTF-8"?> <svg xmlns="http://www.w3.org/2000/svg" xmlns:xlink="http://www.w3.org/1999/xlink" viewBox="0 0 62.5 62.5"><defs><clipPath id="a"><rect width="62.5" height="62.5" fill="none"></rect></clipPath></defs><g clip-path="url(#a)"><path d="M31.25,62.25a31,31,0,1,1,31-31h0A31,31,0,0,1,31.25,62.25Z" fill="none"></path><rect x="-16.02" y="15.49" width="94.54" height="31.51" fill="#fff"></rect><rect x="-16.02" y="56.85" width="94.54" height="5.91" fill="#fff"></rect><rect x="-16.02" y="-0.26" width="94.54" height="5.91" fill="#fff"></rect><rect x="-16.02" y="5.65" width="94.54" height="9.85" fill="#0f4cd6"></rect><rect x="-16.02" y="47" width="94.54" height="9.85" fill="#0f4cd6"></rect><path d="M27.6,37.58H20.3L24,31.25,20.3,24.93h7.3l3.65-6.33,3.65,6.33h7.3l-3.65,6.32,3.65,6.33H34.9L31.25,43.9Zm3.65,3,1.7-3H29.54Zm8-4.64-1.7-3-1.71,3Zm-5.35,0,2.68-4.64-2.68-4.64H28.57l-2.68,4.64,2.68,4.64Zm-7.3,0-1.71-3-1.7,3Zm11-6.32,1.71-3H35.88Zm-12.66,0,1.71-3H23.22Zm8-4.64-1.71-3-1.7,3Z" fill="#0f4cd6"></path></g></svg> 