<?xml version="1.0" encoding="UTF-8"?> <svg xmlns="http://www.w3.org/2000/svg" xmlns:xlink="http://www.w3.org/1999/xlink" viewBox="0 0 62.5 62.5"><defs><clipPath id="a"><rect width="62.5" height="62.5" fill="none"></rect></clipPath></defs><g clip-path="url(#a)"><path d="M39.75,61.48a31,31,0,1,1,31-31,31,31,0,0,1-31,31Z" fill="none"></path><rect x="-5.91" y="-0.38" width="100.89" height="63.27" fill="#fff"></rect><path d="M95,62.88V58H-5.91v4.87Zm0-9.73V48.28H-5.91v4.87Zm0-9.73V38.55H-5.91v4.87Zm0-9.74V28.82H-5.91v4.86ZM95,24V19.08H-5.91V24Zm0-9.73V9.35H-5.91v4.87Zm0-9.74V-.38H-5.91V4.48Z" fill="#db0000" fill-rule="evenodd"></path><path d="M-4,38.55H44.79V-.39H-4Z" fill="#0b0b9e" fill-rule="evenodd"></path><path d="M9.24,19.08c0-5,4.34-9,9.7-9a10.46,10.46,0,0,1,4.17.87,11.63,11.63,0,0,0-7-2.25C10,8.69,5,13.34,5,19.08s5,10.4,11.19,10.4a11.7,11.7,0,0,0,7-2.26,10.29,10.29,0,0,1-4.17.87C13.58,28.09,9.24,24.06,9.24,19.08Z" fill="#ffd60b"></path><path d="M30.82,19.08l5-1.75-5.34.39,3.66-3.54-4.63,2.45L31.11,12l-3,4-.78-4.8L26.57,16l-3-4,1.61,4.63-4.63-2.45,3.66,3.54-5.34-.39,5,1.75-5,1.75,5.34-.38L20.55,24l4.63-2.45-1.61,4.63,3-4,.77,4.79.78-4.79,3,4-1.6-4.63L34.14,24l-3.66-3.54,5.34.38Z" fill="#ffd60b"></path></g></svg> 