<?xml version="1.0" encoding="UTF-8"?> <svg xmlns="http://www.w3.org/2000/svg" xmlns:xlink="http://www.w3.org/1999/xlink" viewBox="0 0 62.5 62.5"><defs><clipPath id="a"><rect width="62.5" height="62.5" fill="none"></rect></clipPath></defs><g clip-path="url(#a)"><path d="M33.73,61.48a31,31,0,1,1,31-31,31,31,0,0,1-31,31Z" fill="none"></path><path d="M3.63-.23H-10.69L3.63,10Z" fill="#002f8e" fill-rule="evenodd"></path><path d="M26-.23H11.66V10Z" fill="#002f8e" fill-rule="evenodd"></path><path d="M31.26-.23V3.52L20.94,11H31.25V18.2h0v1.68H20.77l10.48,7.77v3.6H26L11.65,21V31.25h-8V21l-14.3,10.26H-16V62.73H78.47v-63ZM54.72,15.63,55.57,13l.84,2.61h2.74l-2.22,1.61.85,2.61-2.21-1.62-2.22,1.62.85-2.61L52,15.62Zm-8.34,15.5-2.15-1.57-2.15,1.57.83-2.53L40.75,27h2.67l.81-2.54.82,2.54h2.66L45.56,28.6ZM58.11,49.48l-2.93-2.13-2.92,2.13L53.38,46l-2.93-2.13h3.62l1.11-3.45,1.12,3.45h3.62L57,46Zm8.76-21.83-1.79-1.31-1.79,1.31L64,25.54l-1.8-1.3h2.21l.68-2.11.69,2.11H68l-1.8,1.3Z" fill="#002f8e" fill-rule="evenodd"></path><path d="M-16,12.7v5.5H5V31.25h5.24v-13h21V12.7h-21V-.23H5V12.7Z" fill="#cc1515" fill-rule="evenodd"></path><path d="M-.22,20-16,31.25h3.5L3.27,20Z" fill="#cc1515"></path><path d="M15.5,11,31.25-.23h-3.5L12,10.94Z" fill="#cc1515"></path><path d="M15.51,19.88l15.74,11.3V28.84L19,19.85Z" fill="#cc1515"></path><path d="M31.26,12.7V11H21l10.31-7.5V-.23L15.51,11H12L27.75-.23H26L11.66,10V-.23h-1.4V12.7Z" fill="#ededed"></path><path d="M-16,18.2v1.68H-5.48L-16,27.65v3.6L-.22,20h3.5L-12.46,31.25h1.8L3.64,21V31.25H5v-13Z" fill="#ededed"></path><path d="M10.26,31.25h1.4V21L26,31.25h5.3v-.07L15.52,19.88l3.46,0,12.28,9V27.65L20.77,19.88H31.26V18.2h-21Z" fill="#ededed"></path><path d="M-3.67,11-16,2.11v1.4L-5.66,11H-16V12.7H5V-.24H3.63V10L-10.69-.24H-16L-.21,11Z" fill="#ededed"></path><path d="M65.76,24.25l-.69-2.11-.68,2.11H62.18l1.8,1.3-.69,2.11,1.79-1.31,1.79,1.31-.69-2.11,1.8-1.3Zm.67,2.8-1.36-1-1.35,1,.52-1.59-1.35-1h1.67l.51-1.59.52,1.59h1.67l-1.35,1Z" fill="#ededed"></path><path d="M45.05,27.05l-.82-2.53-.82,2.53H40.75l2.16,1.56-.83,2.52,2.15-1.56,2.15,1.56-.83-2.52,2.16-1.56Zm.89,3.48-1.71-1.25-1.71,1.25.66-2-1.72-1.24h2.12l.65-2,.65,2H47l-1.72,1.24Z" fill="#ededed"></path><path d="M44.88,27.28l-.65-2-.65,2H41.46l1.72,1.24-.66,2,1.71-1.25,1.71,1.25-.66-2L47,27.28Zm.62,2.64L44.23,29,43,29.92l.49-1.49-1.28-.93h1.58l.48-1.5.48,1.5h1.58L45,28.43Z" fill="#ededed"></path><path d="M53.35,19.84l2.21-1.62,2.22,1.62-.85-2.61,2.22-1.61H56.41L55.56,13l-.84,2.61H52l2.22,1.61Zm-.66-4h2.2l.67-2.09.68,2.09h2.2l-1.78,1.29.68,2.1-1.78-1.3-1.77,1.3.68-2.1Z" fill="#ededed"></path><path d="M53.79,19.24l1.77-1.3,1.78,1.3-.68-2.1,1.78-1.29h-2.2l-.68-2.09-.67,2.09h-2.2l1.78,1.29Zm-.39-3.15h1.66l.5-1.58.51,1.58h1.66l-1.34,1,.51,1.57-1.34-1-1.33,1,.51-1.57Z" fill="#ededed"></path><path d="M56.29,43.92l-1.11-3.44-1.11,3.44H50.45L53.38,46l-1.12,3.44,2.92-2.13,2.93,2.13L57,46l2.94-2.12Zm1.38,5-2.49-1.82-2.49,1.82,1-2.93-2.49-1.8h3.08l.94-2.93,1,2.93H59.2L56.71,46Z" fill="#ededed"></path><path d="M56.13,44.15l-1-2.93-.94,2.93H51.16l2.49,1.8-1,2.93,2.49-1.81,2.49,1.81-1-2.93,2.49-1.8Zm1.1,4.12-2-1.49-2,1.49.79-2.41-2.05-1.48H54.4L55.18,42,56,44.38h2.53l-2.05,1.48Z" fill="#ededed"></path><path d="M44.71,27.51,44.23,26l-.48,1.5H42.17l1.28.92L43,29.93,44.23,29l1.27.93L45,28.43l1.28-.92Z" fill="#cc1515" fill-rule="evenodd"></path><path d="M54.23,18.63l1.33-1,1.34,1-.51-1.57,1.34-1H56.07l-.51-1.58-.5,1.58H53.4l1.34,1Z" fill="#cc1515" fill-rule="evenodd"></path><path d="M56,44.38,55.18,42l-.78,2.41H51.86l2,1.49-.78,2.41,2-1.5,2,1.5-.78-2.41,2.05-1.49Z" fill="#cc1515" fill-rule="evenodd"></path><path d="M33.73,61.48a31,31,0,1,1,31-31,31,31,0,0,1-31,31Z" fill="none"></path></g></svg> 