<?xml version="1.0" encoding="UTF-8"?> <svg xmlns="http://www.w3.org/2000/svg" xmlns:xlink="http://www.w3.org/1999/xlink" viewBox="0 0 62.5 62.5"><defs><clipPath id="a"><rect width="62.5" height="62.5" fill="none"></rect></clipPath></defs><g clip-path="url(#a)"><path d="M22.5,61.48a31,31,0,1,1,31-31,31,31,0,0,1-31,31Z" fill="none"></path><path d="M84.32-.54V23.78H29.59V-.54h-15V23.77H-11V28h0v6.63h0V-.54ZM-11,63H14.59V38.78H-11Zm40.63,0H84.32V38.78H29.59Z" fill="#ff1010"></path><path d="M18.77,34.6H-11v4.18H14.59V63h4.18Z" fill="#fff"></path><path d="M29.59-.54H25.41V28H84.32V23.78H29.59Z" fill="#fff"></path><path d="M14.59,23.78H-11V28H18.77V-.54H14.59Z" fill="#fff"></path><path d="M25.41,34.6h0V63h4.18V38.79H84.32V34.61Z" fill="#fff"></path><path d="M25.41,28V-.54H18.77V23.77h0V28H-11v6.63H18.77V63h6.64V34.6H84.32V28Z" fill="#0033b2"></path></g></svg> 