<?xml version="1.0" encoding="UTF-8"?> <svg xmlns="http://www.w3.org/2000/svg" xmlns:xlink="http://www.w3.org/1999/xlink" viewBox="0 0 62.5 62.5"><defs><clipPath id="a"><rect width="62.5" height="62.5" fill="none"></rect></clipPath></defs><g clip-path="url(#a)"><path d="M30,61.48a31,31,0,1,1,31-31,31,31,0,0,1-31,31Z" fill="none"></path><path d="M54.71,31.25H95v32H-1l55.72-32Z" fill="#e80000"></path><path d="M-1-.76H95v32H54.71L-1-.76Z" fill="#0034b7"></path><path d="M54.71,31.25-1,63.26v-64Z" fill="#fff"></path><path d="M30.7,32.07l.82-.82-.81-.78-6.16.4c0-.17,0-.33-.05-.49l5.56-.74L29.49,29l-5,1a6.58,6.58,0,0,0-1-2.45l4.26-2.84v-.89l-4.48,3.43-.31-.38,4.66-4.09V21.63H26.46l-4.11,4.68c-.12-.11-.25-.21-.38-.31l3.42-4.47h-.87l-2.85,4.25a6.62,6.62,0,0,0-2.45-1c.34-1.7.67-3.37,1-4.94l-.62-.61c-.23,1.8-.48,3.63-.72,5.49l-.49-.05c.13-2.06.26-4.14.39-6.17L18,17.67l-.82.78c.13,2.07.27,4.13.4,6.2a3.87,3.87,0,0,0-.49.05c-.25-1.84-.49-3.69-.73-5.51l-.63.54c.33,1.7.66,3.35,1,5a6.5,6.5,0,0,0-2.45,1c-1-1.45-1.9-2.85-2.83-4.23h-.88L14,26l-.38.32L9.48,21.65H8.35v1.14L13,26.87a4.16,4.16,0,0,0-.32.39L8.21,23.82v.89l4.26,2.84a6.44,6.44,0,0,0-1,2.45l-5-1-.62.62,5.53.73c0,.17,0,.33-.05.5l-6.08-.4-.89.8.78.81,6.2-.41c0,.17,0,.33.05.49l-5.54.74.61.62,5-1a6.5,6.5,0,0,0,1,2.44L8.22,37.82v.88l4.48-3.43c.1.13.21.26.32.38L8.33,39.76a10.57,10.57,0,0,0,0,1.13H9.46l4.12-4.68c.13.11.25.21.39.31L10.54,41h.87l2.86-4.25a6.49,6.49,0,0,0,2.43,1c-.33,1.71-.67,3.39-1,4.94l.6.68.74-5.56.49.05c-.13,2.08-.27,4.17-.4,6.19l.79.79.81-.77c-.13-2-.27-4.12-.4-6.21l.49-.05c.25,1.86.49,3.72.74,5.56l.62-.57-1-5.05a6.62,6.62,0,0,0,2.44-1L24.51,41h.88l-3.45-4.49c.14-.1.26-.21.39-.32l4.13,4.7h1.12V39.75l-4.69-4.12.32-.39,4.5,3.46v-.88L23.42,35a6.69,6.69,0,0,0,1-2.43l4.95,1,.72-.6-5.62-.75a4.07,4.07,0,0,0,.05-.49Z" fill="#ffd400"></path><path d="M4.11,6.18,6.3,5l-1,2.3L7.15,9,4.67,8.8,3.61,11c-.2-.84-.39-1.61-.58-2.41L.55,8.31,2.68,7,2.23,4.56Z" fill="#ffd400"></path><path d="M4.11,56.31,2.23,57.94c.16-.86.31-1.64.45-2.45L.55,54.18,3,53.87c.19-.79.38-1.56.58-2.41L4.67,53.7l2.48-.2L5.34,55.21c.31.76.62,1.49,1,2.3Z" fill="#ffd400"></path><path d="M44.53,32.57l-2.39.72,1.42-2-1.42-2,2.39.71,1.54-2v2.52l2.37.83-2.36.83V34.5l-.07,0Z" fill="#ffd400"></path></g></svg> 