<?xml version="1.0" encoding="UTF-8"?> <svg xmlns="http://www.w3.org/2000/svg" xmlns:xlink="http://www.w3.org/1999/xlink" viewBox="0 0 62.5 62.5"><defs><clipPath id="a"><rect width="62.5" height="62.5" fill="none"></rect></clipPath></defs><g clip-path="url(#a)"><rect x="25.34" y="-0.19" width="56.51" height="62.87" fill="#fc000d"></rect><rect x="-12.45" y="-0.19" width="37.79" height="62.87" fill="#008e0a"></rect><path d="M37.52,41h0c-2.52-.07-9.64-3.9-15-7.15C17,30.45,11.07,26.3,11,25.12v0l1.2-2s0,0,0,0l0,0c1.1,1.6,7.41,5.78,13.18,9.22,6.81,4,12.22,6.74,13.18,6.54a0,0,0,0,1,0,0,.06.06,0,0,1,0,.06l-1.12,2ZM11.08,25.13c.12,1,4.94,4.59,11.51,8.59,5.31,3.23,12.38,7,14.9,7.14L38.55,39h0C37.07,39,31,35.71,25.4,32.39s-11.95-7.53-13.17-9.18Z" fill="#050007"></path><path d="M37.52,40.9C32.8,40.76,11.18,27.27,11,25.12l1.2-2c2.14,3.11,24.24,16.24,26.41,15.77l-1.12,2Z" fill="#ffeb00" fill-rule="evenodd"></path><path d="M12,22.86c-.43,1.13,5.64,4.88,12.93,9.32S38.5,39.36,39,39a3,3,0,0,0,.21-.4c-.09.14-.3.18-.63.08-2-.57-7.12-2.93-13.48-6.79S13.16,24.44,12.3,22.93a.85.85,0,0,1-.09-.44h0l-.18.32,0,.05ZM37.63,41c-.08.14-.23.15-.52.12-1.76-.2-7.11-2.8-13.44-6.59C16.3,30.09,10.22,26.07,10.88,25l.18-.32h0c-.59,1.78,12,9,12.75,9.45,7.29,4.52,13.44,7.15,14,6.47l-.2.34h0Z" fill="#ffeb00" fill-rule="evenodd"></path><path d="M37.33,41.15l-.22,0c-1.8-.2-7.21-2.85-13.47-6.59-8.36-5-12.56-8-12.84-9.21a.41.41,0,0,1,0-.34l.17-.31a0,0,0,0,1,.06,0h0s0,0,0,0a0,0,0,0,1,0,0c-.2.59,1.14,2.55,12.24,9.1l.49.29c7.8,4.83,13.46,7.07,13.92,6.48a.06.06,0,0,1,.07,0,0,0,0,0,1,0,.06l-.2.34h0A.33.33,0,0,1,37.33,41.15ZM11,24.85l-.1.19a.36.36,0,0,0,0,.27c.28,1.16,4.47,4.16,12.81,9.15,6.24,3.73,11.64,6.38,13.42,6.58.28,0,.4,0,.47-.1h0l.11-.19a.78.78,0,0,1-.22,0c-1.54,0-7.11-2.52-13.66-6.58l-.49-.29C15.19,29.11,11.06,26.07,11,24.85Zm27.8,14.2c-1.15,0-7.08-2.66-13.93-6.83-8.1-4.93-13.38-8.24-13-9.38h0l0,0,.18-.33,0,0h0a0,0,0,0,1,0,0h0a.78.78,0,0,0,.09.42c.91,1.6,7.29,5.6,12.75,8.91,6,3.63,11.3,6.16,13.47,6.79.29.08.5.06.58-.06s0,0,0,0,0,0,0,0,0,0-.21.44h0a.28.28,0,0,1-.17,0ZM12,22.88c-.4,1.16,6.67,5.46,12.92,9.26,7.49,4.56,13.52,7.12,14,6.8l.12-.21a.92.92,0,0,1-.52,0C36.36,38.08,31,35.54,25,31.9,19.57,28.59,13.18,24.57,12.26,23a.83.83,0,0,1-.1-.34l-.15.26Z" fill="#050007"></path><path d="M25.33,26.42c4.72,0,10.54-.65,13.9-2l-.73-1.17c-2,1.1-7.83,1.81-13.21,1.92-6.36-.06-10.84-.65-13.09-2.16l-.68,1.25C15.65,26,19.89,26.4,25.33,26.42Z" fill="#ffeb00" fill-rule="evenodd"></path><path d="M25.33,26.47h0c-5.45,0-9.67-.39-13.83-2.15l0,0v0L12.15,23l0,0h0c2.1,1.41,6.25,2.09,13.07,2.15,4.86-.1,11.06-.74,13.19-1.92a0,0,0,0,1,.06,0l.72,1.17a.08.08,0,0,1,0,0l0,0c-3.54,1.41-9.5,1.95-13.91,2ZM11.58,24.26c4.13,1.73,8.33,2.1,13.75,2.11,4.38,0,10.3-.57,13.82-1.95l-.66-1.09c-2.19,1.17-8.36,1.81-13.2,1.91-6.8-.06-10.95-.74-13.07-2.14Z" fill="#050007"></path><path d="M25.35,25.27a58.59,58.59,0,0,0,8.16-.57,17,17,0,0,0,5.28-1.42h0l-.23-.39a14.27,14.27,0,0,1-5.11,1.45,60.33,60.33,0,0,1-15.94.08,18.25,18.25,0,0,1-5.34-1.36l-.19.32a21.68,21.68,0,0,0,5.49,1.38A54.7,54.7,0,0,0,25.35,25.27Z" fill="#ffeb00"></path><path d="M39.19,24.06c-.26.32-2.06,1-5.36,1.54a57.86,57.86,0,0,1-8.52.63,60.11,60.11,0,0,1-8.16-.52,25.37,25.37,0,0,1-5.67-1.5c-.05.12-.1.2-.16.32a24.1,24.1,0,0,0,5.77,1.53,61.1,61.1,0,0,0,8.22.52A57.34,57.34,0,0,0,33.9,26a20.34,20.34,0,0,0,5.52-1.49Z" fill="#ffeb00"></path><path d="M25.25,26.63a61.77,61.77,0,0,1-8.16-.52,24.4,24.4,0,0,1-5.71-1.5l-.07,0s0,0,0,0a0,0,0,0,1,0,0,1,1,0,0,0,.07-.15l.09-.17a0,0,0,0,1,.06,0,25.2,25.2,0,0,0,5.65,1.5,62.55,62.55,0,0,0,8.09.52h.06a57.86,57.86,0,0,0,8.52-.63c3.26-.53,5.08-1.2,5.33-1.52,0,0,0,0,0,0l0,0,.23.4a0,0,0,0,1,0,0A20.24,20.24,0,0,1,33.91,26a57.57,57.57,0,0,1-8.6.62ZM11.39,24.51h0A24.37,24.37,0,0,0,17.1,26a61.62,61.62,0,0,0,8.15.52h.06a58.56,58.56,0,0,0,8.58-.62,22.44,22.44,0,0,0,5.47-1.46l-.18-.31c-.37.32-2,1-5.34,1.5a58.09,58.09,0,0,1-8.53.63h-.07a59.34,59.34,0,0,1-8.1-.52,24.36,24.36,0,0,1-5.63-1.49l-.07.14A.93.93,0,0,1,11.39,24.51Zm13.88.81a56.46,56.46,0,0,1-7.8-.51,21.57,21.57,0,0,1-5.25-1.29l-.26-.1,0,0a0,0,0,0,1,0,0l.13-.23,0-.09a0,0,0,0,1,.06,0,18.57,18.57,0,0,0,5.33,1.35,55.58,55.58,0,0,0,7.84.49,56.13,56.13,0,0,0,8.09-.57,14.31,14.31,0,0,0,5.08-1.44h0s0,0,0,0l.23.38v0a.05.05,0,0,1,0,0c-.35.28-2.1.92-5.3,1.43a55.68,55.68,0,0,1-8.16.57Zm-13.22-2,.21.08a20.87,20.87,0,0,0,5.22,1.28,53.37,53.37,0,0,0,7.79.51h.08a58.44,58.44,0,0,0,8.15-.57,17.46,17.46,0,0,0,5.22-1.39l-.18-.3a14.55,14.55,0,0,1-5.08,1.42,56.38,56.38,0,0,1-8.1.58h-.07a54.79,54.79,0,0,1-7.79-.49,18.77,18.77,0,0,1-5.31-1.35l0,.05Zm26.74-.07Z" fill="#050007"></path><path d="M9.84,32.1c2.9,1.57,9.34,2.35,15.45,2.4,5.55,0,12.79-.85,15.5-2.29l-.08-1.56c-.84,1.32-8.6,2.59-15.48,2.54S12,32.07,9.83,30.7v1.4Z" fill="#ffeb00" fill-rule="evenodd"></path><path d="M25.36,34.55h-.07c-5.4,0-12.31-.7-15.47-2.4a.05.05,0,0,1,0,0V30.7a0,0,0,0,1,0,0h0c2.15,1.39,8.62,2.44,15.38,2.49h.4c6.72,0,14.22-1.25,15-2.52a0,0,0,0,1,0,0s0,0,0,0l.08,1.56a.05.05,0,0,1,0,0C38.08,33.7,30.83,34.55,25.36,34.55ZM9.88,32.08c3.17,1.68,10,2.33,15.4,2.38h.08c5.44,0,12.64-.85,15.37-2.27l-.07-1.4c-1.18,1.3-8.65,2.51-15.44,2.45S12.1,32.17,9.87,30.79Z" fill="#050007"></path><path d="M40.93,31.88v.37c-.41.49-3,1.22-6.15,1.74a63.83,63.83,0,0,1-9.56.66A59.9,59.9,0,0,1,16.14,34a22.46,22.46,0,0,1-6.49-1.75v-.43c1.41.94,5.25,1.63,6.54,1.84a60.5,60.5,0,0,0,9,.62,64.4,64.4,0,0,0,9.51-.65C37,33.32,40.29,32.45,40.93,31.88Zm0-1.33h0c-.64.58-3.91,1.44-6.21,1.77a61.66,61.66,0,0,1-9.5.65,59.33,59.33,0,0,1-9-.62c-1.29-.21-5.12-.9-6.54-1.84v.43a22.47,22.47,0,0,0,6.49,1.76,61.3,61.3,0,0,0,9.08.62,65.07,65.07,0,0,0,9.56-.65c3.2-.52,5.74-1.26,6.15-1.74Z" fill="#ffeb00" fill-rule="evenodd"></path><path d="M25.22,34.69a60.11,60.11,0,0,1-9.09-.62,22.69,22.69,0,0,1-6.51-1.76.05.05,0,0,1,0,0v-.43a.05.05,0,0,1,0-.05h0c1.43,1,5.36,1.65,6.53,1.84a60.37,60.37,0,0,0,9,.62,64.17,64.17,0,0,0,9.5-.65c2.28-.33,5.54-1.19,6.18-1.76H41a.08.08,0,0,1,0,.05v.37s0,0,0,0c-.42.51-3,1.25-6.18,1.76A65.07,65.07,0,0,1,25.22,34.69ZM9.7,32.24A22.83,22.83,0,0,0,16.15,34a61.08,61.08,0,0,0,9.07.62,63.7,63.7,0,0,0,9.55-.66c3.06-.5,5.67-1.22,6.11-1.7V32c-.8.58-3.94,1.4-6.15,1.71a63.08,63.08,0,0,1-9.51.66,59.38,59.38,0,0,1-9-.63c-1.15-.18-5-.86-6.48-1.8Zm15.52,1.13a60.12,60.12,0,0,1-9.09-.63A22.93,22.93,0,0,1,9.63,31a.05.05,0,0,1,0,0v-.43s0,0,0,0h0c1.42,1,5.35,1.64,6.52,1.83a59.11,59.11,0,0,0,9,.62,63,63,0,0,0,9.5-.65c2.27-.33,5.54-1.18,6.18-1.75a0,0,0,0,1,.07,0s0,0,0,0v.37s0,0,0,0c-.43.5-3,1.24-6.19,1.75a63.65,63.65,0,0,1-9.56.66ZM9.7,30.92a22.81,22.81,0,0,0,6.45,1.73,61.08,61.08,0,0,0,9.07.62,63.6,63.6,0,0,0,9.55-.65c3.06-.5,5.68-1.23,6.11-1.71v-.26c-.8.58-3.94,1.4-6.15,1.72a63.07,63.07,0,0,1-9.51.65,60.64,60.64,0,0,1-9-.62c-1.16-.19-5-.87-6.49-1.8Z" fill="#050007"></path><path d="M25.27,40.64a53.64,53.64,0,0,1-13.6-2.12l.88,1.38A36.67,36.67,0,0,0,25.34,42c5.07-.15,9.5-.54,12.63-2.06l.9-1.43C36.74,39.5,29.5,40.63,25.27,40.64Z" fill="#ffeb00" fill-rule="evenodd"></path><path d="M24.55,42.05a37,37,0,0,1-12-2.1l0,0-.88-1.38a.06.06,0,0,1,0-.06,0,0,0,0,1,0,0l.61.16a51.42,51.42,0,0,0,13,2c4.25,0,11.48-1.15,13.58-2.14a0,0,0,0,1,0,0s0,0,0,.05L38,40l0,0C34.73,41.56,30,41.9,25.34,42Zm-12-2.19a36.46,36.46,0,0,0,12.76,2.08c4.62-.14,9.35-.48,12.6-2l.81-1.29c-2.28,1-9.31,2.07-13.47,2.08h0a51.51,51.51,0,0,1-13-2l-.5-.13Z" fill="#050007"></path><path d="M33,41.09a44.2,44.2,0,0,1-7.7.71,41.92,41.92,0,0,1-12.9-2.13l-.31-.12,0,.05.18.31a37.6,37.6,0,0,0,13,2.24,44,44,0,0,0,7.85-.72A35.52,35.52,0,0,0,37.9,40.2c.14-.19.27-.39.4-.6l-.11.06A21.65,21.65,0,0,1,33,41.09Z" fill="#ffeb00"></path><path d="M39.09,38.31l-.4.15s0,0,0,0a37.29,37.29,0,0,1-6,1.34,53.22,53.22,0,0,1-7.36.63,57.78,57.78,0,0,1-13.95-2.05l.18.34a50.94,50.94,0,0,0,13.77,2,47.09,47.09,0,0,0,7.41-.62,33.78,33.78,0,0,0,6-1.34q.15-.27.3-.51Z" fill="#ffeb00"></path><path d="M25.28,42.19a37.43,37.43,0,0,1-13-2.23s0,0,0,0L12,39.62a0,0,0,0,1,0,0l0,0s0,0,.06,0l.31.12a41.55,41.55,0,0,0,12.89,2.12h.12A42.74,42.74,0,0,0,33,41a21.22,21.22,0,0,0,5.17-1.42l.11-.06a.07.07,0,0,1,.06,0s0,0,0,.06l-.4.6,0,0a34.67,34.67,0,0,1-4.79,1.22A43.1,43.1,0,0,1,25.28,42.19Zm-13-2.31a38.13,38.13,0,0,0,13,2.22,43,43,0,0,0,7.84-.72,35.2,35.2,0,0,0,4.75-1.22c.1-.13.19-.27.29-.42A23.51,23.51,0,0,1,33,41.14a44.82,44.82,0,0,1-7.58.71h-.12a41.74,41.74,0,0,1-12.92-2.13l-.26-.1Zm13.07,1a51.23,51.23,0,0,1-13.8-2.06l0,0-.18-.34s0,0,0,0a0,0,0,0,1,.05,0,58,58,0,0,0,13.94,2,48.82,48.82,0,0,0,6.71-.54l.64-.09a37.74,37.74,0,0,0,5.94-1.32h0s0,0,0,0l.4-.15s0,0,0,0l0,0a0,0,0,0,1,0,.06c-.1.17-.2.34-.31.51l0,0a33.78,33.78,0,0,1-6,1.34l-.86.12a45,45,0,0,1-6.56.51ZM11.6,38.71a51.59,51.59,0,0,0,13.75,2,44.8,44.8,0,0,0,6.54-.51l.86-.12a34.32,34.32,0,0,0,6-1.33l.24-.4-.24.08v0s0,0,0,0h0a38.1,38.1,0,0,1-6,1.32l-.64.09a48.72,48.72,0,0,1-6.72.55,57.45,57.45,0,0,1-13.86-2Z" fill="#050007"></path><path d="M25.25,15.84a15.4,15.4,0,1,0,15.5,15.4A15.39,15.39,0,0,0,25.25,15.84Zm9.88,25.1a14.55,14.55,0,0,1-9.92,4.12A13.84,13.84,0,0,1,11.46,31.14v0a14,14,0,0,1,4.88-10.42,14.58,14.58,0,0,1,9.38-3.32,14.36,14.36,0,0,1,10.39,5.2c1.84,2.22,2.64,4.64,3.06,8.3a14.87,14.87,0,0,1-4,10.07Z" fill="#ffeb00" fill-rule="evenodd"></path><path d="M25.25,46.69A15.45,15.45,0,1,1,36.4,42l-.18.18A15.47,15.47,0,0,1,25.25,46.69Zm0-30.81A15.36,15.36,0,1,0,40.7,31.24,15.36,15.36,0,0,0,25.25,15.88ZM25,45.11a13.9,13.9,0,0,1-13.61-14,14.1,14.1,0,0,1,4.9-10.45,14.75,14.75,0,0,1,9.11-3.34h.31a14.48,14.48,0,0,1,10.42,5.22c1.77,2.13,2.63,4.47,3.07,8.32h0a15,15,0,0,1-4,10.1,14.54,14.54,0,0,1-10,4.12Zm.4-27.7a14.57,14.57,0,0,0-9,3.32,14,14,0,0,0-4.87,10.39A13.8,13.8,0,0,0,25,45h.19a14.46,14.46,0,0,0,9.88-4.1,14.78,14.78,0,0,0,4-10c-.44-3.83-1.3-6.15-3-8.27a14.41,14.41,0,0,0-10.34-5.19Z" fill="#050007"></path><path d="M25.29,15.78A15.46,15.46,0,1,0,40.74,31.24h0A15.48,15.48,0,0,0,25.29,15.78Zm0,30.57A15.12,15.12,0,1,1,40.41,31.24,15.11,15.11,0,0,1,25.29,46.35Z" fill="#ffeb00" fill-rule="evenodd"></path><path d="M25.29,46.74a15.5,15.5,0,1,1,15.5-15.5A15.5,15.5,0,0,1,25.29,46.74Zm0-30.91a15.41,15.41,0,1,0,15.4,15.41h0a15.42,15.42,0,0,0-15.4-15.41Zm0,30.57A15.23,15.23,0,1,1,36,41.94a15,15,0,0,1-10.7,4.46Zm0-30.23A15.07,15.07,0,1,0,40.36,31.24h0A15.09,15.09,0,0,0,25.29,16.17Z" fill="#050007"></path><path d="M25.31,17.07A14.16,14.16,0,1,0,39.46,31.22,14.16,14.16,0,0,0,25.31,17.07Zm0,28A13.82,13.82,0,1,1,39.12,31.22h0A13.87,13.87,0,0,1,25.31,45Z" fill="#ffeb00" fill-rule="evenodd"></path><path d="M25.31,45.43a14.27,14.27,0,1,1,10-4.18A14.09,14.09,0,0,1,25.31,45.43Zm0-28.31a14.11,14.11,0,1,0,14.1,14.11h0A14.12,14.12,0,0,0,25.31,17.12Zm0,28A13.93,13.93,0,1,1,35.09,41,13.92,13.92,0,0,1,25.31,45.09Zm0-27.63A13.77,13.77,0,1,0,39.07,31.22,13.76,13.76,0,0,0,25.31,17.46Z" fill="#050007"></path><rect x="24.6" y="15.72" width="1.33" height="31.05" fill="#ffeb00"></rect><path d="M25.93,46.82H24.61a0,0,0,0,1-.05,0V15.72a0,0,0,0,1,0,0l0,0h1.32a.05.05,0,0,1,.05.05V46.77a.05.05,0,0,1,0,0Zm-1.28-.1h1.24V15.77H24.65Z" fill="#050007"></path><path d="M25.79,15.54h.34V47h-.34Zm-1.31,0h.34V47h-.34Z" fill="#ffeb00" fill-rule="evenodd"></path><path d="M26.13,47H25.8a0,0,0,0,1-.05,0V15.54a0,0,0,0,1,.05,0h.33a0,0,0,0,1,.05,0V47A0,0,0,0,1,26.13,47Zm-.29-.1h.25V15.59h-.24Zm-1,.1h-.34a0,0,0,0,1-.05,0V15.55a0,0,0,0,1,.05-.05h.34s.05,0,.05,0h0V47a.05.05,0,0,1-.05,0Zm-.29-.1h.24V15.59h-.24Z" fill="#050007"></path><path d="M40.75,31.84V30.69l-.93-.87-5.31-1.4-7.64-.78-9.21.47-6.55,1.56-1.33,1v1.15l3.35-1.5,8-1.24h7.65l5.62.62,3.9.94Z" fill="#ffeb00" fill-rule="evenodd"></path><path d="M40.75,31.88h0l-2.49-1.24-3.89-.94-5.62-.62H21.09l-7.94,1.25L9.8,31.83h0a.05.05,0,0,1,0,0V30.64a.05.05,0,0,1,0,0l1.33-1h0l6.56-1.56,9.21-.47,7.66.78,5.31,1.41s0,0,0,0l.94.87a0,0,0,0,1,0,0v1.15a.05.05,0,0,1,0,0ZM28.74,29l5.62.62,3.91.94,2.44,1.21V30.71l-.91-.85-5.3-1.4-7.64-.78-9.2.47-6.54,1.56-1.3.95v1.06l3.29-1.48h0l8-1.25Z" fill="#050007"></path><path d="M35.3,29.74a54.14,54.14,0,0,0-10-.9,56.31,56.31,0,0,0-10.2.9c-3.07.62-5.25,1.5-5.46,2.1v.42c.37-.86,3.31-1.73,5.51-2.17a55.68,55.68,0,0,1,10.15-.9,53.38,53.38,0,0,1,9.93.88c2.11.43,4.86,1.17,5.7,2.18v-.4C40.23,31,38.19,30.32,35.3,29.74Z" fill="#ffeb00"></path><path d="M35.3,28.41a53.28,53.28,0,0,0-10-.89,56.12,56.12,0,0,0-10.19.9c-3,.59-5.26,1.51-5.46,2.09v.42c.34-.85,3.4-1.76,5.52-2.16a55.47,55.47,0,0,1,10.13-.9,52.55,52.55,0,0,1,9.93.89c2.11.42,4.86,1.16,5.7,2.17v-.4C40.24,29.72,38.2,29,35.3,28.41Z" fill="#ffeb00"></path><path d="M9.65,32.31h0a.05.05,0,0,1,0-.05v-.42h0c.22-.64,2.53-1.53,5.49-2.13a56.31,56.31,0,0,1,10.2-.9h.1a53.85,53.85,0,0,1,9.9.89c3,.61,5,1.35,5.67,2.14,0,0,0,0,0,0v.4s0,0,0,0a0,0,0,0,1-.06,0C40,31.22,37,30.48,35.21,30.13a53.2,53.2,0,0,0-9.92-.89,55.48,55.48,0,0,0-10.13.91c-2.4.47-5.14,1.35-5.48,2.13ZM25.4,29.15a53.27,53.27,0,0,1,9.84.88c1.7.34,4.64,1.06,5.64,2.1v-.26c-.67-.77-2.61-1.49-5.6-2.09a53.71,53.71,0,0,0-9.88-.89h-.1a56,56,0,0,0-10.18.9c-3.28.66-5.24,1.55-5.42,2.06v.23c.66-.88,3.68-1.68,5.45-2a55.69,55.69,0,0,1,10.15-.91Zm-.1-.3ZM9.65,31h0a.07.07,0,0,1,0,0V30.5c.22-.64,2.59-1.56,5.5-2.12a55.43,55.43,0,0,1,10.2-.91h.1a53,53,0,0,1,9.9.9c3,.6,5,1.34,5.66,2.13,0,0,0,0,0,0v.4a.07.07,0,0,1,0,.05s0,0,0,0C40,29.89,37,29.15,35.22,28.8a53.07,53.07,0,0,0-9.82-.89h-.1a55.25,55.25,0,0,0-10.11.9c-2.44.47-5.19,1.37-5.5,2.14,0,0,0,0,0,0Zm15.76-3.17a53.1,53.1,0,0,1,9.83.89c1.7.34,4.65,1.06,5.65,2.1v-.26c-.68-.77-2.61-1.49-5.6-2.09a53.74,53.74,0,0,0-9.89-.89h-.1a54.36,54.36,0,0,0-10.18.9C12,29.08,9.9,30,9.7,30.52v.24c.64-.85,3.55-1.67,5.47-2a55.47,55.47,0,0,1,10.13-.9Z" fill="#050007"></path><path d="M25.22,20.76c5.75,0,10.77.8,13.07,2l.83,1.45c-2-1.08-7.4-2.2-13.89-2-5.28,0-10.93.58-13.76,2.09l1-1.67c2.33-1.2,7.81-1.81,12.76-1.82Z" fill="#ffeb00" fill-rule="evenodd"></path><path d="M11.47,24.3h0a0,0,0,0,1,0-.06l1-1.67,0,0c2.42-1.25,8.15-1.82,12.76-1.83h.3c5.43,0,10.43.78,12.8,2,0,0,0,0,0,0l.84,1.45s0,0,0,0a0,0,0,0,1-.06,0c-2.09-1.13-7.52-2.18-13.86-2-3.72,0-10.44.33-13.74,2.09Zm1-1.68-.9,1.51c3.37-1.7,10-2,13.63-2C31.45,22,36.8,23,39,24.07l-.75-1.29c-2.36-1.2-7.34-2-12.75-2h-.28c-4.59,0-10.3.56-12.71,1.81Z" fill="#050007"></path><path d="M25.3,21a55.09,55.09,0,0,1,8.51.6c2,.36,4.37,1,5,1.7l-.37-.58A14.11,14.11,0,0,0,34,21.23a50.06,50.06,0,0,0-8.65-.6,51.44,51.44,0,0,0-8.76.64,15.65,15.65,0,0,0-3.95,1.19l-.31.48a14.17,14.17,0,0,1,4.32-1.33A51.69,51.69,0,0,1,25.3,21Z" fill="#ffeb00"></path><path d="M39.18,24c-.32-.35-2.56-1-4.91-1.44a52.87,52.87,0,0,0-9-.64,53.58,53.58,0,0,0-9.12.63A16.49,16.49,0,0,0,11.62,24l-.24.47a15.69,15.69,0,0,1,4.87-1.52,51.65,51.65,0,0,1,9-.61,50.35,50.35,0,0,1,8.93.61,17.83,17.83,0,0,1,5.2,1.55Z" fill="#ffeb00"></path><path d="M39.42,24.52h0A18.06,18.06,0,0,0,34.21,23a50.19,50.19,0,0,0-8.91-.62,52.58,52.58,0,0,0-9,.62,15.83,15.83,0,0,0-4.85,1.51h-.06a0,0,0,0,1,0-.06l.24-.47,0,0a17,17,0,0,1,4.57-1.4,52.69,52.69,0,0,1,9.13-.62h.22a51.43,51.43,0,0,1,8.76.63c2.4.44,4.61,1.1,4.93,1.46l.26.45a0,0,0,0,1,0,.05ZM25.55,22.26a48.56,48.56,0,0,1,8.68.62,19.32,19.32,0,0,1,5.06,1.46l-.16-.29a17.15,17.15,0,0,0-4.87-1.42A51.12,51.12,0,0,0,25.52,22H25.3a51.44,51.44,0,0,0-9.11.63A16.28,16.28,0,0,0,11.66,24l-.16.29a18.27,18.27,0,0,1,4.74-1.43A50.87,50.87,0,0,1,25,22.26ZM38.8,23.32h0c-.63-.71-3.07-1.35-5-1.69a55.05,55.05,0,0,0-8.5-.6,51.77,51.77,0,0,0-8.7.64A14.51,14.51,0,0,0,12.3,23a0,0,0,0,1-.06,0s0,0,0-.06l.32-.48s0,0,0,0a15.7,15.7,0,0,1,4-1.2,52.4,52.4,0,0,1,8.76-.64h0a50.17,50.17,0,0,1,8.66.6,13.7,13.7,0,0,1,4.5,1.48h0l.36.58s0,.05,0,.06Zm-13.5-2.4a55.09,55.09,0,0,1,8.51.6A14.83,14.83,0,0,1,38.58,23l-.19-.3a13.93,13.93,0,0,0-4.45-1.45,49.41,49.41,0,0,0-8.42-.6H25.3a51.25,51.25,0,0,0-8.75.64,15,15,0,0,0-3.93,1.18l-.2.3a16,16,0,0,1,4.16-1.23,52,52,0,0,1,8.72-.64Zm0-.29Z" fill="#050007"></path><path d="M33,37.66a40.42,40.42,0,0,0-7.69-.58c-9.58.11-12.67,2-13,2.53l-.72-1.17c2.44-1.77,7.66-2.76,13.83-2.66a49,49,0,0,1,8.29.71L33,37.66Z" fill="#ffeb00" fill-rule="evenodd"></path><path d="M12.24,39.65h0l0,0-.72-1.17a0,0,0,0,1,0-.06c2.44-1.77,7.62-2.77,13.85-2.67a48.12,48.12,0,0,1,8.3.72l0,0a0,0,0,0,1,0,.05L33,37.68s0,0-.06,0a40.1,40.1,0,0,0-7.66-.58c-9.32.11-12.6,1.9-13,2.51C12.27,39.65,12.25,39.66,12.24,39.65Zm-.65-1.2.65,1.07c.59-.71,3.9-2.38,13.05-2.49a40.1,40.1,0,0,1,7.66.58l.61-1.08a49.1,49.1,0,0,0-8.21-.7h-.87c-5.79,0-10.56,1-12.89,2.63Z" fill="#050007"></path><path d="M14.94,38.13c-1.84.52-2.83,1.16-2.88,1.46l.19.3c.16-.52,1.79-1.15,2.77-1.42a36.78,36.78,0,0,1,10.23-1.2,40.4,40.4,0,0,1,7.61.58l.19-.32a46.4,46.4,0,0,0-7.81-.62A36.87,36.87,0,0,0,14.94,38.13Z" fill="#ffeb00"></path><path d="M25.36,35.57a39.33,39.33,0,0,0-10.8,1.27c-1.49.43-3.14,1.08-3.18,1.58l.19.32c.06-.55,2-1.24,3.07-1.56a38.86,38.86,0,0,1,10.73-1.26,44,44,0,0,1,8.18.71l.2-.33A48.18,48.18,0,0,0,25.36,35.57Z" fill="#ffeb00"></path><path d="M12.25,39.94a.05.05,0,0,1-.05,0l-.18-.3s0,0,0,0c.05-.35,1.1-1,2.9-1.5a37.06,37.06,0,0,1,10.32-1.22h0a47.67,47.67,0,0,1,7.82.62l0,0a0,0,0,0,1,0,0l-.18.32a.05.05,0,0,1,0,0,41.33,41.33,0,0,0-7.61-.59A36.71,36.71,0,0,0,15,38.51c-1,.29-2.59.91-2.74,1.4,0,0,0,0,0,0Zm-.14-.36.13.21c.3-.52,1.83-1.11,2.77-1.37a36.12,36.12,0,0,1,10.24-1.2,40.25,40.25,0,0,1,7.59.58l.13-.24A47.59,47.59,0,0,0,25.24,37,36.85,36.85,0,0,0,15,38.17c-1.83.52-2.76,1.14-2.84,1.42Zm-.54-.79s0,0,0,0l-.18-.32a0,0,0,0,1,0,0c.05-.66,2.47-1.41,3.21-1.62a38.69,38.69,0,0,1,10.81-1.27h0a47.26,47.26,0,0,1,8.4.73,0,0,0,0,1,0,0,0,0,0,0,1,0,0l-.19.33a.05.05,0,0,1-.05,0A43.85,43.85,0,0,0,25.38,36a38.41,38.41,0,0,0-10.72,1.25c-1.43.41-3,1.07-3,1.53,0,0,0,0,0,0Zm-.13-.38.12.21c.32-.68,2.78-1.41,3.07-1.49a38.17,38.17,0,0,1,10.75-1.26,43.71,43.71,0,0,1,8.15.71l.14-.25a48.15,48.15,0,0,0-8.31-.72,38.76,38.76,0,0,0-10.78,1.27c-1.86.54-3.08,1.14-3.14,1.53Z" fill="#050007"></path><path d="M39,38.62,37.82,40.4l-3.31-2.94-8.58-5.77-9.68-5.31-5-1.71,1.07-2,.37-.2,3.12.78,10.3,5.31L32,32.31l5,3.59,2,2.34Z" fill="#ffeb00" fill-rule="evenodd"></path><path d="M37.82,40.45h0L34.48,37.5,25.9,31.73l-9.67-5.3-5-1.72a0,0,0,0,1,0,0s0,0,0,0l1.07-2s0,0,0,0l.36-.2s0,0,0,0l3.13.78,10.31,5.31L32,32.27l5,3.6,2,2.34s0,0,0,0l-.07.38h0l-1.16,1.79,0,0ZM11.3,24.64l5,1.7L26,31.65l8.59,5.77,3.27,2.91,1.12-1.73.06-.34-2-2.33-5-3.58-5.93-3.74L15.76,23.3l-3.09-.77-.34.18ZM39,38.61Z" fill="#050007"></path><path d="M11.05,24.71c.88-.6,7.36,2.29,14.13,6.38s13.22,8.72,12.63,9.59l-.19.3-.09.07s.12-.14,0-.46c-.28-.94-4.86-4.6-12.46-9.19-7.41-4.42-13.59-7.08-14.2-6.32ZM39.21,38.59c.56-1.1-5.45-5.62-12.9-10C18.7,24.24,13.2,21.7,12.2,22.46l-.22.41s0,0,.06-.07a1,1,0,0,1,.62-.15c1.72,0,6.65,2.3,13.57,6.26,3,1.77,12.81,8,12.77,9.8,0,.15,0,.19,0,.26Z" fill="#ffeb00" fill-rule="evenodd"></path><path d="M37.53,41.1s0,0,0,0a0,0,0,0,1,0-.07h0s.09-.1,0-.4c-.3-1-5.14-4.75-12.45-9.17-7.77-4.63-13.58-7-14.14-6.33a0,0,0,0,1-.07,0s0,0,0-.06l.19-.37,0,0C11.94,24,18.44,27,25.2,31c6.09,3.69,12.4,8.1,12.68,9.41a.27.27,0,0,1,0,.25l-.19.3h0l-.09.07h0ZM11.27,24.92c1.7,0,7.44,2.65,13.81,6.44,7.43,4.49,12.18,8.21,12.49,9.22a.72.72,0,0,1,.06.29l.14-.22a.21.21,0,0,0,0-.17c-.24-1.12-5.67-5.13-12.63-9.35-6.6-4-13.16-6.95-14.08-6.38L11,25a.92.92,0,0,1,.29,0ZM39,39h0a.06.06,0,0,1,0-.07l0,0a.53.53,0,0,0,0-.13v-.06c0-1.64-9-7.56-12.75-9.76C19.32,25,14.38,22.72,12.66,22.7h0a.82.82,0,0,0-.55.14.1.1,0,0,0,0,.05s0,0-.06,0,0,0,0-.05v0l.22-.41h0c1.21-.91,8.37,2.81,14.17,6.1,6.72,4,13.53,8.87,12.91,10.09h0L39,39l0,0,0,0ZM12.66,22.6c1.74,0,6.7,2.31,13.6,6.27,2,1.16,12.84,7.92,12.8,9.84v0l.11-.17c.5-1-5.15-5.4-12.87-10-8.14-4.61-13.12-6.78-14-6.11l-.11.19a1.31,1.31,0,0,1,.48-.08Zm26.55,16Z" fill="#050007"></path><path d="M16,32.94a9.26,9.26,0,0,0,18.52,0V20.59L16,20.56Z" fill="#ededed" fill-rule="evenodd"></path><path d="M25.29,42.25A9.38,9.38,0,0,1,16,32.94V20.52h0l18.58,0V33a9.33,9.33,0,0,1-9.33,9.3Zm-9.2-21.63V32.94a9.22,9.22,0,0,0,18.43,0V20.64Z" fill="#050007"></path><path d="M16.38,33h0a8.9,8.9,0,0,0,15.16,6.27h0A8.78,8.78,0,0,0,34.16,33h0V21H16.39Zm14.21-8.39V33a4.87,4.87,0,0,1,0,.66A5.15,5.15,0,0,1,29,36.74a5.22,5.22,0,0,1-3.75,1.55A5.35,5.35,0,0,1,20,33V24.55l10.6,0Z" fill="#f40f0f" fill-rule="evenodd"></path><path d="M25.27,41.86A9,9,0,0,1,16.33,33h0v-12H34.21V33a8.93,8.93,0,0,1-8.94,8.89ZM16.43,33h0a8.84,8.84,0,1,0,17.68,0h0V21H16.44Zm8.84,5.38A5.41,5.41,0,0,1,19.94,33V24.5l10.67,0h0V33a4.87,4.87,0,0,1,0,.66,5.24,5.24,0,0,1-1.53,3.1,5.35,5.35,0,0,1-3.79,1.57ZM20,24.6V33a5.29,5.29,0,0,0,1.55,3.7,5.21,5.21,0,0,0,7.36.07l0,0a5.11,5.11,0,0,0,1.51-3.05,4.87,4.87,0,0,0,0-.66V24.61Z" fill="#050007"></path><path d="M17.53,24.11A1.09,1.09,0,0,1,18.17,23a1.07,1.07,0,0,1,.66,1.08Z" fill="#ffeb00" fill-rule="evenodd"></path><path d="M18.87,24.17H17.48v-.05A1.14,1.14,0,0,1,18.15,23s0,0,.14,0a1.16,1.16,0,0,1,.58,1.08Zm-1.29-.1h1.2a1,1,0,0,0-.61-1,1.05,1.05,0,0,0-.59,1Z" fill="#050007"></path><path d="M17,23.06l-.11,1h.65a.89.89,0,0,1,.63-1,1,1,0,0,1,.64,1h.65l-.12-1Z" fill="#ffeb00" fill-rule="evenodd"></path><path d="M17.59,24.1h-.74L17,23h2.43l.13,1.09h-.75v-.05a.9.9,0,0,0-.6-.9.85.85,0,0,0-.58.9Zm1.27-.1h.55l-.1-.9h-1a.86.86,0,0,1,.22.15,1,1,0,0,1,.32.75ZM17,24h.55a1,1,0,0,1,.34-.78A.57.57,0,0,1,18,23.1h-1Z" fill="#050007"></path><path d="M16.85,24.05H19.5a.13.13,0,0,1,.1.15.13.13,0,0,1-.1.1H16.85a.13.13,0,0,1-.09-.15A.13.13,0,0,1,16.85,24.05Z" fill="#ffeb00" fill-rule="evenodd"></path><path d="M19.5,24.34H16.85a.17.17,0,0,1-.15-.18.16.16,0,0,1,.15-.15H19.5a.16.16,0,0,1,.15.16.16.16,0,0,1-.15.17Zm-2.65-.24a.08.08,0,0,0-.05.07.08.08,0,0,0,.05.08H19.5s.05,0,.05-.08,0-.07-.05-.07Z" fill="#050007"></path><path d="M17.82,24.05a.68.68,0,0,1,.35-.67.71.71,0,0,1,.37.67Z" fill="#ffeb00" fill-rule="evenodd"></path><path d="M18.59,24.1h-.82v-.05a.7.7,0,0,1,.4-.71h0a.73.73,0,0,1,.4.7Zm-.73-.1h.63a.65.65,0,0,0-.32-.56A.66.66,0,0,0,17.86,24Z" fill="#050007"></path><rect x="18.74" y="22.1" width="0.51" height="0.55" fill="#ffeb00"></rect><path d="M19.3,22.69h-.61v-.64h.61Zm-.52-.1h.42v-.45h-.42Z" fill="#050007"></path><path d="M19.45,22.87a.12.12,0,0,0,.1-.12.11.11,0,0,0-.1-.1H16.91a.11.11,0,0,0-.1.12.11.11,0,0,0,.1.1Z" fill="#ffeb00" fill-rule="evenodd"></path><path d="M17,22.87a.1.1,0,0,0-.08.13.11.11,0,0,0,.08.09h2.43a.11.11,0,0,0,.09-.13.12.12,0,0,0-.09-.09Z" fill="#ffeb00" fill-rule="evenodd"></path><path d="M26.57,22.65H24a.11.11,0,0,0-.1.12.12.12,0,0,0,.1.1h2.53a.1.1,0,0,0,.1-.12A.09.09,0,0,0,26.57,22.65Z" fill="#ffeb00" fill-rule="evenodd"></path><path d="M26.52,22.87H24.09A.11.11,0,0,0,24,23a.14.14,0,0,0,.09.09h2.43a.11.11,0,0,0,.09-.13A.12.12,0,0,0,26.52,22.87Z" fill="#ffeb00" fill-rule="evenodd"></path><path d="M19.48,30.09a.1.1,0,0,0-.09-.11H17a.11.11,0,0,0-.09.13.12.12,0,0,0,.09.09h2.43a.1.1,0,0,0,.09-.1Z" fill="#ffeb00" fill-rule="evenodd"></path><path d="M33.55,30H31.12a.11.11,0,0,0-.09.13.12.12,0,0,0,.09.09h2.43a.11.11,0,0,0,.09-.13A.14.14,0,0,0,33.55,30Z" fill="#ffeb00" fill-rule="evenodd"></path><path d="M33.66,22.65H31.13a.1.1,0,0,0-.09.12.11.11,0,0,0,.09.1h2.53a.11.11,0,0,0,.1-.12A.09.09,0,0,0,33.66,22.65Z" fill="#ffeb00" fill-rule="evenodd"></path><path d="M33.61,22.87H31.18a.11.11,0,0,0-.09.13.14.14,0,0,0,.09.09h2.43A.11.11,0,0,0,33.7,23,.12.12,0,0,0,33.61,22.87Z" fill="#ffeb00" fill-rule="evenodd"></path><path d="M20.78,36.67l-1.71,1.72a.1.1,0,0,0,0,.15.09.09,0,0,0,.12,0l1.72-1.71a.11.11,0,0,0,0-.15.1.1,0,0,0-.14,0Z" fill="#ffeb00" fill-rule="evenodd"></path><path d="M29,37.44a.11.11,0,0,0-.16,0h0a.12.12,0,0,0,0,.16h0l1.87,1.87a.12.12,0,0,0,.17-.17Z" fill="#ffeb00" fill-rule="evenodd"></path><path d="M29.93,36.67a.14.14,0,0,0-.16,0,.12.12,0,0,0,0,.14l1.72,1.71a.09.09,0,0,0,.14,0h0a.1.1,0,0,0,0-.14h0Z" fill="#ffeb00" fill-rule="evenodd"></path><path d="M19.45,22.91H16.91a.15.15,0,0,1-.14-.17.14.14,0,0,1,.14-.14h2.53a.16.16,0,0,1,.14.17.14.14,0,0,1-.14.14Zm-2.54-.22a.07.07,0,0,0-.05.08l.05.05h2.54a.06.06,0,0,0,0-.08.07.07,0,0,0,0,0Z" fill="#050007"></path><path d="M19.39,23.14H17a.17.17,0,0,1-.13-.18.16.16,0,0,1,.13-.14h2.43a.15.15,0,0,1,.13.18A.16.16,0,0,1,19.39,23.14ZM17,22.92s0,0,0,.06,0,.06,0,.06h2.43s0,0,0-.06,0-.06,0-.06Z" fill="#050007"></path><path d="M17.75,21.21h.19v.14h.14v-.14h.2v.14h.14v-.14h.2v.31a.09.09,0,0,1-.08.09h-.7a.11.11,0,0,1-.09-.09Z" fill="#ffeb00" fill-rule="evenodd"></path><path d="M18.53,21.66h-.69a.14.14,0,0,1-.14-.14v-.35H18v.13h0v-.14h.29v.14h.05v-.14h.29v.36a.13.13,0,0,1-.13.14Zm-.73-.4v.26a0,0,0,0,0,0,0h.69a0,0,0,0,0,0,0h0v-.27h-.1v.14h-.23v-.14h-.1v.14h-.24v-.14Z" fill="#050007"></path><path d="M18.47,21.64l0,1h-.67l0-1Z" fill="#ffeb00" fill-rule="evenodd"></path><path d="M18.56,22.69h-.77l.05-1.1h.67Zm-.67-.1h.57l0-.91h-.49Z" fill="#050007"></path><path d="M16.92,21.71h.19v.13h.14v-.13h.19v.13h.14V21.7h.19V22a.08.08,0,0,1-.08.08H17a.09.09,0,0,1-.08-.08Z" fill="#ffeb00" fill-rule="evenodd"></path><path d="M17.69,22.15H17a.13.13,0,0,1-.13-.13v-.36h.28v.14h0v-.14h.29v.13h0v-.14h.29V22a.14.14,0,0,1-.12.14ZM17,21.76V22s0,0,0,0h.68a0,0,0,0,0,0,0h0v-.27h-.1v.14h-.23v-.14h-.1v.14h-.23v-.13Z" fill="#050007"></path><rect x="17.08" y="22.1" width="0.51" height="0.55" fill="#ffeb00"></rect><path d="M17.64,22.69H17v-.64h.61Zm-.51-.1h.42v-.45h-.42Z" fill="#050007"></path><path d="M18.58,21.71h.19v.13h.13v-.13h.2v.13h.13V21.7h.2V22a.09.09,0,0,1-.08.08h-.68a.09.09,0,0,1-.09-.08Z" fill="#ffeb00" fill-rule="evenodd"></path><path d="M19.34,22.15h-.67a.13.13,0,0,1-.14-.13v-.36h.29v.14h0v-.14h.28v.13h.05v-.14h.28V22a.13.13,0,0,1-.12.14Zm-.71-.39V22s0,0,0,0h.67s0,0,0,0h0v-.27h-.1v.14h-.23v-.14H19v.14h-.24v-.13Z" fill="#050007"></path><path d="M18.29,22.24h-.23V22a.11.11,0,0,1,.06-.1.13.13,0,0,1,.12,0,.11.11,0,0,1,.05.11Zm-.13-.1h0V22s0,0,0,0h0s0,0,0,0Z" fill="#050007"></path><path d="M17.46,22.54h-.23V22.3a.11.11,0,0,1,.06-.1.11.11,0,0,1,.11,0,.12.12,0,0,1,.06.1Zm-.13-.1h0V22.3a0,0,0,0,0,0,0h0a0,0,0,0,0,0,0Z" fill="#050007"></path><path d="M19.12,22.54h-.23V22.3a.12.12,0,0,1,.06-.1.11.11,0,0,1,.11,0,.12.12,0,0,1,.06.1Zm-.13-.1h0V22.3a0,0,0,0,0,0,0h0a0,0,0,0,0,0,0Z" fill="#050007"></path><path d="M24.16,31.6h0a1.34,1.34,0,0,0,.34.89,1.12,1.12,0,0,0,1.57.08l.09-.08a1.34,1.34,0,0,0,.34-.89V29.92H24.16Z" fill="#1826a8" fill-rule="evenodd"></path><path d="M24.16,27.54h0a1.31,1.31,0,0,0,.34.88,1.11,1.11,0,0,0,1.56.1.47.47,0,0,0,.1-.1,1.31,1.31,0,0,0,.34-.88V25.85H24.16Z" fill="#1826a8" fill-rule="evenodd"></path><path d="M20.91,31.6h0a1.34,1.34,0,0,0,.34.89,1.12,1.12,0,0,0,1.57.08l.09-.08a1.34,1.34,0,0,0,.34-.89V29.92H20.91Z" fill="#1826a8" fill-rule="evenodd"></path><path d="M27.39,31.6h0a1.35,1.35,0,0,0,.35.89,1.12,1.12,0,0,0,1.57.08.3.3,0,0,0,.08-.08,1.3,1.3,0,0,0,.35-.89V29.92H27.4Z" fill="#1826a8" fill-rule="evenodd"></path><path d="M24.16,35.62h0a1.32,1.32,0,0,0,.34.89,1.11,1.11,0,0,0,1.57.09l.09-.09a1.32,1.32,0,0,0,.34-.89V33.94H24.16Z" fill="#1826a8" fill-rule="evenodd"></path><path d="M24.69,30.32a.24.24,0,0,0,0,.47.23.23,0,0,0,.23-.23h0A.23.23,0,0,0,24.69,30.32Z" fill="#ededed" fill-rule="evenodd"></path><path d="M26,30.32a.24.24,0,0,0,0,.47.23.23,0,0,0,.23-.23A.24.24,0,0,0,26,30.32Z" fill="#ededed" fill-rule="evenodd"></path><path d="M25.34,31a.23.23,0,1,0,.23.23A.23.23,0,0,0,25.34,31Z" fill="#ededed" fill-rule="evenodd"></path><path d="M24.69,31.6a.23.23,0,1,0,0,.46.22.22,0,0,0,.23-.23h0A.23.23,0,0,0,24.69,31.6Z" fill="#ededed" fill-rule="evenodd"></path><path d="M26,32.06a.23.23,0,1,0-.23-.23h0A.23.23,0,0,0,26,32.06Z" fill="#ededed" fill-rule="evenodd"></path><path d="M24.69,26.26a.24.24,0,0,0,0,.47.23.23,0,0,0,.23-.23h0A.23.23,0,0,0,24.69,26.26Z" fill="#ededed" fill-rule="evenodd"></path><path d="M26,26.26a.24.24,0,0,0,0,.47.23.23,0,0,0,.23-.23A.24.24,0,0,0,26,26.26Z" fill="#ededed" fill-rule="evenodd"></path><path d="M25.34,26.89a.23.23,0,1,0,.23.23A.23.23,0,0,0,25.34,26.89Z" fill="#ededed" fill-rule="evenodd"></path><path d="M24.69,27.54a.23.23,0,0,0-.23.23.24.24,0,0,0,.23.24.23.23,0,0,0,.23-.24h0A.23.23,0,0,0,24.69,27.54Z" fill="#ededed" fill-rule="evenodd"></path><path d="M26,28a.23.23,0,1,0-.23-.23h0A.23.23,0,0,0,26,28Z" fill="#ededed" fill-rule="evenodd"></path><path d="M21.45,30.32a.23.23,0,0,0-.23.24.23.23,0,0,0,.23.23.23.23,0,0,0,.23-.23h0a.23.23,0,0,0-.23-.24Z" fill="#ededed" fill-rule="evenodd"></path><path d="M22.74,30.32a.25.25,0,0,0-.23.24.23.23,0,0,0,.24.23.24.24,0,0,0,.23-.23.24.24,0,0,0-.24-.24Z" fill="#ededed" fill-rule="evenodd"></path><path d="M22.09,31a.23.23,0,1,0,.24.23.23.23,0,0,0-.24-.23Z" fill="#ededed" fill-rule="evenodd"></path><path d="M21.45,31.6a.23.23,0,0,0-.23.23.22.22,0,0,0,.23.23.23.23,0,1,0,0-.46Z" fill="#ededed" fill-rule="evenodd"></path><path d="M22.74,31.6a.23.23,0,0,0-.23.23.23.23,0,0,0,.23.23.24.24,0,0,0,.24-.23h0A.24.24,0,0,0,22.74,31.6Z" fill="#ededed" fill-rule="evenodd"></path><path d="M27.93,30.32a.24.24,0,0,0,0,.47.23.23,0,0,0,.23-.23h0A.23.23,0,0,0,27.93,30.32Z" fill="#ededed" fill-rule="evenodd"></path><path d="M29.23,30.79a.23.23,0,0,0,.23-.23.24.24,0,0,0-.23-.24.23.23,0,0,0-.23.24h0A.23.23,0,0,0,29.23,30.79Z" fill="#ededed" fill-rule="evenodd"></path><path d="M28.58,31a.23.23,0,1,0,.23.23.23.23,0,0,0-.23-.23Z" fill="#ededed" fill-rule="evenodd"></path><path d="M27.93,31.6a.23.23,0,1,0,0,.46.22.22,0,0,0,.23-.23h0A.23.23,0,0,0,27.93,31.6Z" fill="#ededed" fill-rule="evenodd"></path><path d="M29.23,31.6a.23.23,0,1,0,.23.23h0a.23.23,0,0,0-.23-.23Z" fill="#ededed" fill-rule="evenodd"></path><path d="M24.69,34.35a.23.23,0,1,0,.23.23h0A.23.23,0,0,0,24.69,34.35Z" fill="#ededed" fill-rule="evenodd"></path><path d="M26,34.35a.23.23,0,1,0,.23.23A.23.23,0,0,0,26,34.35Z" fill="#ededed" fill-rule="evenodd"></path><path d="M25.34,35a.23.23,0,0,0-.23.23.22.22,0,0,0,.23.23.23.23,0,0,0,.23-.23A.23.23,0,0,0,25.34,35Z" fill="#ededed" fill-rule="evenodd"></path><path d="M24.69,35.63a.22.22,0,0,0-.23.23.23.23,0,0,0,.23.23.23.23,0,0,0,.23-.23h0A.23.23,0,0,0,24.69,35.63Z" fill="#ededed" fill-rule="evenodd"></path><path d="M26,35.62a.24.24,0,1,0,.23.24.23.23,0,0,0-.23-.24Z" fill="#ededed" fill-rule="evenodd"></path><path d="M24.66,24.11A1.09,1.09,0,0,1,25.3,23,1.08,1.08,0,0,1,26,24.12Z" fill="#ffeb00" fill-rule="evenodd"></path><path d="M26,24.17H24.61v-.05A1.14,1.14,0,0,1,25.27,23s.15,0,.2.07A1.14,1.14,0,0,1,26,24.12Zm-1.29-.1h1.2a1,1,0,0,0-.61-1,1.05,1.05,0,0,0-.59,1Z" fill="#050007"></path><path d="M24.13,23.06l-.1,1h.64a.89.89,0,0,1,.64-1,1,1,0,0,1,.64,1h.64l-.11-1Z" fill="#ffeb00" fill-rule="evenodd"></path><path d="M24.72,24.1H24L24.09,23h2.43l.13,1.09H25.9v-.05a.9.9,0,0,0-.6-.9.84.84,0,0,0-.58.9ZM26,24h.55l-.1-.9h-1A1,1,0,0,1,26,24Zm-1.91,0h.55a1,1,0,0,1,.34-.78.57.57,0,0,1,.18-.12h-1Z" fill="#050007"></path><path d="M24,24.05h2.65a.13.13,0,0,1,.1.14.13.13,0,0,1-.1.11H24a.13.13,0,0,1-.1-.14A.13.13,0,0,1,24,24.05Z" fill="#ffeb00" fill-rule="evenodd"></path><path d="M26.63,24.34H24a.17.17,0,0,1-.15-.18A.16.16,0,0,1,24,24h2.65a.17.17,0,0,1,.15.18A.17.17,0,0,1,26.63,24.34ZM24,24.1s-.05,0-.05.07,0,.08.05.08h2.65s.05,0,.05-.08,0-.07-.05-.07Z" fill="#050007"></path><path d="M24.94,24.05a.71.71,0,0,1,.36-.67.71.71,0,0,1,.37.67Z" fill="#ffeb00" fill-rule="evenodd"></path><path d="M25.72,24.1H24.9v-.05a.68.68,0,0,1,.4-.71h0a.73.73,0,0,1,.4.7ZM25,24h.63a.64.64,0,0,0-.32-.56A.64.64,0,0,0,25,24Z" fill="#050007"></path><rect x="25.87" y="22.1" width="0.51" height="0.55" fill="#ffeb00"></rect><path d="M26.43,22.69h-.61v-.64h.61Zm-.52-.1h.42v-.45h-.42Z" fill="#050007"></path><path d="M26.57,22.91H24a.15.15,0,0,1-.14-.17A.16.16,0,0,1,24,22.6h2.53a.16.16,0,0,1,.14.17A.14.14,0,0,1,26.57,22.91ZM24,22.69a.08.08,0,0,0-.05.07.06.06,0,0,0,.05.06h2.53a.06.06,0,0,0,.05-.08s0,0-.05,0Z" fill="#050007"></path><path d="M26.52,23.14H24.09A.16.16,0,0,1,24,23a.16.16,0,0,1,.13-.14h2.43a.15.15,0,0,1,.13.18A.16.16,0,0,1,26.52,23.14Zm-2.43-.22s0,0,0,.06,0,.06,0,.06h2.43s0,0,0-.06,0-.06,0-.06Z" fill="#050007"></path><path d="M24.87,21.21h.2v.14h.14v-.14h.2v.14h.14v-.14h.2v.31a.09.09,0,0,1-.08.09H25a.11.11,0,0,1-.09-.09Z" fill="#ffeb00" fill-rule="evenodd"></path><path d="M25.65,21.66H25a.13.13,0,0,1-.14-.13v-.36h.29v.13h0v-.14h.29v.14h.05v-.14h.29v.36a.14.14,0,0,1-.13.14Zm-.73-.4v.26s0,0,0,0h.68s0,0,0,0h0v-.27h-.1v.14h-.24v-.14h-.1v.14H25v-.14Z" fill="#050007"></path><path d="M25.6,21.64l0,1H25l0-1Z" fill="#ffeb00" fill-rule="evenodd"></path><path d="M25.69,22.69h-.77l0-1.1h.67Zm-.67-.1h.57l0-.91h-.49Z" fill="#050007"></path><path d="M24.05,21.71h.19v.13h.14v-.13h.19v.13h.14V21.7h.19V22a.09.09,0,0,1-.08.08h-.68a.11.11,0,0,1-.09-.08Z" fill="#ffeb00" fill-rule="evenodd"></path><path d="M24.81,22.15h-.67A.13.13,0,0,1,24,22v-.36h.28v.14h0v-.14h.29v.13h0v-.14H25V22a.13.13,0,0,1-.13.14Zm-.71-.39V22s0,0,0,0h.67s0,0,0,0h0v-.27h-.1v.14h-.23v-.14h-.1v.14h-.24v-.13Z" fill="#050007"></path><rect x="24.21" y="22.1" width="0.51" height="0.55" fill="#ffeb00"></rect><path d="M24.77,22.69h-.61v-.64h.61Zm-.52-.1h.42v-.45h-.42Z" fill="#050007"></path><path d="M25.71,21.71h.18v.13H26v-.13h.19v.13h.14V21.7h.19V22a.08.08,0,0,1-.08.08h-.68a.09.09,0,0,1-.08-.08Z" fill="#ffeb00" fill-rule="evenodd"></path><path d="M26.47,22.15H25.8a.13.13,0,0,1-.14-.13v-.36h.28v.14h0v-.14h.28v.13h0v-.14h.29V22a.13.13,0,0,1-.12.14Zm-.71-.39V22s0,0,0,0h.67s0,0,0,0h0v-.27h-.1v.14h-.24v-.14h-.1v.14h-.23v-.13Z" fill="#050007"></path><path d="M25.42,22.24h-.23V22a.11.11,0,0,1,.06-.1.13.13,0,0,1,.12,0,.13.13,0,0,1,.05.11Zm-.13-.1h0V22s0,0,0,0h0s0,0,0,0Z" fill="#050007"></path><path d="M24.58,22.54h-.22V22.3a.12.12,0,0,1,.06-.1.11.11,0,0,1,.11,0s.06.06,0,.1Zm-.12-.1h0V22.3a0,0,0,0,0,0,0h0s0,0,0,0Z" fill="#050007"></path><path d="M26.24,22.54H26V22.3a.12.12,0,0,1,.06-.1.11.11,0,0,1,.11,0s.06.06,0,.1Zm-.12-.1h0V22.3a0,0,0,0,0,0,0h0v.16Z" fill="#050007"></path><path d="M17.53,31.22a1.07,1.07,0,0,1,.64-1.06,1.06,1.06,0,0,1,.66,1.07Z" fill="#ffeb00" fill-rule="evenodd"></path><path d="M18.87,31.28H17.48v-.05a1.14,1.14,0,0,1,.67-1.11s0,0,.1,0a1.15,1.15,0,0,1,.63,1.1Zm-1.29-.1h1.2a1,1,0,0,0-.61-1,1.05,1.05,0,0,0-.59,1Z" fill="#050007"></path><path d="M17,30.17l-.11,1h.65a.87.87,0,0,1,.63-.95,1,1,0,0,1,.64.95h.65l-.12-1Z" fill="#ffeb00" fill-rule="evenodd"></path><path d="M17.59,31.21h-.74L17,30.13h2.43l.13,1.09h-.75v0a.89.89,0,0,0-.6-.91.84.84,0,0,0-.58.9Zm1.27-.09h.55l-.1-.9h-1a.6.6,0,0,1,.21.14,1,1,0,0,1,.33.76Zm-1.91,0h.55a1,1,0,0,1,.35-.8,1,1,0,0,1,.17-.1h-1Z" fill="#050007"></path><path d="M16.85,31.17H19.5a.11.11,0,0,1,.1.12.11.11,0,0,1-.1.12H16.85a.12.12,0,0,1-.09-.15A.12.12,0,0,1,16.85,31.17Z" fill="#ffeb00" fill-rule="evenodd"></path><path d="M19.5,31.46H16.85a.18.18,0,0,1-.15-.19.17.17,0,0,1,.15-.15H19.5a.17.17,0,0,1,0,.34Zm-2.65-.25s-.05,0-.05.08a.07.07,0,0,0,.05.07H19.5s.05,0,.05-.07,0-.08-.05-.08Z" fill="#050007"></path><path d="M17.82,31.16a.67.67,0,0,1,.35-.66.7.7,0,0,1,.37.66Z" fill="#ffeb00" fill-rule="evenodd"></path><path d="M18.59,31.21h-.82v-.05a.71.71,0,0,1,.4-.71h0a.74.74,0,0,1,.4.71Zm-.73-.1h.63a.36.36,0,0,0-.12-.5.36.36,0,0,0-.51.12A.37.37,0,0,0,17.86,31.11Z" fill="#050007"></path><rect x="18.74" y="29.22" width="0.51" height="0.55" fill="#ffeb00"></rect><path d="M19.3,29.81h-.61v-.64h.61Zm-.52-.1h.42v-.45h-.42Z" fill="#050007"></path><path d="M16.91,29.76h2.53a.11.11,0,0,1,.1.13.12.12,0,0,1-.1.09H16.91a.11.11,0,0,1-.1-.12A.13.13,0,0,1,16.91,29.76Z" fill="#ffeb00" fill-rule="evenodd"></path><path d="M19.45,30H16.91a.16.16,0,0,1-.14-.18.15.15,0,0,1,.14-.14h2.53a.16.16,0,0,1,.14.18.15.15,0,0,1-.14.14Zm-2.54-.22s-.06,0-.05.07,0,.05.05.05h2.54s.05,0,0-.07a0,0,0,0,0,0-.05Z" fill="#050007"></path><path d="M19.39,30.25H17a.16.16,0,0,1,0-.32h2.43a.16.16,0,0,1,.13.18A.16.16,0,0,1,19.39,30.25ZM17,30s0,0,0,.06,0,.06,0,.06h2.43s0,0,0-.06,0-.06,0-.06Z" fill="#050007"></path><path d="M17.75,28.33h.19v.14h.14v-.14h.2v.14h.14v-.14h.2v.31a.09.09,0,0,1-.08.08h-.7a.11.11,0,0,1-.09-.08Z" fill="#ffeb00" fill-rule="evenodd"></path><path d="M18.53,28.77h-.69a.13.13,0,0,1-.14-.13v-.36H18v.14h0v-.14h.29v.14h.05v-.14h.29v.36a.13.13,0,0,1-.13.13Zm-.73-.39v.26s0,0,0,0h.69a0,0,0,0,0,0,0h0v-.27h-.1v.14h-.23v-.14h-.1v.14h-.24v-.14Z" fill="#050007"></path><path d="M18.47,28.75l0,1h-.67l0-1Z" fill="#ffeb00" fill-rule="evenodd"></path><path d="M18.56,29.8h-.77l.05-1.1h.67Zm-.67-.1h.57l0-.91h-.49Z" fill="#050007"></path><path d="M16.92,28.82h.19V29h.14v-.14h.19V29h.14v-.14h.19v.32a.08.08,0,0,1-.08.08H17a.09.09,0,0,1-.08-.09Z" fill="#ffeb00" fill-rule="evenodd"></path><path d="M17.69,29.26H17a.13.13,0,0,1-.13-.13v-.36h.28v.14h0v-.14h.29v.14h0v-.14h.29v.36a.13.13,0,0,1-.13.13ZM17,28.87v.26a0,0,0,0,0,0,0h.68a0,0,0,0,0,0,0h0v-.26h-.1V29h-.23v-.14h-.1V29h-.23v-.14Z" fill="#050007"></path><rect x="17.08" y="29.22" width="0.51" height="0.55" fill="#ffeb00"></rect><path d="M17.64,29.81H17v-.64h.61Zm-.51-.1h.42v-.45h-.42Z" fill="#050007"></path><path d="M18.58,28.82h.19V29h.13v-.14h.2V29h.13v-.14h.2v.32a.09.09,0,0,1-.08.08h-.68a.09.09,0,0,1-.09-.09Z" fill="#ffeb00" fill-rule="evenodd"></path><path d="M19.34,29.26h-.67a.13.13,0,0,1-.14-.13v-.36h.29v.14h0v-.14h.28v.14h.05v-.14h.28v.36a.12.12,0,0,1-.12.13Zm-.71-.39v.26a0,0,0,0,0,0,0h.67s0,0,0,0h0v-.26h-.1V29h-.23v-.14H19V29h-.24v-.14Z" fill="#050007"></path><path d="M18.29,29.35h-.23v-.28a.11.11,0,0,1,.06-.1.13.13,0,0,1,.12,0,.1.1,0,0,1,.05.1Zm-.13-.09h0v-.19a0,0,0,0,0,0,0h0a0,0,0,0,0,0,0Z" fill="#050007"></path><path d="M17.46,29.65h-.23v-.23a.11.11,0,0,1,.06-.1.11.11,0,0,1,.11,0,.11.11,0,0,1,.06.1Zm-.13-.1h0v-.13a0,0,0,0,0,0,0h0s0,0,0,0Z" fill="#050007"></path><path d="M19.12,29.65h-.23v-.23a.1.1,0,0,1,.06-.1.11.11,0,0,1,.11,0,.11.11,0,0,1,.06.1Zm-.13-.1h0v-.13a0,0,0,0,0,0,0h0a0,0,0,0,0,0,0Z" fill="#050007"></path><path d="M31.69,31.22a1.07,1.07,0,0,1,.64-1.06A1.07,1.07,0,0,1,33,31.23Z" fill="#ffeb00" fill-rule="evenodd"></path><path d="M33,31.28H31.64v-.05a1.14,1.14,0,0,1,.67-1.11s0,0,.1,0A1.14,1.14,0,0,1,33,31.23Zm-1.29-.1h1.2a1,1,0,0,0-.61-1,1.05,1.05,0,0,0-.59,1Z" fill="#050007"></path><path d="M31.16,30.17l-.1,1h.64a.88.88,0,0,1,.64-.95,1,1,0,0,1,.64.95h.64l-.11-1Z" fill="#ffeb00" fill-rule="evenodd"></path><path d="M31.75,31.21H31l.12-1.08h2.43l.13,1.09h-.75v0a.91.91,0,0,0-.6-.91.83.83,0,0,0-.58.9ZM33,31.12h.55l-.11-.9h-1a.66.66,0,0,1,.2.14A1,1,0,0,1,33,31.12Zm-1.91,0h.55a1,1,0,0,1,.35-.8,1,1,0,0,1,.17-.1h-1Z" fill="#050007"></path><path d="M31,31.17h2.64a.11.11,0,0,1,.1.12.11.11,0,0,1-.1.12H31a.13.13,0,0,1-.1-.15A.13.13,0,0,1,31,31.17Z" fill="#ffeb00" fill-rule="evenodd"></path><path d="M33.66,31.46H31a.17.17,0,0,1-.15-.19.16.16,0,0,1,.15-.15h2.64a.17.17,0,0,1,.15.19.18.18,0,0,1-.15.15ZM31,31.21s-.05,0-.05.08a.07.07,0,0,0,.05.07h2.65s.05,0,.05-.07,0-.08-.05-.08Z" fill="#050007"></path><path d="M32,31.16a.69.69,0,0,1,.36-.66.7.7,0,0,1,.37.66Z" fill="#ffeb00" fill-rule="evenodd"></path><path d="M32.74,31.21h-.81v-.05a.68.68,0,0,1,.4-.71h0a.71.71,0,0,1,.4.71Zm-.72-.1h.63a.37.37,0,0,0-.63-.39A.39.39,0,0,0,32,31.11Z" fill="#050007"></path><rect x="32.89" y="29.22" width="0.51" height="0.55" fill="#ffeb00"></rect><path d="M33.46,29.81h-.61v-.64h.61Zm-.52-.1h.42v-.45h-.42Z" fill="#050007"></path><path d="M31.07,29.76H33.6a.11.11,0,0,1,.1.13.12.12,0,0,1-.1.09H31.07a.12.12,0,0,1-.1-.12A.13.13,0,0,1,31.07,29.76Z" fill="#ffeb00" fill-rule="evenodd"></path><path d="M33.61,30H31.07a.16.16,0,0,1-.14-.18.17.17,0,0,1,.14-.14h2.54a.17.17,0,0,1,.14.18A.17.17,0,0,1,33.61,30Zm-2.54-.22a.08.08,0,0,0-.05.07s0,.05.05.05h2.54s0,0,0-.07,0-.05,0-.05Z" fill="#050007"></path><path d="M33.55,30.25H31.12a.15.15,0,0,1-.13-.18.16.16,0,0,1,.13-.14h2.43a.17.17,0,0,1,.13.18A.16.16,0,0,1,33.55,30.25ZM31.12,30s0,0,0,.06,0,.06,0,.06h2.43s0,0,0-.06,0-.06,0-.06Z" fill="#050007"></path><path d="M31.91,28.33h.19v.14h.14v-.14h.2v.14h.14v-.14h.2v.31a.09.09,0,0,1-.08.08H32a.11.11,0,0,1-.09-.08Z" fill="#ffeb00" fill-rule="evenodd"></path><path d="M32.68,28.77H32a.13.13,0,0,1-.13-.13v-.36h.28v.14h0v-.14h.29v.14h0v-.14h.3v.36a.13.13,0,0,1-.13.13ZM32,28.38v.26s0,0,0,0h.69s0,0,0,0h0v-.27h-.1v.14h-.23v-.14h-.1v.14h-.24v-.14Z" fill="#050007"></path><path d="M32.63,28.75l0,1H32l0-1Z" fill="#ffeb00" fill-rule="evenodd"></path><path d="M32.72,29.8H32L32,28.7h.67Zm-.67-.1h.57l0-.91h-.49Z" fill="#050007"></path><path d="M31.08,28.82h.19V29h.14v-.14h.19V29h.14v-.14h.19v.32a.09.09,0,0,1-.08.08h-.68c-.05,0-.08,0-.09-.09Z" fill="#ffeb00" fill-rule="evenodd"></path><path d="M31.84,29.26h-.67a.14.14,0,0,1-.14-.13v-.36h.29v.14h0v-.14h.29v.14h0v-.14H32v.36a.13.13,0,0,1-.13.13Zm-.71-.39v.26a0,0,0,0,0,0,0h.67s0,0,0,0h0v-.26h-.1V29h-.23v-.14h-.1V29h-.23v-.14Z" fill="#050007"></path><rect x="31.24" y="29.22" width="0.51" height="0.55" fill="#ffeb00"></rect><path d="M31.8,29.81h-.61v-.64h.61Zm-.51-.1h.41v-.45h-.41Z" fill="#050007"></path><path d="M32.74,28.82h.19V29h.13v-.14h.19V29h.14v-.14h.19v.32a.08.08,0,0,1-.08.08h-.67a.09.09,0,0,1-.09-.09Z" fill="#ffeb00" fill-rule="evenodd"></path><path d="M33.5,29.26h-.67a.13.13,0,0,1-.14-.13v-.36H33v.14H33v-.14h.28v.14h.05v-.14h.28v.36a.12.12,0,0,1-.13.13Zm-.71-.39v.26a0,0,0,0,0,0,0h.67a0,0,0,0,0,0,0h0v-.26h-.1V29H33.2v-.14h-.1V29h-.23v-.14Z" fill="#050007"></path><path d="M32.45,29.35h-.23v-.28a.16.16,0,0,1,.05-.11.13.13,0,0,1,.12,0,.14.14,0,0,1,.06.11Zm-.13-.09h0v-.19a0,0,0,0,0,0,0h0s0,0,0,0v.2Z" fill="#050007"></path><path d="M31.61,29.65h-.22v-.23a.11.11,0,0,1,.06-.1.11.11,0,0,1,.11,0,.12.12,0,0,1,.05.1Zm-.12-.1h0v-.13a0,0,0,0,0,0,0h0a0,0,0,0,0,0,0Z" fill="#050007"></path><path d="M33.28,29.65h-.23v-.23a.11.11,0,0,1,.11-.12.13.13,0,0,1,.12.11h0Zm-.13-.1h0v-.13a0,0,0,0,0,0,0h0v.16Z" fill="#050007"></path><path d="M31.75,24.11A1.09,1.09,0,0,1,32.39,23,1.06,1.06,0,0,1,33,24.12Z" fill="#ffeb00" fill-rule="evenodd"></path><path d="M33.09,24.17H31.7v-.05A1.14,1.14,0,0,1,32.36,23s.15,0,.2.07a1.14,1.14,0,0,1,.53,1.05Zm-1.29-.1H33a1,1,0,0,0-.61-1,1.05,1.05,0,0,0-.59,1Z" fill="#050007"></path><path d="M31.22,23.06l-.1,1h.65a.9.9,0,0,1,.63-1,1,1,0,0,1,.64,1h.65l-.12-1Z" fill="#ffeb00" fill-rule="evenodd"></path><path d="M31.81,24.1h-.75L31.18,23h2.43l.12,1.09H33v-.05a.91.91,0,0,0-.6-.9.83.83,0,0,0-.58.9Zm1.27-.1h.55l-.11-.9h-1a1.43,1.43,0,0,1,.22.15,1.07,1.07,0,0,1,.32.75Zm-1.91,0h.54a1,1,0,0,1,.34-.78l.18-.12h-1Z" fill="#050007"></path><path d="M31.07,24.05h2.65a.13.13,0,0,1,.1.14.13.13,0,0,1-.1.11H31.07a.13.13,0,0,1-.1-.14A.13.13,0,0,1,31.07,24.05Z" fill="#ffeb00" fill-rule="evenodd"></path><path d="M33.72,24.34H31.07a.16.16,0,0,1-.15-.16h0a.16.16,0,0,1,.15-.16h2.65a.17.17,0,0,1,.15.18.16.16,0,0,1-.15.15Zm-2.65-.24s-.05,0-.05.07,0,.08.05.08h2.65s.05,0,.05-.08,0-.07-.05-.07Z" fill="#050007"></path><path d="M32,24.05a.71.71,0,0,1,.36-.67.71.71,0,0,1,.37.67Z" fill="#ffeb00" fill-rule="evenodd"></path><path d="M32.81,24.1H32v-.05a.7.7,0,0,1,.4-.71h0a.73.73,0,0,1,.4.7Zm-.72-.1h.62a.37.37,0,0,0-.12-.51.37.37,0,0,0-.5.12A.35.35,0,0,0,32.09,24Z" fill="#050007"></path><rect x="32.95" y="22.1" width="0.51" height="0.55" fill="#ffeb00"></rect><path d="M33.52,22.69h-.61v-.64h.61Zm-.52-.1h.42v-.45H33Z" fill="#050007"></path><path d="M33.66,22.91H31.13a.15.15,0,0,1-.14-.17.14.14,0,0,1,.14-.14h2.53a.16.16,0,0,1,.16.16A.16.16,0,0,1,33.66,22.91Zm-2.53-.22a.08.08,0,0,0-.05.07.06.06,0,0,0,.05.06h2.53a.06.06,0,0,0,.05-.08s0,0-.05,0Z" fill="#050007"></path><path d="M33.61,23.14H31.18a.16.16,0,0,1-.13-.18.16.16,0,0,1,.13-.14h2.43a.16.16,0,0,1,0,.32Zm-2.43-.22s0,0,0,.06,0,.06,0,.06h2.43s0,0,0-.06,0-.06,0-.06Z" fill="#050007"></path><path d="M32,21.21h.2v.14h.14v-.14h.2v.14h.13v-.14h.2v.31a.08.08,0,0,1-.08.09h-.69a.09.09,0,0,1-.09-.09Z" fill="#ffeb00" fill-rule="evenodd"></path><path d="M32.74,21.66h-.69a.13.13,0,0,1-.13-.13v-.36h.28v.13h0v-.14h.29v.14h0v-.14h.3v.36a.14.14,0,0,1-.13.14Zm-.73-.4v.26s0,0,0,0h.69s0,0,0,0h0v-.27h-.1v.14h-.23v-.14h-.1v.14h-.24v-.14Z" fill="#050007"></path><path d="M32.69,21.64l0,1h-.67l0-1Z" fill="#ffeb00" fill-rule="evenodd"></path><path d="M32.78,22.69H32l.05-1.1h.67Zm-.67-.1h.57l0-.91h-.49Z" fill="#050007"></path><path d="M31.14,21.71h.19v.13h.14v-.13h.19v.13h.14V21.7H32V22a.09.09,0,0,1-.08.08h-.68a.1.1,0,0,1-.09-.08Z" fill="#ffeb00" fill-rule="evenodd"></path><path d="M31.91,22.15h-.68A.13.13,0,0,1,31.1,22v-.36h.28v.14h0v-.14h.29v.13h0v-.14H32V22a.14.14,0,0,1-.12.14Zm-.72-.39V22s0,0,0,0h.68s0,0,0,0h0v-.27h-.1v.14h-.23v-.14h-.1v.14h-.23v-.13Z" fill="#050007"></path><rect x="31.3" y="22.1" width="0.51" height="0.55" fill="#ffeb00"></rect><path d="M31.86,22.69h-.61v-.64h.61Zm-.51-.1h.41v-.45h-.41Z" fill="#050007"></path><path d="M32.8,21.71H33v.13h.13v-.13h.19v.13h.14V21.7h.19V22a.08.08,0,0,1-.08.08h-.67A.09.09,0,0,1,32.8,22Z" fill="#ffeb00" fill-rule="evenodd"></path><path d="M33.56,22.15h-.67a.13.13,0,0,1-.14-.13v-.36H33v.14h0v-.14h.29v.13h0v-.14h.28V22a.13.13,0,0,1-.12.14Zm-.71-.39V22s0,0,0,0h.67s0,0,0,0h0v-.27h-.1v.14h-.24v-.14h-.1v.14h-.23v-.13Z" fill="#050007"></path><path d="M32.51,22.24h-.23V22a.12.12,0,0,1,0-.1.13.13,0,0,1,.12,0,.11.11,0,0,1,.06.11Zm-.14-.1h0V22s0,0,0,0h0s0,0,0,0v.2Z" fill="#050007"></path><path d="M31.67,22.54h-.22V22.3a.12.12,0,0,1,.06-.1.11.11,0,0,1,.11,0,.14.14,0,0,1,.05.1Zm-.13-.1h0V22.3s0,0,0,0h0v.16Z" fill="#050007"></path><path d="M33.33,22.54h-.22V22.3a.11.11,0,0,1,.1-.12.11.11,0,0,1,.12.1v.26Zm-.12-.1h0V22.3a0,0,0,0,0,0,0h0v.16Z" fill="#050007"></path><path d="M20.35,38.86a1.07,1.07,0,0,1-.31-1.2,1.07,1.07,0,0,1,1.23.3Z" fill="#ffeb00" fill-rule="evenodd"></path><path d="M20.35,38.94l0,0A1.13,1.13,0,0,1,20,37.65s0,0,.15-.08a1.16,1.16,0,0,1,1.15.35l0,0Zm-.27-1.24a1,1,0,0,0,.27,1.1L21.2,38a1,1,0,0,0-1.12-.26Z" fill="#050007"></path><path d="M19.23,38.49l.62.78.46-.46a.88.88,0,0,1-.22-1.12,1,1,0,0,1,1.12.22l.46-.46-.79-.62Z" fill="#ffeb00" fill-rule="evenodd"></path><path d="M19.85,39.34l-.68-.85,1.71-1.73.86.69-.53.53,0,0a.9.9,0,0,0-1.07-.21h0a.85.85,0,0,0,.24,1.05l0,0Zm-.56-.85.57.7.39-.38a1,1,0,0,1-.32-.81,1.46,1.46,0,0,1,.05-.2Zm1.2-1a1.12,1.12,0,0,1,.72.3l.39-.38-.71-.57-.7.7a1,1,0,0,1,.3,0Z" fill="#050007"></path><path d="M19.83,39.3l1.87-1.87a.11.11,0,0,1,.16,0,.12.12,0,0,1,0,.16L20,39.47a.12.12,0,0,1-.17-.17Z" fill="#ffeb00" fill-rule="evenodd"></path><path d="M19.93,39.55a.16.16,0,0,1-.12-.06.15.15,0,0,1,0-.22h0l1.87-1.87a.14.14,0,0,1,.1,0h0a.19.19,0,0,1,.13,0,.18.18,0,0,1,0,.23L20,39.51A.15.15,0,0,1,19.93,39.55Zm-.07-.21s0,.06,0,.09a.06.06,0,0,0,.09,0l1.87-1.87a.07.07,0,0,0,0-.09s0,0-.06,0h0l0,0Z" fill="#050007"></path><path d="M20.51,38.62a.68.68,0,0,1-.22-.72.7.7,0,0,1,.73.21Z" fill="#ffeb00" fill-rule="evenodd"></path><path d="M20.51,38.69l0,0a.77.77,0,0,1-.25-.69c0-.09,0-.1.05-.1a.72.72,0,0,1,.78.21l0,0Zm-.18-.75a.61.61,0,0,0,.18.61l.44-.44a.64.64,0,0,0-.63-.17Z" fill="#050007"></path><rect x="19.89" y="36.33" width="0.51" height="0.55" transform="translate(-19.99 25) rotate(-45.05)" fill="#ffeb00"></rect><path d="M20.16,37l-.45-.45.43-.43.45.45Zm-.31-.45.31.32.3-.3-.32-.32Z" fill="#050007"></path><path d="M18.87,38.27l1.8-1.8a.11.11,0,0,1,.14,0h0a.11.11,0,0,1,0,.15h0L19,38.42a.11.11,0,0,1-.16-.15Z" fill="#ffeb00" fill-rule="evenodd"></path><path d="M19,38.5a.16.16,0,0,1-.11,0,.16.16,0,0,1,0-.22h0l1.79-1.79a.18.18,0,0,1,.1,0,.16.16,0,0,1,.11.05.17.17,0,0,1,.05.12.14.14,0,0,1,0,.1l-1.79,1.79A.18.18,0,0,1,19,38.5Zm-.05-.2a.06.06,0,0,0,0,.08.08.08,0,0,0,.08,0l1.8-1.8a0,0,0,0,0,0,0s0,0,0-.05l-.05,0h0Z" fill="#050007"></path><path d="M19.16,38.61a.15.15,0,0,1-.12,0,.15.15,0,0,1,0-.21h0l1.72-1.71a.13.13,0,0,1,.09,0,.18.18,0,0,1,.12,0,.15.15,0,0,1,0,.21l-1.72,1.72A.12.12,0,0,1,19.16,38.61Zm-.06-.19a.07.07,0,0,0,0,.09.06.06,0,0,0,.06,0l1.71-1.72a0,0,0,0,0,0-.07s0,0-.05,0h0Z" fill="#050007"></path><path d="M18.45,36.66l.14-.13.1.1.1-.1-.1-.1.14-.14.1.1.1-.1-.1-.1.13-.14.23.22a.09.09,0,0,1,0,.12h0l-.49.49a.09.09,0,0,1-.12,0Z" fill="#ffeb00" fill-rule="evenodd"></path><path d="M18.73,37a.12.12,0,0,1-.09,0l-.25-.26.2-.2.09.1,0,0-.1-.1.2-.2.1.1,0,0-.1-.1.21-.2.26.26a.11.11,0,0,1,0,.08.1.1,0,0,1,0,.1l-.48.49A.12.12,0,0,1,18.73,37Zm-.21-.29.19.19h.05l.49-.49s0,0,0,0v0l-.19-.19-.07.07.1.1-.17.17-.1-.1-.07.07.1.1-.17.16-.1-.09Z" fill="#050007"></path><path d="M19.26,36.45l.74.68-.48.48-.68-.75Z" fill="#ffeb00" fill-rule="evenodd"></path><path d="M19.52,37.67l-.74-.81.48-.47.81.74Zm-.61-.81.62.68.4-.4-.67-.62Z" fill="#050007"></path><path d="M18.22,37.59l.13-.13.1.1.1-.1-.1-.1.14-.13.1.1.1-.1-.1-.1.13-.14.22.23a.07.07,0,0,1,0,.11h0l-.47.48a.09.09,0,0,1-.12,0l-.22-.22Z" fill="#ffeb00" fill-rule="evenodd"></path><path d="M18.5,37.88a.12.12,0,0,1-.09,0l-.24-.24v0l.18-.18.1.1,0,0-.1-.1.2-.2.1.1,0,0-.1-.1.2-.2.26.25a.16.16,0,0,1,0,.09.12.12,0,0,1,0,.1l-.48.48A.1.1,0,0,1,18.5,37.88Zm-.21-.29.18.19h.05L19,37.3s0,0,0,0,0,0,0,0l-.19-.19-.06.07.1.1-.17.16-.1-.1-.06.07.1.1-.17.16-.1-.1Z" fill="#050007"></path><rect x="18.72" y="37.5" width="0.51" height="0.55" transform="translate(-21.16 24.52) rotate(-45.05)" fill="#ffeb00"></rect><path d="M19,38.22l-.45-.46.43-.43.45.46Zm-.32-.46.32.32.3-.29L19,37.47Z" fill="#050007"></path><path d="M19.39,36.42l.13-.13.1.1.1-.1-.1-.1.14-.13.1.1.1-.1-.1-.1.14-.14.22.22a.09.09,0,0,1,0,.12h0l-.48.48a.09.09,0,0,1-.12,0Z" fill="#ffeb00" fill-rule="evenodd"></path><path d="M19.67,36.71a.12.12,0,0,1-.09,0l-.26-.26.2-.2.1.1,0,0-.1-.1.21-.2.1.1,0,0-.1-.1.2-.2.26.26a.13.13,0,0,1,0,.09.21.21,0,0,1,0,.1l-.48.47S19.7,36.72,19.67,36.71Zm-.21-.29.18.19h.06l.47-.48s0,0,0,0a0,0,0,0,0,0,0L20,35.89l-.07.07.1.1-.17.17-.1-.1-.07.07.1.1-.16.16-.1-.1Z" fill="#050007"></path><path d="M19.4,37.17l-.2-.2a.12.12,0,0,1,.11-.2l.05,0,.2.2Zm-.13-.31h0a0,0,0,0,0,0,0l.13.14,0,0-.13-.13Z" fill="#050007"></path><path d="M19,38l-.16-.16a.1.1,0,0,1,0-.16.1.1,0,0,1,.15,0h0l.17.16Zm-.09-.26h0s0,0,0,0l.1.1,0,0-.1-.1Z" fill="#050007"></path><path d="M20.19,36.79,20,36.62a.09.09,0,0,1,0-.11.1.1,0,0,1,.07-.08.11.11,0,0,1,.12,0l.16.16Zm-.09-.27h0a0,0,0,0,0,0,0l.1.1,0,0-.1-.1Z" fill="#050007"></path><path d="M30.36,38.86a1.07,1.07,0,0,0,.31-1.2,1.07,1.07,0,0,0-1.23.3Z" fill="#ffeb00" fill-rule="evenodd"></path><path d="M31.48,38.49l-.63.78-.46-.46a.87.87,0,0,0,.23-1.12,1,1,0,0,0-1.13.22L29,37.45l.78-.62Z" fill="#ffeb00" fill-rule="evenodd"></path><path d="M30.86,39.34l-.53-.53,0,0a.83.83,0,0,0,.22-1.06h0a.92.92,0,0,0-1,.22l0,0L29,37.45l.86-.69,1.71,1.73Zm-.4-.53.39.38.56-.7-.68-.68a1.18,1.18,0,0,1,0,.2,1,1,0,0,1-.31.8ZM29.1,37.45l.39.39a1,1,0,0,1,1-.25l-.7-.7Z" fill="#050007"></path><path d="M30.78,39.55a.15.15,0,0,1-.1,0l-1.87-1.87a.14.14,0,0,1,0-.1.21.21,0,0,1,.05-.13.19.19,0,0,1,.13,0h0a.14.14,0,0,1,.1,0l1.87,1.87a.16.16,0,0,1,0,.22.14.14,0,0,1-.12.06ZM29,37.45h0s-.05,0-.06,0a.09.09,0,0,0,0,.06v0l1.87,1.87h0l0,0s0-.06,0-.09L29,37.47l0,0Z" fill="#050007"></path><path d="M30.21,38.62a.67.67,0,0,0,.21-.72.68.68,0,0,0-.72.21Z" fill="#ffeb00" fill-rule="evenodd"></path><path d="M30.21,38.69l-.58-.58,0,0a.72.72,0,0,1,.78-.21s0,0,0,.08a.75.75,0,0,1-.25.71Zm-.45-.58.45.44a.36.36,0,0,0,.27-.44.37.37,0,0,0-.44-.28A.4.4,0,0,0,29.76,38.11Z" fill="#050007"></path><rect x="30.28" y="36.35" width="0.55" height="0.51" transform="translate(-16.93 32.29) rotate(-44.96)" fill="#ffeb00"></rect><path d="M30.54,37l-.43-.43.46-.45.43.43Zm-.3-.43.3.3.32-.32-.29-.29Z" fill="#050007"></path><path d="M31.84,38.27,30,36.47a.11.11,0,0,0-.14,0,.11.11,0,0,0,0,.15h0l1.79,1.79a.1.1,0,0,0,.14,0h0A.12.12,0,0,0,31.84,38.27Z" fill="#ffeb00" fill-rule="evenodd"></path><path d="M31.75,38.5a.15.15,0,0,1-.1,0l-1.8-1.8a.15.15,0,0,1,0-.1.16.16,0,0,1,.05-.11.16.16,0,0,1,.22,0l1.79,1.79a.17.17,0,0,1,0,.22A.16.16,0,0,1,31.75,38.5ZM30,36.5l-.05,0a.08.08,0,0,0,0,0,0,0,0,0,0,0,0l1.79,1.79a.07.07,0,0,0,.09-.09L30,36.51Z" fill="#050007"></path><path d="M31.55,38.61a.17.17,0,0,1-.1,0l-1.71-1.72a.15.15,0,0,1,0-.21.17.17,0,0,1,.12,0h0a.12.12,0,0,1,.09,0l1.71,1.71a.13.13,0,0,1,0,.1.17.17,0,0,1-.17.16ZM29.87,36.7l-.05,0a0,0,0,0,0,0,.07l1.71,1.72s.05,0,.08,0,0,0,0,0,0,0,0,0h0l-1.72-1.71Z" fill="#050007"></path><path d="M32.26,36.66l-.14-.13-.09.1-.1-.1.1-.1-.14-.14-.1.1-.1-.1.1-.1-.14-.14-.22.22a.08.08,0,0,0,0,.12h0l.48.49a.09.09,0,0,0,.12,0Z" fill="#ffeb00" fill-rule="evenodd"></path><path d="M32,37a.13.13,0,0,1-.1,0l-.49-.48a.14.14,0,0,1,0-.19h0l.26-.25.2.2-.1.1,0,0,.1-.1.2.2-.1.1,0,0,.1-.1.2.2-.25.25a.13.13,0,0,1-.09,0Zm-.33-.83-.19.19a0,0,0,0,0,0,0h0l.49.49H32l.19-.19-.07-.06-.1.09-.17-.16.1-.1-.07-.07-.1.1-.17-.17.1-.1Z" fill="#050007"></path><path d="M31.45,36.45l-.74.68.47.48.68-.75Z" fill="#ffeb00" fill-rule="evenodd"></path><path d="M31.19,37.67l-.55-.54.81-.74.48.47Zm-.41-.54.4.4.62-.67-.35-.35Z" fill="#050007"></path><path d="M32.49,37.59l-.13-.13-.1.1-.1-.1.1-.1-.14-.13-.1.1-.1-.1.1-.1L31.89,37l-.23.23a.08.08,0,0,0,0,.11h0l.48.48a.09.09,0,0,0,.12,0l.22-.22Z" fill="#ffeb00" fill-rule="evenodd"></path><path d="M32.21,37.88a.19.19,0,0,1-.1,0l-.47-.48a.12.12,0,0,1,0-.18h0l.25-.26.2.2-.1.1,0,0,.1-.1.2.2-.1.1,0,0,.1-.1.18.18v0l-.23.23A.18.18,0,0,1,32.21,37.88Zm-.32-.82-.18.19a0,0,0,0,0,0,0h0l.47.48h0l.19-.19-.06-.06-.1.1-.17-.17.1-.1-.07-.06-.1.1-.16-.17.1-.1Z" fill="#050007"></path><rect x="31.45" y="37.52" width="0.55" height="0.51" transform="translate(-17.41 33.41) rotate(-44.9)" fill="#ffeb00"></rect><path d="M31.72,38.22l-.43-.43.45-.46.43.43Zm-.3-.43.3.29.31-.32-.29-.3Z" fill="#050007"></path><path d="M31.32,36.42l-.13-.13-.1.1-.1-.1.1-.1L31,36.06l-.1.1-.1-.1.1-.1-.14-.14-.22.22a.09.09,0,0,0,0,.12h0l.48.48a.09.09,0,0,0,.12,0Z" fill="#ffeb00" fill-rule="evenodd"></path><path d="M31,36.71h0a.13.13,0,0,1-.1,0l-.48-.47a.13.13,0,0,1,0-.18h0l.26-.25.2.2-.1.1,0,0L31,36l.2.2-.1.1,0,0,.1-.1.2.2-.25.25A.1.1,0,0,1,31,36.71Zm-.32-.82-.19.19a0,0,0,0,0,0,.05h0l.48.48h0l.19-.19-.07-.06-.1.1-.16-.17.1-.1L31,36.13l-.1.1-.16-.17.1-.1Z" fill="#050007"></path><path d="M31.31,37.17,31.14,37l.2-.2a.13.13,0,0,1,.12,0,.11.11,0,0,1,.08.08.12.12,0,0,1,0,.12Zm0-.17,0,0,.13-.14s0,0,0,0h0Z" fill="#050007"></path><path d="M31.69,38l-.16-.16.17-.16a.11.11,0,0,1,.11,0,.11.11,0,0,1,.08.08.14.14,0,0,1,0,.12Zm0-.16,0,0,.1-.1v0s0,0,0,0,0,0,0,0Z" fill="#050007"></path><path d="M30.51,36.79l-.15-.16.16-.17a.11.11,0,1,1,.16.16h0Zm0-.16,0,0,.1-.1s0,0,0,0h0Z" fill="#050007"></path></g></svg> 