<?xml version="1.0" encoding="UTF-8"?> <svg xmlns="http://www.w3.org/2000/svg" xmlns:xlink="http://www.w3.org/1999/xlink" viewBox="0 0 62.5 62.5"><defs><clipPath id="a"><rect width="62.5" height="62.5" fill="none"></rect></clipPath></defs><g clip-path="url(#a)"><path d="M15.58,63.14H83V-.61H15.58l8.1,3.52L15.58,6.5,23.68,10l-8.1,3.59,8.1,3.5-8.1,3.58,8.1,3.5-8.1,3.58,8.1,3.5-8.1,3.59,8.1,3.49-8.1,3.59,8.1,3.5L15.58,49l8.1,3.5-8.1,3.58,8.1,3.5-8.1,3.57Z" fill="#af002e" fill-rule="evenodd"></path><path d="M-12.87-.61H15.58l8.1,3.52L15.58,6.5,23.68,10l-8.1,3.59,8.1,3.5-8.1,3.58,8.1,3.5-8.1,3.58,8.1,3.5-8.1,3.59,8.1,3.49-8.1,3.59,8.1,3.5L15.58,49l8.1,3.5-8.1,3.58,8.1,3.5-8.1,3.57H-12.87V-.61Z" fill="#fff" fill-rule="evenodd"></path></g></svg> 