<?xml version="1.0" encoding="UTF-8"?> <svg xmlns="http://www.w3.org/2000/svg" xmlns:xlink="http://www.w3.org/1999/xlink" viewBox="0 0 62.5 62.5"><defs><clipPath id="a"><rect width="62.5" height="62.5" fill="none"></rect></clipPath></defs><g clip-path="url(#a)"><path d="M78.88,63V-.51H-16.38V63Z" fill="#00892a"></path><path d="M27.6,26.24a.49.49,0,0,1,.56-.41c.92.16,1.06.1,1.83.2,1.07.15.46.44,0,.79-.24.18-.44.25-.57.55-.06.15.08.75,0,.84-.64.71-1.83-1.4-1.83-2ZM32.27,22c0-.2.34-.12.46-.06C33.65,22.39,32.27,22.75,32.27,22ZM25,21.29a7.06,7.06,0,0,0,.33,1c.44,1.14,1.33,3,.71,4.22s-1.78,2.66-3,2.88c-.45.07-1.38,0-1.23-.72,0-.24.88-.62,1-.75A5.51,5.51,0,0,0,24.5,26a3.1,3.1,0,0,0,.23-2.54,2.06,2.06,0,0,0-.29-.72c-.07-.1-.1-.09-.14-.22.43,0,.87.45.43-.53-.24-.55-.85-1.58-1.6-1.07a1.15,1.15,0,0,0-.23.21c-.59.8.05,1.55.54,2.1a1.65,1.65,0,0,1,.38,1.61,3,3,0,0,1-.73.85,9.61,9.61,0,0,1-1.49,1.21c0-.27,0-.4,0-.64s.07-.42.07-.65c-.49.13-.79,1.28-.9,1.72s-.25.37-.65.64a39.32,39.32,0,0,0-3.38,2.22c-.18.14-.43.3-.45.55.55.3,1.68-.32,2.19-.5l1.54-.62a3.89,3.89,0,0,1,.51-.21c.1.2.13.41.25.61a1.91,1.91,0,0,0,.42.48c1.36,1.21,3.46,0,4.38-1.21.13-.17.27-.32.41-.48l.2-.24c.14-.19.43-.7.7-.61.1,0,.31.5.56.78l.45.45a4.94,4.94,0,0,0,2.12,1c.46.11,1.39.44,1.75.09a.66.66,0,0,0,0-.92.91.91,0,0,0-.16-.11c-.74-.34-1.78-1-.69-1.68a2.61,2.61,0,0,1,1-.19,27.8,27.8,0,0,0,2.84-.53l.45-.13c.23-.06.22,0,.26-.31a3.43,3.43,0,0,1,.45-1.24c.09-.15.18-.18.26-.31A1.73,1.73,0,0,0,35,24.7H31.59c-.32,0-.4.06-.54-.15.46-.24,2.46-.17,3.15-1.55a1.78,1.78,0,0,0-.54-2.46,1.33,1.33,0,0,0-.38-.18,1.2,1.2,0,0,0-1.34.26,2.17,2.17,0,0,0-.59,1.92c0,.25,0,.39-.19.43a5.33,5.33,0,0,0-1.52.35c-.69.24-2.09.94-2.1,1.66a.27.27,0,0,1-.24-.15,7.39,7.39,0,0,1-.15-1.15,10.84,10.84,0,0,0-.31-1.37c-.13-.48-.67-2-1.24-2.17A1.26,1.26,0,0,0,25,21.29Z" fill="#efefef" fill-rule="evenodd"></path><path d="M45.67,46.74a13,13,0,0,1-1.4,0c-.31,0-.24-.37-.11-.61.36,0,.65,0,1.05,0h1.65c.24,0,.31,0,.54,0s.34,0,.4.14a.59.59,0,0,1-.08.43H46.64c-.08-.34-.52-.3-.76-.22s-.19.07-.21.22Zm2.93,1.14h-.12c-.21,0-.37-.15-.58-.46a12.86,12.86,0,0,1-2.48,0c-.51,0-.63,0-1.19,0a.88.88,0,0,1-.19.24c-.63.53-1.12-1-.78-1.68-5.37,0-10.75,0-16.12,0l-7.3,0c-2,0-4,.18-5.64-1.08a3.94,3.94,0,0,1-.49-.51,2.75,2.75,0,0,1-.19-.28c.34,0,.57,0,.94,0l1.36,0c.83.05,1.47.08,2.3.07.21,0,.26,0,.43,0s.32,0,.47,0c8.1,0,16.21.14,24.31.14-.33-.5-.5-1.17.33-1.36a2,2,0,0,1,.14.39c.63,0,.48.62.29,1l1.51.08c1,0,3.2-.4,3.79.63.3.55.65,2.3-.36,2.61a1.58,1.58,0,0,1-.42.09Z" fill="#efefef" fill-rule="evenodd"></path><path d="M48.08,16.65a.87.87,0,0,1-.27-.27c-.1-.12-.2-.17-.21-.37s.2,0,.36-.11c0-.3-.38-.61-.58-.82a6,6,0,0,0-.73-.7l-.4-.32c-.11-.08,0-.06-.19-.06a5.07,5.07,0,0,0-.13,1.78,8.74,8.74,0,0,0,1.6,2.32l.85,1.11c.27.36.19.22.23.74l.14,2.3c0,.28.12,2.13.14,2.31s0,.62,0,.92a4.85,4.85,0,0,1-.29,1.69c-.24.62-.72.57-1.1.1a9.27,9.27,0,0,0-.85-1.13c-1.11-.76-2,2.57-2.43,3.19a.53.53,0,0,1-.72.07,2.17,2.17,0,0,1-.68-1.3,4.5,4.5,0,0,1,0-1.79,1.81,1.81,0,0,0-.54,1,3.93,3.93,0,0,0,0,1.45,3,3,0,0,0,.45,1.14c.3.52,1.25,1.44,1.92,1,.94-.65.59-2.05,1.18-2.77a.44.44,0,0,1,.59-.08,8.24,8.24,0,0,0,.84.74c.56.36,1,.69,1.73.23A2.08,2.08,0,0,0,50,27.7a47,47,0,0,0,0-6.17A15.51,15.51,0,0,1,51.13,23a4.58,4.58,0,0,1,.17,1.38c0,.26.07.66.08.93s0,.34,0,.5,0,.27,0,.5v2.09c.34-.08.84-.85,1-1.16s.15-.39.15-.93V25.27a2.51,2.51,0,0,1,.44.67l1.06,1.78c.09.16.09.25.23.35a3.19,3.19,0,0,0,.15-1.59,2.37,2.37,0,0,0-.53-1.31c-.36-.54-.7-1.08-1.08-1.6s-.39-.49-.48-1.35c0-.27-.08-.55-.11-.8-.16-1.35-.45-2.6-.64-3.92-.07-.45,0-.18.46-.45A7.52,7.52,0,0,0,51,14.15c-.27-.41-.72.11-.88.38-.59,1,.43,3.62.6,4.75a11.42,11.42,0,0,1,.19,1.43,10,10,0,0,1-.84-1.21c-.41-.61-.57-.67-.56-1.48a1.53,1.53,0,0,0,0-.3l-.08-1c.23,0,.12.14.43.14.38-.56-1-2.45-1.29-2.9-.29,0-.38.13-.51.35a1,1,0,0,0-.12.7,12.39,12.39,0,0,1,.16,1.6Z" fill="#efefef" fill-rule="evenodd"></path><path d="M14.31,23.4c0-1.33,1.44.28.46.19C14.57,23.58,14.31,23.6,14.31,23.4Zm1.51-8.33c0,.4.8,5.3.89,5.86a3.65,3.65,0,0,1,.12,1.39c-.38.7-.85-.27-1.15-.5a1.45,1.45,0,0,0-.34-.2c-1.39-.55-2.82,2.08-1.8,3a1.34,1.34,0,0,0,1.63.09c.14-.09.32-.3.5-.31.35,0-.33,1.16-.37,1.22A3.75,3.75,0,0,1,14,26.7a2.67,2.67,0,0,1-2,.35,1.29,1.29,0,0,1-.62-.72c-.15-.58.13-1.8-.43-2.18-.16,0-.22,0-.28.19s-.08.26-.12.35c-1.24,3.88,3.26,5.49,5.24,2.18.07-.12.13-.2.2-.34a6,6,0,0,0,.53-1.62c.08-.37.57-1.16.47-.29a5.94,5.94,0,0,1-.27,1.57,4.59,4.59,0,0,1-2.13,2.75c-1.08.54-3.46,1-4.1-.46-.2-.45-.14-2.92-.89-2.22-.56.52-.32,2.57-.07,3.16,1.23,2.9,5.5,1.26,7.07-.32.14-.14.2-.22.33-.36a4.4,4.4,0,0,0,1-2.47c0-.23,0-2.39,0-2.39a2.4,2.4,0,0,1,.26.18,1.31,1.31,0,0,0,1.56-.28c.53-.53,1.24.43,2-.18a.9.9,0,0,0,.32-.68,12.34,12.34,0,0,0,.19-1.82c-1,.24-.76.36-.93,1.08-.57.27-.8-1.49-1.53-.17-.33.6-.58.61-1,.22s.12-1-.9-.45c0-.26-.38-2.93-.44-3.43,0-.15-.13-1.08-.17-1.16.68.06.46.08.75-.1a3.58,3.58,0,0,0-.16-.56,9.94,9.94,0,0,0-.85-2c-.13-.15-.24-.24-.45-.18s-.73.3-.73.74Z" fill="#efefef" fill-rule="evenodd"></path><path d="M10.76,14.68a15.27,15.27,0,0,0,.28,2.7c.05.28.08.51.12.81s.22,1.3,0,1.52c-.62.57-.46-2-.46-2.12,0-.9-.56-2.27-1.37-.86-.73,1.26-.43,2.81-1,2.94A1.06,1.06,0,0,1,8,19c-.08-.32-.25-2.4-.68-2.4-.2,0-.14.44-.14.54a8.59,8.59,0,0,0,.22,3.15,1.66,1.66,0,0,0,.34.59c.55.57,1.47.5,1.56-1.13,0-.82-.08-1.27.27-1.81.14-.2.26-.08.27.12,0,.52,0,1.74,0,2.27a1.16,1.16,0,0,0,.72,1.22c.34.16.72-.08,1,.32.1.17.06.32.07.58l.07,1.22c0,.83.1,1.64.1,2.47.93,0,1-1.48,1-2.15a4.54,4.54,0,0,0,0-.74c0-.19,0-.53-.06-.73-.08-.74-.5-2.18.6-1.94.31.07.49.43.86.48a2,2,0,0,0,1.34-.44,1.29,1.29,0,0,0,.58-1,6.23,6.23,0,0,0-.41-2.05c0-.11,0-.21-.08-.32a1.7,1.7,0,0,1-.1-.32c.09.06.13.15.26.16.7.07-.44-1.4-.58-1.49l-.1-.08c-.58-.41-1.61.32-.47,2.3a2.49,2.49,0,0,1,.52,1.38,2.32,2.32,0,0,1,0,.24c-.42.1-.44.15-1-.39-.44-.38-.52-.31-.46-.72a2.77,2.77,0,0,0,0-1.4c-.26-.73,0-.28-.47-1-.62-.93-.87.36-.89.82A4.52,4.52,0,0,0,12.8,19c-.07.09-.21.41-.43.06a.66.66,0,0,1-.12-.27,5.13,5.13,0,0,1-.13-.66c-.12-.87-.08-2.69-.51-3.44s-.86-.18-.86,0Z" fill="#efefef" fill-rule="evenodd"></path><path d="M35.47,17.05h0Zm-.15-.9c0,.3.14.58.15.86a4.77,4.77,0,0,1-.42-.51c-.21-.24-.24-.34.27-.35Zm-2.65-1.61c0,.92.32,1.14.86,1.86l.77,1.06c.11.14,1.64,2.32,1.69,2.44.15,1,.25,1.93.31,2.89,0,.2,0,.23,0,.43l.06,1.35c0,.27,0,2.72,0,3.1l0,1.48c0,.1,0,.15.1.13,1.83-.24,1.07-4.65,1.06-5.66,0-.21,0-.25,0-.47l0-.93a4,4,0,0,1,.38.59l1.59,2.82a17,17,0,0,1,.83,1.65c.17-.05.2-.21.23-.41a3.88,3.88,0,0,0-.18-2.08c-.36-.69-.7-1.38-1.11-2.05l-.29-.5-.3-.49c-.2-.34-.37-.66-.58-1s-.4-.63-.63-1a3.6,3.6,0,0,1-.23-1.34c0-.36-.09-.7-.14-1.05a.73.73,0,0,1,0-.36c.2,0,.15.13.35.15A5.76,5.76,0,0,0,36,14.31a1,1,0,0,0-.3-.34c-.51.33-.51.9-.51,1.47a1,1,0,0,1-.21-.25,9.25,9.25,0,0,0-1-.89,2.32,2.32,0,0,0-.25-.21c-.67-.47-1-.37-1,.45Z" fill="#efefef" fill-rule="evenodd"></path><path d="M28.5,15c0,1.1.91,2.22.19,3.31-.4.59-1.22.89-1.68.11s0-2.09-.21-3c-.12-.46-.59-.63-1.09,0A6.51,6.51,0,0,0,24.5,18a.44.44,0,0,1-.23.59.45.45,0,0,1-.6-.23.43.43,0,0,1,0-.37c-.1-.4-.17-2.49-.71-2.63-.95.9-.1,3.49.51,4.26a.81.81,0,0,0,.71.37c.26,0,.42.1.7-.31a5.58,5.58,0,0,0,.56-1.59,2.09,2.09,0,0,1,.11-.43c.08-.17.14-.24.28-.25.11.16.08.21.08.5a4.61,4.61,0,0,0,.15,1.57,2,2,0,0,0,.43.71,1.51,1.51,0,0,0,1.66.18c.34-.18.75-.8,1.08-1,.48-.31.73.3.78.39a1.31,1.31,0,0,0,1.73.42c.71-.3.5-1.43,1.35-1.23,0,.16-.3.51,0,.68s.73-.28.89-.53.47-.69.39-.91c-.18-.52-.26-.08-.59-.08s-.68.38-1.14-.06c-.28-.26-.27-1-.38-1.36-.33-1.09,0-.43.41-.91s-.37-1.26-.68-1.56a.78.78,0,0,0-1.1,0,.94.94,0,0,0-.12.18,1.77,1.77,0,0,0,.05,1.66,3.7,3.7,0,0,1,.31.55c.22.45.7,1.45.26,1.89-1.14,1.12-1.46-1.16-1.47-1.83,0-.19,0-.21,0-.39a4.86,4.86,0,0,0-.3-2.17c-.13-.24-.12-.38-.34-.52A2.17,2.17,0,0,0,28.5,15Z" fill="#efefef" fill-rule="evenodd"></path><path d="M53.5,15.47a23.32,23.32,0,0,0,.28,2.34l.41,3.29c0,.35.07.75.12,1.13.08.55.3,3.52.31,4a4.42,4.42,0,0,0,0,.63A2.63,2.63,0,0,1,54.54,28c-.13.46-.15.39-.46.8-1,1.31-1.16.89-2.16,1.55s-.7,1.08.11,1c.34,0,.64-.08.93-.14,3.25-.64,2.72-4.33,2.72-6.82,0-.35,0-.61,0-.7l0-1a30.78,30.78,0,0,0-.52-4.79c-.25-1.39-.14-1,.41-1.17.22-.88-1.21-1.77-1.43-2.59-.2,0-.17.06-.27.23a1.58,1.58,0,0,0-.16.35,2.28,2.28,0,0,0-.14.86Z" fill="#efefef" fill-rule="evenodd"></path><path d="M39.78,16c0,.5.25,2.15.32,2.74l.32,3.37c0,.25,0,.45,0,.71s.05.47.06.65c0,.54.16,2.25.23,2.75.14,1.1.07,1.27-.52,1.87-.17.16-.31.27-.47.43l-.23.2a8.2,8.2,0,0,1-2.49,1.57,1,1,0,0,0,.6.77,1.31,1.31,0,0,0,1.08,0,3.79,3.79,0,0,0,1.9-1.52,6.81,6.81,0,0,0,1.11-2.3l0-1.35a42.34,42.34,0,0,0-.63-7.45A3.62,3.62,0,0,1,41,17.16c.09-.23.19,0,.4-.21s0-.77-.18-1.15a8,8,0,0,0-.38-.84,2.93,2.93,0,0,0-.48-.77A1.84,1.84,0,0,0,40,15a4.11,4.11,0,0,0-.17,1Z" fill="#efefef" fill-rule="evenodd"></path><path d="M43.37,27.38V28.6c.38,0,.64-.6.75-.89.58-1.46.19-3.2,0-4.7-.2-1.7-.44-3.4-.72-5.09a1.13,1.13,0,0,1,.15-.91c.18-.36.75.29.08-.82A12.16,12.16,0,0,1,42.5,14.1c-.84,0-.63,2.63-.55,3.06.41,2,.91,4.66,1.15,6.61a31.15,31.15,0,0,1,.27,3.61Z" fill="#efefef" fill-rule="evenodd"></path><path d="M21.28,15.18c0-.67.44.07.46.08C21.92,15.29,21.28,15.89,21.28,15.18ZM20.67,15c0,.68.5.5.61,1a5.46,5.46,0,0,1-.69.67l-.77.63c-.45.36-.94.7-1.35,1.09-.1.09-.12.08-.13.23.49,0,1.25.21,1.69-.1l.36-.32c.22-.21.49-.46.68-.68l.33-.36c.15-.15.88-1,1-1.09a1.37,1.37,0,0,1-.4-.36c.05-.18.15-.18.26-.3.73-.81-.68-1.72-1.31-1a1.35,1.35,0,0,0-.24.61Z" fill="#efefef" fill-rule="evenodd"></path><path d="M46.13,19c0,.36.13.19,0,.58-.67,0-.25-.46-.75-.46s-.78.74-.41,1.22a6,6,0,0,0,.72.79l.46.33c.09.06.44.25.51.21a3.91,3.91,0,0,0,.08-1,3.29,3.29,0,0,1,0-.36c0-.78.13-.54.61-.54,0-1.87-1.29-1.42-1.29-.75Z" fill="#efefef" fill-rule="evenodd"></path><path d="M7.34,25c.48-.25,1.07-.5,1.54-.73.18-.09.33-.18.51-.25.37-.16.65-.33,1-.49s.72-.34,1-.51c-.88-1.66-4.1.48-4.1,2Z" fill="#efefef" fill-rule="evenodd"></path><path d="M6.81,29.14v.37c0,2.37,2.45.83,1.68-.32l-.09-.1c-.51-.39-.32.88-.81.05a3.76,3.76,0,0,1,0-1.7,6.2,6.2,0,0,0,.08-.74H7.6a.75.75,0,0,1-.15.24,4.75,4.75,0,0,0-.64,2.2Z" fill="#efefef" fill-rule="evenodd"></path><path d="M45.38,23.8a.87.87,0,0,0,.1.57,7.88,7.88,0,0,0,1.61-.94c.55-.41,1.62-1,1-1.86-.12,0-1.35.93-1.46,1l-.73.52-.36.26a.46.46,0,0,0-.22.43Z" fill="#efefef" fill-rule="evenodd"></path><path d="M32.88,29.07c0,.14,0,.18.09.28l.06,0c.14,0,.45-.28.55.09.25.9.31.8,1.25.42.32-.13.85-.24,1-.3.15-.65-.6-.53-1-.39-.94.34-.62,0-.62-.83C33.82,28.31,32.88,28.52,32.88,29.07Z" fill="#efefef" fill-rule="evenodd"></path><path d="M50.05,29.25c0,.49.47.29.37.89,0,.13-1.12,1.06-.07.85a2.84,2.84,0,0,0,.56-.19c.58-.26.77-.39.67-.86,0-.08-.44.06-.49,0-.13-.28.13-.38.17-.67s-1.21-.47-1.21,0Z" fill="#efefef" fill-rule="evenodd"></path><path d="M47.72,25.45c0,1,.41,1.21.63.13a2.63,2.63,0,0,0-.3-1.92c-1.29-1.15-.34,1.48-.34,1.79Z" fill="#efefef" fill-rule="evenodd"></path><path d="M29.83,21.14v.22c-.17,0-.46-.79-.59-.31,0,.2,0,.19-.13.23,0,0,0,.08-.09,0s-.06-.07-.08-.14c-.13-.59-.82.37-.27.92a1.37,1.37,0,0,0,1.67-.11c.36-.56-.51-1.47-.51-.79Z" fill="#efefef" fill-rule="evenodd"></path><path d="M39,18.41v.18c-.21,0-.18,0-.22-.21-.09-.42-.39-.31-.39.14-.33,0-.31-.62-.64-.29s-.08.85.17,1.07a1.11,1.11,0,0,0,1.52-.18C39.91,18.45,39,17.77,39,18.41Z" fill="#efefef" fill-rule="evenodd"></path><path d="M12.66,14.64c0,1.91,2.71.54,1.83-.39a.25.25,0,0,0-.36,0,.41.41,0,0,0-.07.11c-.05.14,0,.13,0,.32-.21,0-.18,0-.22-.22-.06-.34-.35-.39-.39.15-.49,0-.07-.35-.41-.41s-.35.21-.35.44Z" fill="#efefef" fill-rule="evenodd"></path><path d="M38.45,16.26c0,.65-.15.67,0,.9.16,0,.19-.09.26-.21a2.17,2.17,0,0,0,.15-.35,2,2,0,0,0-.07-1.74c-.19-.29-1-.95-1.12-.2-.06.51.78,1,.78,1.61Z" fill="#efefef" fill-rule="evenodd"></path><path d="M52.06,16.08c0,.4.06.41.26.75.48.8.4.56.39,1.29,0,.2,0,.24,0,.4,0,.33.17.25.22.25a3.56,3.56,0,0,0,.25-.61,2.38,2.38,0,0,0-.06-1.74,3.89,3.89,0,0,0-.19-.42c-.34-.55-.82-.21-.82.07Z" fill="#efefef" fill-rule="evenodd"></path><path d="M20.42,19.27a.77.77,0,0,0,.68.85.79.79,0,0,0,.69-.3A2.07,2.07,0,0,0,22,19.5a.32.32,0,0,0,.07-.39c-.74-.15-.38.74-.84-.16-.17-.34.38-.5-.07-.68s-.72.77-.72,1Z" fill="#efefef" fill-rule="evenodd"></path><path d="M8.78,16.37c.24,0,.3-.19.39-.47a1.79,1.79,0,0,0,0-1.45c-.17-.35-.66-.6-1-.25s.53,1,.56,1.34a5.76,5.76,0,0,0,0,.83Z" fill="#efefef" fill-rule="evenodd"></path><path d="M27.17,15.68c0,.46.47.33.61,0,.83-2.14-.21-2.37-.45-1.28A6.43,6.43,0,0,0,27.17,15.68Z" fill="#efefef" fill-rule="evenodd"></path><path d="M20,26.09c0,.53-.11.61,0,.83.54,0,.5-1.13.41-1.43-.31-1.15-1.4-.65-.92-.17a1.07,1.07,0,0,1,.47.77Z" fill="#efefef" fill-rule="evenodd"></path><path d="M23.76,15a.49.49,0,0,0,.85.45.7.7,0,0,0,.23-.45.41.41,0,0,0-.4,0c-.28-.59.35-.82.42-1.09s-.32-.41-.78.22A1.59,1.59,0,0,0,23.76,15Z" fill="#efefef" fill-rule="evenodd"></path></g></svg> 