<?xml version="1.0" encoding="UTF-8"?> <svg xmlns="http://www.w3.org/2000/svg" xmlns:xlink="http://www.w3.org/1999/xlink" viewBox="0 0 62.5 62.5"><defs><clipPath id="a"><rect width="62.5" height="62.5" fill="none"></rect></clipPath></defs><g clip-path="url(#a)"><path d="M-1.84,31.25H93.1V-.4H-1.84Z" fill="#ff0e29"></path><path d="M-1.84,62.89H93.1V31.25H-1.84Z" fill="#fff"></path><path d="M18.89,3.5a12.06,12.06,0,0,1,3.86.64,11.24,11.24,0,0,0,0,22.45A11.87,11.87,0,1,1,18.89,3.5Zm6.26,2.21.64,2h2.07L26.18,8.89l.65,2L25.15,9.64l-1.67,1.22.65-2L22.45,7.68h2.07l.64-2Zm6.34,4.83.64,2H34.2l-1.68,1.21.64,2-1.67-1.22-1.67,1.22.65-2-1.68-1.21h2.07l.63-2Zm-12.67,0,.63,2h2.07l-1.68,1.21.65,2-1.67-1.22-1.68,1.22.65-2-1.68-1.21h2.07l.64-2ZM21.18,18l.64,2h2.07l-1.68,1.21.64,2-1.67-1.22-1.67,1.22.65-2L18.48,20h2.07l.63-2Zm8,0,.63,2h2.07l-1.68,1.21.65,2-1.67-1.22-1.67,1.22.64-2L26.42,20h2.07l.64-2Z" fill="#ededed"></path></g></svg> 