<?xml version="1.0" encoding="UTF-8"?> <svg xmlns="http://www.w3.org/2000/svg" xmlns:xlink="http://www.w3.org/1999/xlink" viewBox="0 0 62.5 62.5"><defs><clipPath id="a"><rect width="62.5" height="62.5" fill="none"></rect></clipPath></defs><g clip-path="url(#a)"><path d="M-1.51,41.77h95V20.66h-95Z" fill="#0253aa" fill-rule="evenodd"></path><path d="M-1.51,20.66h95V-.45h-95Z" fill="#fff" fill-rule="evenodd"></path><path d="M-1.51,62.88h95V41.77h-95Z" fill="#e20313" fill-rule="evenodd"></path><path d="M19.09,48.76C13.44,46,5.35,40.46,5.35,29.55s.51-15.88.51-15.88H32.32s.51,5,.51,15.88S24.75,46,19.09,48.76Z" fill="#ededed"></path><path d="M19.09,47.31C13.9,44.75,6.48,39.7,6.48,29.69S7,15.12,7,15.12H31.23s.47,4.55.47,14.57S24.28,44.76,19.09,47.31Z" fill="#e20313"></path><path d="M20.2,27.06a19.84,19.84,0,0,0,6.59-.75s-.07.89-.07,1.92.07,1.93.07,1.93a21,21,0,0,0-6.59-.76v5.53H18V29.4a20.89,20.89,0,0,0-6.58.76s.06-.89.06-1.93-.06-1.93-.06-1.93a19.76,19.76,0,0,0,6.58.76V23.58a15.35,15.35,0,0,0-5.21.77s.07-.89.07-1.93-.07-1.93-.07-1.93a15.34,15.34,0,0,0,5.21.76,32.12,32.12,0,0,0-.69-5s1.29.1,1.81.1,1.81-.1,1.81-.1a31,31,0,0,0-.7,5,15.34,15.34,0,0,0,5.21-.76s-.06.89-.06,1.93.06,1.93.06,1.93a15.35,15.35,0,0,0-5.21-.77v3.48Z" fill="#ededed"></path><path d="M26,36.51A3.23,3.23,0,0,0,23.1,38s-1.4-3.69-4-3.69-4,3.69-4,3.69a3.22,3.22,0,0,0-2.91-1.52A3.84,3.84,0,0,0,9,38.8c2.63,4.26,6.81,6.89,10.1,8.51,3.29-1.62,7.48-4.25,10.1-8.51A3.84,3.84,0,0,0,26,36.51Z" fill="#0253aa"></path></g></svg> 