<?xml version="1.0" encoding="UTF-8"?> <svg xmlns="http://www.w3.org/2000/svg" xmlns:xlink="http://www.w3.org/1999/xlink" viewBox="0 0 62.5 62.5"><defs><clipPath id="a"><rect x="6.8" y="6.8" width="48.89" height="48.89" fill="none"></rect></clipPath></defs><rect width="62.5" height="62.5" fill="#fff"></rect><g clip-path="url(#a)"><rect x="-5.75" y="6.58" width="74" height="49.34" fill="#fff"></rect><path d="M35.9,20.79c-6-2.61-13.27.35-15.32,6.22,0,3.44,1.31,5.59,3.78,6.43,2.84,1,4.93.23,7.19-2.57a6,6,0,0,1,6.51-1.81c2.64,1,3.78,3.08,3.67,6.77h0C44.58,30.64,41.74,23.32,35.9,20.79Z" fill="#e80000"></path><path d="M38.06,29.06a6,6,0,0,0-6.51,1.81c-2.25,2.79-4.35,3.54-7.19,2.57-2.47-.84-3.74-3-3.78-6.43a11.27,11.27,0,0,0,6.29,14.82c5.89,2.34,12.79-.45,14.86-6h0C41.84,32.14,40.7,30,38.06,29.06Z" fill="#0034b7"></path><path d="M13.6,12.76l1.52,1.07c-4,6-2.35,3.46-6.35,9.42l-1.56-1Zm3.93,2.66L16,14.36,9.62,23.83l1.55,1ZM12,25.43l1.57,1L20,17,18.4,16,12,25.43Z" fill="#0a0a0a"></path><path d="M15.12,48.67,13.6,49.74,7.23,40.29l1.51-1.06ZM13.58,36.08,12,37.1l6.37,9.43,1.56-1ZM12.49,43c.52-.38,1-.67,1.56-1.06l-2.89-4.26-1.55,1c1,1.47,1.89,2.82,2.88,4.3ZM16,48.18l1.55-1.07c-1-1.46-2-2.87-3-4.31-.54.39-1,.66-1.55,1,1,1.46,2,2.87,2.95,4.34Z" fill="#0a0a0a"></path><path d="M52.86,23.81l-1.52,1.05L45,15.44l1.49-1.11ZM51.8,17l-2.91-4.29-1.5,1.1,2.86,4.27Zm2,6.23,1.53-1.06-2.92-4.3L50.83,19ZM47.56,21.1l-1.55,1,2.89,4.31,1.6-1ZM47,20.24l-2.92-4.3-1.53,1,2.93,4.31Z" fill="#0a0a0a"></path><path d="M52.36,44.61c-.56-.4-1-.65-1.52-1,1-1.42,1.88-2.83,2.88-4.32l1.57,1Zm-2.12-.22L47.37,48.7l1.53,1,2.9-4.29Zm1.09-6.73c-1,1.41-2,2.91-2.94,4.28.78.54,1.07.72,1.58,1.05l2.92-4.32Zm-.85-.58-1.58-1L46,40.37l1.54,1ZM45,47.08l1.54,1.08,2.9-4.33c-.53-.39-1-.66-1.54-1Zm2-4.85-1.54-1c-1,1.47-1.93,2.85-2.91,4.28l1.56,1Z" fill="#0a0a0a"></path></g></svg> 