<?xml version="1.0" encoding="UTF-8"?> <svg xmlns="http://www.w3.org/2000/svg" xmlns:xlink="http://www.w3.org/1999/xlink" viewBox="0 0 62.5 62.5"><defs><clipPath id="a"><rect x="-93.46" width="62.5" height="62.5" fill="none"></rect></clipPath><clipPath id="b"><rect width="62.5" height="62.5" fill="none"></rect></clipPath></defs><g clip-path="url(#a)"><path d="M-95,41.77H0V20.66H-95Z" fill="#0253aa" fill-rule="evenodd"></path><path d="M-95,20.66H0V-.45H-95Z" fill="#fff" fill-rule="evenodd"></path><path d="M-95,62.88H0V41.77H-95Z" fill="#e20313" fill-rule="evenodd"></path></g><g clip-path="url(#b)"><path d="M86.25,41.78H42L10.42,62.86H86.26V37.57h0v4.21Z" fill="#2721a3"></path><path d="M10.42-.36,42,20.71H86.25v4.22h0V-.36Z" fill="#f40000"></path><path d="M63.51,37.57H40.75L2.82,62.86h7.6L42,41.78H86.25V37.57Z" fill="#f5f4f4"></path><path d="M42,20.71,10.42-.36H2.83L40.76,24.93h45.5V20.71Z" fill="#f5f4f4"></path><path d="M19.85,31.25-8.57,12.3V50.19L19.85,31.25Z" fill="#020105"></path><path d="M-8.57,7.24V12.3l28.42,19h0L-8.57,50.19v5.07l36-24Z" fill="#ffc91d"></path><path d="M40.76,37.57H86.25V24.93H40.75L2.82-.36H-8.57v7.6l36,24-36,24v7.6H2.82Z" fill="#11933c"></path></g></svg> 