<?xml version="1.0" encoding="UTF-8"?> <svg xmlns="http://www.w3.org/2000/svg" xmlns:xlink="http://www.w3.org/1999/xlink" viewBox="0 0 62.5 62.5"><defs><clipPath id="a"><rect width="62.5" height="62.5" fill="none"></rect></clipPath></defs><g clip-path="url(#a)"><rect x="-11.18" y="-0.49" width="95.09" height="15.85" fill="#e00505"></rect><rect x="-11.18" y="47.06" width="95.09" height="15.85" fill="#e00505"></rect><rect x="-11.18" y="15.36" width="95.09" height="31.7" fill="#fdd003"></rect><path d="M33.47,27.46a0,0,0,0,0,0,0,.32.32,0,0,0,0-.14.38.38,0,0,0-.37-.38h0a.38.38,0,0,0-.21.07s0,0,0,0h0s0,0,0,0a.31.31,0,0,1,.19-.06.35.35,0,0,1,.34.35.51.51,0,0,1,0,.13,0,0,0,0,0,0,0Z"></path><path d="M32.85,27.33h0a.32.32,0,0,0,0-.14.38.38,0,0,0-.38-.38.37.37,0,0,0-.2.07s0,0,0,0h0a.33.33,0,0,1,.19-.06.34.34,0,0,1,.34.35.3.3,0,0,1,0,.13s0,0,0,0Z"></path><path d="M31.44,27.33h0a.38.38,0,0,1,.21-.49.32.32,0,0,1,.14,0,.4.4,0,0,1,.21.07v0h0a.33.33,0,0,0-.19-.06.35.35,0,0,0-.35.35.31.31,0,0,0,0,.13s0,0,0,0Z"></path><path d="M12.26,27.73a.16.16,0,0,1-.1,0L12,27.59l-.08-.06-.08-.1a.37.37,0,0,1,0-.27A.33.33,0,0,1,12,27l.2-.07.15-.06.16,0,.07,0,.12,0a.32.32,0,0,1,.14,0h.83l.19.05.27.1.29.08a.4.4,0,0,1,.15.14.38.38,0,0,1,.06.13.33.33,0,0,1,0,.14l-.07.11-.08.12-.1.09s-.07.07-.13.06a6.78,6.78,0,0,0-1-.11A7.81,7.81,0,0,0,12.26,27.73Z" fill="#e00505" stroke="#000" stroke-miterlimit="10" stroke-width="0.11" fill-rule="evenodd"></path><path d="M13.41,26.9c0-.17-.08-.32-.18-.32s-.17.15-.17.32.08.32.17.32S13.41,27.08,13.41,26.9Z" fill="#c3ac00" stroke="#000" stroke-miterlimit="22.93" stroke-width="0.07" fill-rule="evenodd"></path><path d="M13.31,26.9c0-.16,0-.29-.08-.29s-.08.13-.08.29,0,.29.08.29S13.31,27.07,13.31,26.9Z" fill="#c3ac00" stroke="#000" stroke-miterlimit="22.93" stroke-width="0.07" fill-rule="evenodd"></path><path d="M13.35,26.57a.12.12,0,0,0-.11-.13.12.12,0,0,0-.12.11.12.12,0,0,0,.11.13h0A.11.11,0,0,0,13.35,26.57Z" fill="#c3ac00" fill-rule="evenodd"></path><path d="M13.4,26.53v.07h-.32v-.07h.11v-.17h-.07v-.07h.07v-.07h.08v.07h.08v.07h-.08v.17Z" fill="#c3ac00" stroke="#000" stroke-miterlimit="22.93" stroke-width="0.08" fill-rule="evenodd"></path><path d="M13.27,26.46a.11.11,0,0,1,.08.14.12.12,0,0,1-.15.08.11.11,0,0,1-.08-.14.11.11,0,0,1,.08-.08Z" fill="none" stroke="#000" stroke-miterlimit="22.93" stroke-width="0.07"></path><path d="M13.23,27.71h-.61v-.15l0-.15,0-.2c-.17-.22-.32-.36-.37-.33a.11.11,0,0,1,.06-.09c.15-.09.45.12.69.47a.47.47,0,0,1,.05.1h.51l.06-.1c.23-.35.54-.56.69-.47a.15.15,0,0,1,.06.09c-.05,0-.2.11-.38.33l0,.2,0,.15v.15Z" fill="#c3ac00" stroke="#000" stroke-miterlimit="22.93" stroke-width="0.07" fill-rule="evenodd"></path><path d="M13.68,27.35h0c.19-.3.42-.49.56-.49h.06l0,0C14.15,26.82,13.9,27,13.68,27.35Zm-.89,0c-.2-.31-.47-.53-.58-.47v0c.12-.07.39.14.62.48Z"></path><path d="M12.33,28a.61.61,0,0,0-.07-.14,4,4,0,0,1,2,0l-.07.12a.93.93,0,0,0-.05.1,2.78,2.78,0,0,0-.86-.1,2.89,2.89,0,0,0-.87.11Z" fill="#c3ac00" stroke="#000" stroke-miterlimit="22.93" stroke-width="0.07" fill-rule="evenodd"></path><path d="M13.23,28.3a4.13,4.13,0,0,0,.78-.08c.08,0,.13-.06.12-.1a.08.08,0,0,0-.05-.05,3.75,3.75,0,0,0-1.7,0,.12.12,0,0,0-.05.05s0,.08.13.1A3.94,3.94,0,0,0,13.23,28.3Z" fill="#c3ac00" stroke="#000" stroke-miterlimit="22.93" stroke-width="0.07" fill-rule="evenodd"></path><path d="M14.22,27.71l-.07-.06a.45.45,0,0,1-.16,0c-.09,0-.12-.13-.12-.13a.27.27,0,0,1-.18.08.18.18,0,0,1-.14-.08.27.27,0,0,1-.17.06.25.25,0,0,1-.15-.1.32.32,0,0,1-.16.11.17.17,0,0,1-.14-.07.19.19,0,0,1-.14.09.24.24,0,0,1-.19-.08.34.34,0,0,1-.12.12.19.19,0,0,1-.16,0l0,.06,0,0,0,.06a3.38,3.38,0,0,1,1-.11,3.53,3.53,0,0,1,1,.11Z" fill="#c3ac00" stroke="#000" stroke-miterlimit="22.93" stroke-width="0.07" fill-rule="evenodd"></path><path d="M13.23,27.39h0s0,0,0,.05a.14.14,0,0,0,.15.13.13.13,0,0,0,.13-.09s0-.05,0-.05v.05a.13.13,0,0,0,.16.11.12.12,0,0,0,.11-.13h0l.05-.05,0,.06a.13.13,0,0,0,0,.06.12.12,0,0,0,.13.12h0a.16.16,0,0,0,.11-.05l0,0v.05s0,.08.06.09a.22.22,0,0,0,.11-.05.47.47,0,0,0,.1-.1v.06a.53.53,0,0,1-.12.14.24.24,0,0,1-.12,0,.11.11,0,0,1-.08-.08.19.19,0,0,1-.1,0,.19.19,0,0,1-.18-.11.22.22,0,0,1-.15.06.2.2,0,0,1-.16-.07.24.24,0,0,1-.14,0,.21.21,0,0,1-.17-.08.21.21,0,0,1-.17.08.24.24,0,0,1-.14,0,.19.19,0,0,1-.16.07.18.18,0,0,1-.14-.06.2.2,0,0,1-.28.08h0a.14.14,0,0,1-.09.08.27.27,0,0,1-.12,0A.86.86,0,0,1,12,27.6v-.06l.1.1a.22.22,0,0,0,.12.05.09.09,0,0,0,.06-.09v-.05l0,0a.13.13,0,0,0,.11.05.12.12,0,0,0,.13-.12h0a.13.13,0,0,0,0-.06l0-.06,0,.05h0a.15.15,0,0,0,.15.14.14.14,0,0,0,.13-.12v-.05s0,.05,0,.05a.13.13,0,0,0,.13.09.13.13,0,0,0,.14-.13h0v-.05Z" fill="#c3ac00" stroke="#000" stroke-miterlimit="22.93" stroke-width="0.07" fill-rule="evenodd"></path><path d="M13.23,27.73a4,4,0,0,0-1,.12s0,0,0,0,0,0,0,0a4,4,0,0,1,2,0s0,0,0,0a0,0,0,0,1,0,0A4,4,0,0,0,13.23,27.73Z" fill="#c3ac00" stroke="#000" stroke-linejoin="round" stroke-width="0.07" fill-rule="evenodd"></path><path d="M11.93,27.57a.44.44,0,0,0-.08-.09.2.2,0,0,0-.08,0,.08.08,0,0,1,.07,0,.09.09,0,0,1,.06,0v0l0,.05a.14.14,0,0,1,0,.09S11.94,27.56,11.93,27.57Z" fill="#c3ac00" stroke="#000" stroke-miterlimit="22.93" stroke-width="0.07" fill-rule="evenodd"></path><path d="M12.17,27.47v.09l-.18,0,0,0v0l.14-.11Z" fill="#c3ac00" fill-rule="evenodd"></path><path d="M12.17,27.47v.09l-.18,0,0,0v0l.14-.11Z" fill="none" stroke="#000" stroke-miterlimit="22.93" stroke-width="0.07"></path><path d="M11.94,27.55s.05,0,.06,0a.05.05,0,0,1,0,.07.06.06,0,0,1-.07,0S11.92,27.56,11.94,27.55Z" fill="#c3ac00" stroke="#000" stroke-miterlimit="22.93" stroke-width="0.07" fill-rule="evenodd"></path><path d="M12.27,27.56a0,0,0,0,1,0,0s.05,0,.05,0,0,.05,0,.05S12.27,27.58,12.27,27.56Z" fill="#c3ac00" stroke="#000" stroke-miterlimit="22.93" stroke-width="0.07" fill-rule="evenodd"></path><path d="M12.35,27.45l.06.07.15-.09,0,0,0,0h-.17Z" fill="#c3ac00" fill-rule="evenodd"></path><path d="M12.35,27.45l.06.07.15-.09,0,0,0,0h-.17Z" fill="none" stroke="#000" stroke-miterlimit="22.93" stroke-width="0.07"></path><path d="M12.52,27.17l-.08.08.11.14h0l0,0,0-.17Z" fill="#c3ac00" fill-rule="evenodd"></path><path d="M12.52,27.17l-.08.08.11.14h0l0,0,0-.17Z" fill="none" stroke="#000" stroke-miterlimit="22.93" stroke-width="0.07"></path><path d="M12.81,27.36l0,.08-.18,0,0,0v0l.16-.09Z" fill="#c3ac00" fill-rule="evenodd"></path><path d="M12.81,27.36l0,.08-.18,0,0,0v0l.16-.09Z" fill="none" stroke="#000" stroke-miterlimit="22.93" stroke-width="0.07"></path><path d="M12.64,27.41a.06.06,0,0,0-.06-.06h0a.06.06,0,0,0-.06.06h0a.06.06,0,0,0,.06.06h0A.06.06,0,0,0,12.64,27.41Z" fill="#c3ac00" stroke="#000" stroke-miterlimit="22.93" stroke-width="0.07" fill-rule="evenodd"></path><path d="M12.88,27.44a0,0,0,0,1,0-.05,0,0,0,0,1,0,.05s0,0,0,0S12.88,27.47,12.88,27.44Z" fill="#c3ac00" stroke="#000" stroke-miterlimit="22.93" stroke-width="0.07" fill-rule="evenodd"></path><path d="M13,27.35l0,.08.17-.06,0,0,0,0L13,27.27Z" fill="#c3ac00" fill-rule="evenodd"></path><path d="M13,27.35l0,.08.17-.06,0,0,0,0L13,27.27Z" fill="none" stroke="#000" stroke-miterlimit="22.93" stroke-width="0.07"></path><path d="M13.23,27.09l-.11.06.08.18,0,0,0,0,.08-.18Z" fill="#c3ac00" stroke="#000" stroke-miterlimit="22.93" stroke-width="0.07" fill-rule="evenodd"></path><path d="M13.47,27.35l-.05.08-.17-.06,0,0,0,0,.17,0Z" fill="#c3ac00" stroke="#000" stroke-miterlimit="22.93" stroke-width="0.07" fill-rule="evenodd"></path><path d="M13.3,27.35a.07.07,0,0,0-.07-.06h0a.08.08,0,0,0-.07.05.07.07,0,0,0,.06.07h0a.07.07,0,0,0,.07-.06Z" fill="#c3ac00" stroke="#000" stroke-miterlimit="22.93" stroke-width="0.07" fill-rule="evenodd"></path><path d="M13.59,27.44a.05.05,0,0,0,0-.05s0,0,0,.05,0,0,0,0S13.59,27.47,13.59,27.44Z" fill="#c3ac00" stroke="#000" stroke-miterlimit="22.93" stroke-width="0.07" fill-rule="evenodd"></path><path d="M13.65,27.36l0,.08.17,0,0,0,0,0-.15-.09Z" fill="#c3ac00" fill-rule="evenodd"></path><path d="M13.65,27.36l0,.08.17,0,0,0,0,0-.15-.09Z" fill="none" stroke="#000" stroke-miterlimit="22.93" stroke-width="0.07"></path><path d="M13.94,27.17l.09.08-.11.14h0l0,0,0-.17Z" fill="#c3ac00" fill-rule="evenodd"></path><path d="M13.94,27.17l.09.08-.11.14h0l0,0,0-.17Z" fill="none" stroke="#000" stroke-miterlimit="22.93" stroke-width="0.07"></path><path d="M14.12,27.45l-.06.07-.16-.09v0l0,0h.18Z" fill="#c3ac00" fill-rule="evenodd"></path><path d="M14.12,27.45l-.06.07-.16-.09v0l0,0h.18Z" fill="none" stroke="#000" stroke-miterlimit="22.93" stroke-width="0.07"></path><path d="M14,27.41a.06.06,0,1,0-.12,0,.06.06,0,1,0,.12,0Z" fill="#c3ac00" stroke="#000" stroke-miterlimit="22.93" stroke-width="0.07" fill-rule="evenodd"></path><path d="M14.2,27.56a0,0,0,0,0,0,0s0,0,0,0,0,.05,0,.05S14.2,27.58,14.2,27.56Z" fill="#c3ac00" stroke="#000" stroke-miterlimit="22.93" stroke-width="0.07" fill-rule="evenodd"></path><path d="M14.51,27.57l.08-.09.09,0a.1.1,0,0,0-.08,0,.09.09,0,0,0-.06,0v0a.1.1,0,0,0,0,.05.14.14,0,0,0,0,.09A0,0,0,0,0,14.51,27.57Z" fill="#c3ac00" stroke="#000" stroke-miterlimit="22.93" stroke-width="0.07" fill-rule="evenodd"></path><path d="M14.27,27.47v.09l.18,0,0,0v0l-.13-.11Z" fill="#c3ac00" fill-rule="evenodd"></path><path d="M14.27,27.47v.09l.18,0,0,0v0l-.13-.11Z" fill="none" stroke="#000" stroke-miterlimit="22.93" stroke-width="0.07"></path><path d="M14.51,27.55a0,0,0,0,0-.07,0,.07.07,0,0,0,0,.07s.06,0,.07,0S14.52,27.56,14.51,27.55Z" fill="#c3ac00" stroke="#000" stroke-miterlimit="22.93" stroke-width="0.07" fill-rule="evenodd"></path><path d="M12.27,28l0-.06.08,0-.05.07Z" fill="#e00505" stroke="#000" stroke-miterlimit="10" stroke-width="0.11" fill-rule="evenodd"></path><path d="M12.62,27.93l-.09,0a0,0,0,0,1,0,0s0,0,0,0h.09l.09,0a.05.05,0,0,1,.05,0,0,0,0,0,1,0,.05Z" fill="#00874a" fill-rule="evenodd"></path><path d="M12.62,27.93l-.09,0a0,0,0,0,1,0,0s0,0,0,0h.09l.09,0a.05.05,0,0,1,.05,0,0,0,0,0,1,0,.05Z" fill="none" stroke="#000" stroke-miterlimit="22.93" stroke-width="0.07"></path><path d="M13,27.87a.05.05,0,0,0-.05-.06.06.06,0,1,0,0,.11h0a0,0,0,0,0,.05-.05Z" fill="#ededed" stroke="#000" stroke-miterlimit="22.93" stroke-width="0.07" fill-rule="evenodd"></path><path d="M13.24,27.89h-.12a0,0,0,0,1,0-.08h.24a0,0,0,0,1,0,.08Z" fill="#e00505" stroke="#000" stroke-miterlimit="10" stroke-width="0.11" fill-rule="evenodd"></path><path d="M13.6,27.87a0,0,0,0,0,0-.05h0a0,0,0,0,0-.06,0s0,.05,0,.06h0A0,0,0,0,0,13.6,27.87Z" fill="#ededed" stroke="#000" stroke-miterlimit="22.93" stroke-width="0.07" fill-rule="evenodd"></path><path d="M13.84,27.93l.09,0s.05,0,.05,0,0,0,0,0h-.09l-.09,0a.05.05,0,0,0,0,0s0,.05,0,.05h.09Z" fill="#00874a" fill-rule="evenodd"></path><path d="M13.84,27.93l.09,0s.05,0,.05,0,0,0,0,0h-.09l-.09,0a.05.05,0,0,0,0,0s0,.05,0,.05h.09Z" fill="none" stroke="#000" stroke-miterlimit="22.93" stroke-width="0.07"></path><path d="M14.19,28l0-.07h-.08l0,.07Z" fill="#e00505" fill-rule="evenodd"></path><path d="M14.19,28l0-.07h-.08l0,.07Z" fill="none" stroke="#000" stroke-miterlimit="22.93" stroke-width="0.07"></path><path d="M13.23,28.23a3.06,3.06,0,0,1-.8-.08,3.6,3.6,0,0,1,1.6,0A3.06,3.06,0,0,1,13.23,28.23Z" fill="#e00505" stroke="#000" stroke-miterlimit="10" stroke-width="0.11" fill-rule="evenodd"></path><path d="M12.91,28.21Zm0,0v0Z" fill="none" stroke="#000" stroke-miterlimit="22.93" stroke-width="0.02"></path><path d="M12.82,28.21Zm0,0Zm0,0Z" fill="none" stroke="#000" stroke-miterlimit="22.93" stroke-width="0.02"></path><path d="M12.67,28.19Zm0,0Z" fill="none" stroke="#000" stroke-miterlimit="22.93" stroke-width="0.03"></path><path d="M15.21,41.48a1,1,0,0,1-.5-.11,1.25,1.25,0,0,0-1,0,1,1,0,0,1-.5.11,1.1,1.1,0,0,1-.5-.11,1,1,0,0,0-.48-.1,1.05,1.05,0,0,0-.49.1,1.18,1.18,0,0,1-.5.11v.3a.94.94,0,0,0,.5-.11,1.19,1.19,0,0,1,.49-.1,1.12,1.12,0,0,1,.48.1,1.17,1.17,0,0,0,1,0,1.25,1.25,0,0,1,1,0,1.25,1.25,0,0,0,.5.11Z" fill="#0c51bf" stroke="#000" stroke-miterlimit="22.93" stroke-width="0.16" fill-rule="evenodd"></path><path d="M15.21,41.79a1.25,1.25,0,0,1-.5-.11,1.25,1.25,0,0,0-1,0,1.17,1.17,0,0,1-1,0,1.12,1.12,0,0,0-.48-.1,1.19,1.19,0,0,0-.49.1.94.94,0,0,1-.5.11v.31a1.18,1.18,0,0,0,.5-.11,1.05,1.05,0,0,1,.49-.1,1,1,0,0,1,.48.1,1.19,1.19,0,0,0,1,0,1.25,1.25,0,0,1,1,0,1,1,0,0,0,.5.11Z" fill="#ededed" stroke="#000" stroke-miterlimit="22.93" stroke-width="0.1" fill-rule="evenodd"></path><path d="M15.21,42.09a1.09,1.09,0,0,1-.5-.1,1.15,1.15,0,0,0-1,0,1.09,1.09,0,0,1-.5.1,1,1,0,0,1-.5-.11,1.12,1.12,0,0,0-.48-.1,1.05,1.05,0,0,0-.49.1,1,1,0,0,1-.5.11v.31a1.06,1.06,0,0,0,.5-.12,1.19,1.19,0,0,1,.49-.1,1.29,1.29,0,0,1,.48.1,1.11,1.11,0,0,0,.5.12,1.1,1.1,0,0,0,.5-.11,1.25,1.25,0,0,1,1,0,1.1,1.1,0,0,0,.5.11Z" fill="#0c51bf" stroke="#000" stroke-miterlimit="22.93" stroke-width="0.16" fill-rule="evenodd"></path><path d="M15.21,42.7a1,1,0,0,1-.5-.11,1.25,1.25,0,0,0-1,0,1.19,1.19,0,0,1-1,0,1.12,1.12,0,0,0-.48-.1,1.05,1.05,0,0,0-.49.1,1,1,0,0,1-.5.11v-.3a1.06,1.06,0,0,0,.5-.12,1.19,1.19,0,0,1,.49-.1,1.12,1.12,0,0,1,.48.1,1.11,1.11,0,0,0,.5.12,1.25,1.25,0,0,0,.5-.11,1.15,1.15,0,0,1,1,0,1.25,1.25,0,0,0,.5.11Z" fill="#ededed" stroke="#000" stroke-miterlimit="22.93" stroke-width="0.1" fill-rule="evenodd"></path><path d="M15.21,42.7a1,1,0,0,1-.5-.11,1.25,1.25,0,0,0-1,0,1.19,1.19,0,0,1-1,0,1.12,1.12,0,0,0-.48-.1,1.05,1.05,0,0,0-.49.1,1,1,0,0,1-.5.11v-.3a1.06,1.06,0,0,0,.5-.12,1.19,1.19,0,0,1,.49-.1,1.12,1.12,0,0,1,.48.1,1.11,1.11,0,0,0,.5.12,1.25,1.25,0,0,0,.5-.11,1.15,1.15,0,0,1,1,0,1.25,1.25,0,0,0,.5.11Z" fill="none" stroke="#000" stroke-miterlimit="22.93" stroke-width="0.1"></path><path d="M15.21,43a1.1,1.1,0,0,1-.5-.11,1.25,1.25,0,0,0-1,0,1.1,1.1,0,0,1-.5.11,1.25,1.25,0,0,1-.5-.11,1.13,1.13,0,0,0-.48-.11,1.06,1.06,0,0,0-.49.11,1.18,1.18,0,0,1-.5.11V42.7a1,1,0,0,0,.5-.11,1.05,1.05,0,0,1,.49-.1,1.12,1.12,0,0,1,.48.1,1.19,1.19,0,0,0,1,0,1.25,1.25,0,0,1,1,0,1,1,0,0,0,.5.11Z" fill="#0c51bf" stroke="#000" stroke-miterlimit="22.93" stroke-width="0.16" fill-rule="evenodd"></path><path d="M12.12,40.23a.19.19,0,0,1,0,.08.35.35,0,0,1-.36.33h2.91a.33.33,0,0,1-.35-.33h0a.19.19,0,0,1,0-.08H12.12Z" fill="#c3ac00" stroke="#000" stroke-linejoin="round" stroke-width="0.1" fill-rule="evenodd"></path><path d="M12.18,40h2.11c.07,0,.13,0,.13.1a.11.11,0,0,1-.13.1H12.18a.1.1,0,1,1,0-.2Z" fill="#c3ac00" stroke="#000" stroke-miterlimit="22.93" stroke-width="0.1" fill-rule="evenodd"></path><rect x="11.79" y="40.64" width="2.9" height="0.74" fill="#c3ac00" stroke="#000" stroke-miterlimit="22.93" stroke-width="0.1"></rect><rect x="12.2" y="29.82" width="2.06" height="10.1" fill="#ededed" stroke="#000" stroke-miterlimit="22.93" stroke-width="0.1"></rect><rect x="11.83" y="28.28" width="2.83" height="0.74" fill="#c3ac00" stroke="#000" stroke-miterlimit="22.93" stroke-width="0.1"></rect><path d="M12.12,29.51h2.23a.2.2,0,0,1-.13-.17.21.21,0,0,1,.13-.17H12.13a.16.16,0,0,1,.12.16A.17.17,0,0,1,12.12,29.51Z" fill="#c3ac00" stroke="#000" stroke-linejoin="round" stroke-width="0.1" fill-rule="evenodd"></path><path d="M12.18,29.5h2.11a.11.11,0,1,1,0,.21H12.18a.11.11,0,0,1-.11-.1.1.1,0,0,1,.1-.11Z" fill="#c3ac00" stroke="#000" stroke-miterlimit="22.93" stroke-width="0.1" fill-rule="evenodd"></path><path d="M12.18,29h2.11c.08,0,.13,0,.13.08s-.06.09-.13.09H12.18c-.08,0-.13,0-.13-.09S12.1,29,12.18,29Z" fill="#c3ac00" stroke="#000" stroke-miterlimit="22.93" stroke-width="0.1" fill-rule="evenodd"></path><path d="M11.56,37.42c-.29.16-.48.33-.45.42s.1.13.24.22.33.4.23.52a.75.75,0,0,0,.28-.57A.72.72,0,0,0,11.56,37.42Z" fill="#e00505" stroke="#000" stroke-miterlimit="10" stroke-width="0.11" fill-rule="evenodd"></path><path d="M16.37,33.6a6,6,0,0,0-3.08-.27c-1.23.2-2.17.7-2.1,1.1v0s-.46-1-.47-1.08c-.08-.44,1-1,2.33-1.22a7,7,0,0,1,1.21-.09,6.4,6.4,0,0,1,2.09.28Z" fill="#e00505" fill-rule="evenodd"></path><path d="M16.37,33.6a6,6,0,0,0-3.08-.27c-1.23.2-2.17.7-2.1,1.1v0s-.46-1-.47-1.08c-.08-.44,1-1,2.33-1.22a7,7,0,0,1,1.21-.09,6.4,6.4,0,0,1,2.09.28Z" fill="none" stroke="#000" stroke-linejoin="round" stroke-width="0.1"></path><path d="M12.2,34.86c-.57,0-1-.19-1-.43s.16-.41.51-.59l.51,0Z" fill="#e00505" stroke="#000" stroke-miterlimit="10" stroke-width="0.11" fill-rule="evenodd"></path><path d="M14.27,34.09a1.71,1.71,0,0,1,.76.25v0c.06.13-.25.41-.78.72Z" fill="#e00505" stroke="#000" stroke-miterlimit="10" stroke-width="0.11" fill-rule="evenodd"></path><path d="M10.92,36.81c-.06-.16.51-.49,1.29-.78.36-.13.66-.26,1-.42,1.09-.49,1.9-1,1.8-1.24v0a9.48,9.48,0,0,1,.15,1c.1.18-.64.73-1.65,1.21-.32.16-1,.41-1.32.52-.58.21-1.15.58-1.1.71Z" fill="#e00505" stroke="#000" stroke-miterlimit="10" stroke-width="0.11" fill-rule="evenodd"></path><path d="M32.15,27.5a.61.61,0,0,1-.16.12c-.07,0-.16-.07-.16-.07a.26.26,0,0,1-.13.08c-.08,0-.18-.08-.18-.08a.86.86,0,0,1-.14.13.22.22,0,0,1-.14,0,.22.22,0,0,1-.09.07.06.06,0,0,1-.06,0l-.07,0-.09-.09-.08,0s0-.12,0-.14v-.07c0-.08.11-.18.29-.22a.62.62,0,0,1,.27,0,.63.63,0,0,1,.4-.1.66.66,0,0,1,.39.09.87.87,0,0,1,.79,0,.57.57,0,0,1,.26,0c.18,0,.31.14.29.22a.23.23,0,0,1,0,.07,1.27,1.27,0,0,1,0,.14l-.08,0-.08.09-.08,0a.06.06,0,0,1-.06,0,.18.18,0,0,1-.08-.07.22.22,0,0,1-.14,0,.58.58,0,0,1-.14-.13s-.1.1-.18.08a.29.29,0,0,1-.14-.08s-.08.08-.15.07A.48.48,0,0,1,32.15,27.5Z" fill="#e00505" stroke="#000" stroke-miterlimit="10" stroke-width="0.11" fill-rule="evenodd"></path><path d="M32.31,27c0-.13-.07-.24-.17-.24S32,26.83,32,27s.08.25.18.25S32.31,27.11,32.31,27Z" fill="#c3ac00" stroke="#000" stroke-miterlimit="22.93" stroke-width="0.07" fill-rule="evenodd"></path><path d="M32.23,27c0-.12,0-.23-.08-.23s-.08.11-.08.23,0,.23.08.23S32.23,27.09,32.23,27Z" fill="#c3ac00" stroke="#000" stroke-miterlimit="22.93" stroke-width="0.07" fill-rule="evenodd"></path><path d="M32.26,26.68a.11.11,0,0,0-.11-.11h0a.12.12,0,0,0-.13.1.11.11,0,0,0,.1.12h0a.1.1,0,0,0,.11-.11Z" fill="#c3ac00" fill-rule="evenodd"></path><path d="M32.18,26.58a.1.1,0,0,1,.08.1.12.12,0,0,1-.13.11.12.12,0,0,1-.1-.11.11.11,0,0,1,.09-.1Z" fill="none" stroke="#000" stroke-miterlimit="22.93" stroke-width="0.07"></path><path d="M32.31,26.64v.08H32v-.08h.12v-.16H32V26.4h.08v-.07h.08v.07h.08v.08h-.08v.16Z" fill="#c3ac00" stroke="#000" stroke-miterlimit="22.93" stroke-width="0.08" fill-rule="evenodd"></path><path d="M31.25,28a.61.61,0,0,0-.07-.14,4,4,0,0,1,1.94,0l-.06.12a.31.31,0,0,0-.05.1,2.78,2.78,0,0,0-.86-.1,2.81,2.81,0,0,0-.87.11Z" fill="#c3ac00" stroke="#000" stroke-linejoin="round" stroke-width="0.07" fill-rule="evenodd"></path><path d="M32.15,28.31a3.94,3.94,0,0,0,.77-.08c.08,0,.13-.06.13-.1a.12.12,0,0,0,0-.05,3.75,3.75,0,0,0-1.7,0,.08.08,0,0,0-.05.05s0,.08.12.1A4.13,4.13,0,0,0,32.15,28.31Z" fill="#c3ac00" stroke="#000" stroke-linecap="round" stroke-linejoin="round" stroke-width="0.07" fill-rule="evenodd"></path><path d="M33.14,27.72l-.08-.06a.41.41,0,0,1-.16,0c-.09,0-.12-.13-.12-.13a.25.25,0,0,1-.18.08.18.18,0,0,1-.13-.08.27.27,0,0,1-.17.06.34.34,0,0,1-.16-.1s-.08.1-.15.11a.21.21,0,0,1-.15-.07.2.2,0,0,1-.13.09.27.27,0,0,1-.19-.08.3.3,0,0,1-.13.12.17.17,0,0,1-.15,0l0,.06a.05.05,0,0,1,0,0l0,.06a3.5,3.5,0,0,1,1-.11,3.45,3.45,0,0,1,1,.11Z" fill="#c3ac00" stroke="#000" stroke-miterlimit="22.93" stroke-width="0.07" fill-rule="evenodd"></path><path d="M32.15,27.39h0a.09.09,0,0,0,0,.05.13.13,0,0,0,.14.13h0a.15.15,0,0,0,.14-.09v0s0,0,0,0a.14.14,0,0,0,.14.12.14.14,0,0,0,.14-.14h0l.05-.05,0,.06a.13.13,0,0,0,0,.06.12.12,0,0,0,.13.12h0a.13.13,0,0,0,.11,0l0,0v.05a.09.09,0,0,0,.06.09.22.22,0,0,0,.12-.05.47.47,0,0,0,.1-.1v.06a.53.53,0,0,1-.12.14.27.27,0,0,1-.12,0A.12.12,0,0,1,33,27.7a.17.17,0,0,1-.1,0,.19.19,0,0,1-.18-.11.2.2,0,0,1-.15.06.22.22,0,0,0-.3,0,.19.19,0,0,0-.28-.05.12.12,0,0,0-.05.05.2.2,0,0,1-.14-.05.24.24,0,0,1-.16.07.2.2,0,0,1-.15-.06.19.19,0,0,1-.18.11.17.17,0,0,1-.1,0,.12.12,0,0,1-.09.08.27.27,0,0,1-.12,0,.86.86,0,0,1-.13-.14v-.06a.94.94,0,0,0,.1.1.31.31,0,0,0,.12.05.08.08,0,0,0,.06-.09v-.05l0,0a.16.16,0,0,0,.11,0,.13.13,0,0,0,.14-.12h0a.14.14,0,0,0,0-.06l0-.06,0,.05h0a.15.15,0,0,0,.15.14.14.14,0,0,0,.13-.12v0s0,0,0,0a.13.13,0,0,0,.13.09.13.13,0,0,0,.14-.13h0a.09.09,0,0,0,0-.05Z" fill="#c3ac00" stroke="#000" stroke-linecap="round" stroke-miterlimit="22.93" stroke-width="0.07" fill-rule="evenodd"></path><path d="M32.15,27.74a3.91,3.91,0,0,0-1,.12s0,0-.05,0,0,0,0,0a3.91,3.91,0,0,1,2,0s0,0,0,0,0,0,0,0A4,4,0,0,0,32.15,27.74Z" fill="#c3ac00" stroke="#000" stroke-linejoin="round" stroke-width="0.07" fill-rule="evenodd"></path><path d="M30.85,27.59l-.08-.1-.09,0s0,0,.08,0,0,0,0,0v0a.07.07,0,0,1,.05,0,.14.14,0,0,1,0,.09A.08.08,0,0,1,30.85,27.59Z" fill="#c3ac00" stroke="#000" stroke-miterlimit="22.93" stroke-width="0.07" fill-rule="evenodd"></path><path d="M31.09,27.49v.08l-.18,0,0,0v0l.13-.11Z" fill="#c3ac00" fill-rule="evenodd"></path><path d="M31.09,27.49v.08l-.18,0,0,0v0l.13-.11Z" fill="none" stroke="#000" stroke-miterlimit="22.93" stroke-width="0.07"></path><path d="M30.85,27.55a.06.06,0,0,1,.07,0s0,.05,0,.06-.05,0-.06,0A.07.07,0,0,1,30.85,27.55Z" fill="#c3ac00" stroke="#000" stroke-miterlimit="22.93" stroke-width="0.07" fill-rule="evenodd"></path><path d="M31.18,27.57s0,0,0-.05a0,0,0,0,1,0,0,0,0,0,0,1,0,.05Z" fill="#c3ac00" stroke="#000" stroke-miterlimit="22.93" stroke-width="0.07" fill-rule="evenodd"></path><path d="M31.26,27.46l.07.06.15-.08v0l0,0h-.18Z" fill="#c3ac00" fill-rule="evenodd"></path><path d="M31.26,27.46l.07.06.15-.08v0l0,0h-.18Z" fill="none" stroke="#000" stroke-miterlimit="22.93" stroke-width="0.07"></path><path d="M31.44,27.17l-.09.09.11.14h0l0,0,0-.17Z" fill="#c3ac00" fill-rule="evenodd"></path><path d="M31.44,27.17l-.09.09.11.14h0l0,0,0-.17Z" fill="none" stroke="#000" stroke-miterlimit="22.93" stroke-width="0.07"></path><path d="M31.73,27.37l0,.08-.18,0,0,0v0l.15-.09Z" fill="#c3ac00" fill-rule="evenodd"></path><path d="M31.73,27.37l0,.08-.18,0,0,0v0l.15-.09Z" fill="none" stroke="#000" stroke-miterlimit="22.93" stroke-width="0.07"></path><path d="M31.56,27.41a.07.07,0,0,0-.07-.06.06.06,0,0,0-.06.06.06.06,0,0,0,.06.06S31.56,27.45,31.56,27.41Z" fill="#c3ac00" stroke="#000" stroke-miterlimit="22.93" stroke-width="0.07" fill-rule="evenodd"></path><path d="M31.79,27.45a.05.05,0,0,1,0-.05s0,0,0,.05,0,0,0,0S31.8,27.47,31.79,27.45Z" fill="#c3ac00" stroke="#000" stroke-linejoin="round" stroke-width="0.07" fill-rule="evenodd"></path><path d="M31.91,27.36l.05.08.17-.06,0,0,0,0-.17,0Z" fill="#c3ac00" fill-rule="evenodd"></path><path d="M31.91,27.36l.05.08.17-.06,0,0,0,0-.17,0Z" fill="none" stroke="#000" stroke-miterlimit="22.93" stroke-width="0.07"></path><path d="M32.15,27.1l-.11.06.08.18,0,0,0,0,.09-.18Z" fill="#c3ac00" stroke="#000" stroke-miterlimit="22.93" stroke-width="0.07" fill-rule="evenodd"></path><path d="M32.39,27.36l0,.08-.17-.06,0,0,0,0,.17,0Z" fill="#c3ac00" stroke="#000" stroke-miterlimit="22.93" stroke-width="0.07" fill-rule="evenodd"></path><path d="M32.21,27.36a.06.06,0,0,0-.06-.06h0a.06.06,0,0,0-.06.06h0a.06.06,0,0,0,.06.06h0a.06.06,0,0,0,.06-.06Z" fill="#c3ac00" stroke="#000" stroke-miterlimit="22.93" stroke-width="0.07" fill-rule="evenodd"></path><path d="M32.51,27.45a.05.05,0,0,0,0-.05,0,0,0,0,0,0,.05s0,0,0,0S32.5,27.47,32.51,27.45Z" fill="#c3ac00" stroke="#000" stroke-linejoin="round" stroke-width="0.07" fill-rule="evenodd"></path><path d="M32.57,27.37l0,.08.18,0,0,0v0l-.15-.09Z" fill="#c3ac00" fill-rule="evenodd"></path><path d="M32.57,27.37l0,.08.18,0,0,0v0l-.15-.09Z" fill="none" stroke="#000" stroke-miterlimit="22.93" stroke-width="0.07"></path><path d="M32.86,27.17l.08.09-.11.14h0l0,0,0-.17Z" fill="#c3ac00" fill-rule="evenodd"></path><path d="M32.86,27.17l.08.09-.11.14h0l0,0,0-.17Z" fill="none" stroke="#000" stroke-miterlimit="22.93" stroke-width="0.07"></path><path d="M33,27.46l-.07.06-.15-.08,0,0,0,0H33Z" fill="#c3ac00" fill-rule="evenodd"></path><path d="M33,27.46l-.07.06-.15-.08,0,0,0,0H33Z" fill="none" stroke="#000" stroke-miterlimit="22.93" stroke-width="0.07"></path><path d="M32.87,27.41a.06.06,0,0,0-.06-.06s-.07,0-.07.06a.06.06,0,0,0,.06.06h0A.06.06,0,0,0,32.87,27.41Z" fill="#c3ac00" stroke="#000" stroke-miterlimit="22.93" stroke-width="0.07" fill-rule="evenodd"></path><path d="M33.12,27.57s0,0,0-.05a0,0,0,0,0,0,0,0,0,0,0,0,0,.05S33.11,27.59,33.12,27.57Z" fill="#c3ac00" stroke="#000" stroke-miterlimit="22.93" stroke-width="0.07" fill-rule="evenodd"></path><path d="M33.42,27.59l.09-.1.08,0s0,0-.07,0a.07.07,0,0,0-.06,0v0a.07.07,0,0,0-.05,0,.14.14,0,0,0,0,.09S33.42,27.57,33.42,27.59Z" fill="#c3ac00" stroke="#000" stroke-miterlimit="22.93" stroke-width="0.07" fill-rule="evenodd"></path><path d="M33.18,27.49l0,.08.18,0,0,0v0l-.14-.11Z" fill="#c3ac00" fill-rule="evenodd"></path><path d="M33.18,27.49l0,.08.18,0,0,0v0l-.14-.11Z" fill="none" stroke="#000" stroke-miterlimit="22.93" stroke-width="0.07"></path><path d="M33.42,27.55a0,0,0,0,0-.06,0s0,.05,0,.06a.06.06,0,0,0,.09-.06Z" fill="#c3ac00" stroke="#000" stroke-miterlimit="22.93" stroke-width="0.07" fill-rule="evenodd"></path><path d="M30.82,27.46a0,0,0,0,1,0,0,.32.32,0,0,1,0-.14.38.38,0,0,1,.37-.38.35.35,0,0,1,.21.07s0,0,0,0,0,0,0,0a.31.31,0,0,0-.19-.06.35.35,0,0,0-.34.35.28.28,0,0,0,0,.13s0,0,0,0Z"></path><path d="M30.77,27.28a.05.05,0,0,0-.05-.06.06.06,0,0,0-.06.06.06.06,0,0,0,.05.06h0A.06.06,0,0,0,30.77,27.28Z" fill="#ededed" stroke="#000" stroke-miterlimit="22.93" stroke-width="0.1" fill-rule="evenodd"></path><path d="M30.8,27.08a.06.06,0,0,0-.12,0h0a.06.06,0,0,0,.12,0Z" fill="#ededed" stroke="#000" stroke-miterlimit="22.93" stroke-width="0.1" fill-rule="evenodd"></path><path d="M30.92,26.93s0-.06-.05-.05h0a.05.05,0,1,0,0,.1h0s.05,0,.05-.05Z" fill="#ededed" stroke="#000" stroke-miterlimit="22.93" stroke-width="0.1" fill-rule="evenodd"></path><path d="M31.09,26.85a.06.06,0,0,0-.05-.06.08.08,0,0,0-.07.05.06.06,0,0,0,.05.06h0A0,0,0,0,0,31.09,26.85Z" fill="#ededed" stroke="#000" stroke-miterlimit="22.93" stroke-width="0.1" fill-rule="evenodd"></path><path d="M31.28,26.86a.06.06,0,0,0-.12,0,.06.06,0,0,0,.12,0Z" fill="#ededed" stroke="#000" stroke-miterlimit="22.93" stroke-width="0.1" fill-rule="evenodd"></path><path d="M31.39,27.08a.06.06,0,0,0-.05-.06s-.06,0-.06.05a.05.05,0,0,0,0,.06h0a.05.05,0,0,0,.06-.05Z" fill="#ededed" stroke="#000" stroke-miterlimit="22.93" stroke-width="0.1" fill-rule="evenodd"></path><path d="M31.42,26.89a.06.06,0,1,0-.11,0s0,.06.05.06h0A0,0,0,0,0,31.42,26.89Z" fill="#ededed" stroke="#000" stroke-miterlimit="22.93" stroke-width="0.1" fill-rule="evenodd"></path><path d="M31.57,26.77a.06.06,0,0,0-.06-.06.06.06,0,0,0-.06.06.06.06,0,0,0,.06.05h0A.05.05,0,0,0,31.57,26.77Z" fill="#ededed" stroke="#000" stroke-miterlimit="22.93" stroke-width="0.1" fill-rule="evenodd"></path><path d="M31.75,26.71a.06.06,0,0,0-.06-.06.06.06,0,0,0-.06.06.06.06,0,0,0,.05.06h0A.06.06,0,0,0,31.75,26.71Z" fill="#ededed" stroke="#000" stroke-miterlimit="22.93" stroke-width="0.1" fill-rule="evenodd"></path><path d="M31.93,26.72a.06.06,0,0,0-.12,0,.06.06,0,0,0,.06.05A.06.06,0,0,0,31.93,26.72Z" fill="#ededed" stroke="#000" stroke-miterlimit="22.93" stroke-width="0.1" fill-rule="evenodd"></path><path d="M32.47,26.72a.06.06,0,0,0-.06-.06.06.06,0,0,0,0,.12.06.06,0,0,0,.06-.06Z" fill="#ededed" stroke="#000" stroke-miterlimit="22.93" stroke-width="0.1" fill-rule="evenodd"></path><path d="M32.65,26.71s0-.05,0-.06a.06.06,0,0,0-.06.06.06.06,0,0,0,.05.06h0A.06.06,0,0,0,32.65,26.71Z" fill="#ededed" stroke="#000" stroke-miterlimit="22.93" stroke-width="0.1" fill-rule="evenodd"></path><path d="M32.83,26.77a0,0,0,0,0,0-.05h0s-.05,0-.06,0a.06.06,0,0,0,0,.06h0a0,0,0,0,0,.06-.05Z" fill="#ededed" stroke="#000" stroke-miterlimit="22.93" stroke-width="0.1" fill-rule="evenodd"></path><path d="M33,26.89s0-.06-.06-.06a.06.06,0,0,0-.06.05,0,0,0,0,0,0,.06h0a.06.06,0,0,0,.06-.05Z" fill="#ededed" stroke="#000" stroke-miterlimit="22.93" stroke-width="0.1" fill-rule="evenodd"></path><path d="M33,27.08A.05.05,0,0,0,33,27a.05.05,0,1,0,0,.1A.06.06,0,0,0,33,27.08Z" fill="#ededed" stroke="#000" stroke-miterlimit="22.93" stroke-width="0.1" fill-rule="evenodd"></path><path d="M33.12,26.86a.05.05,0,0,0-.06-.06,0,0,0,0,0-.05.05.05.05,0,0,0,.05.06h0A.06.06,0,0,0,33.12,26.86Z" fill="#ededed" stroke="#000" stroke-miterlimit="22.93" stroke-width="0.1" fill-rule="evenodd"></path><path d="M33.3,26.85a.06.06,0,0,0,0-.06.08.08,0,0,0-.07.05.06.06,0,0,0,0,.06h0a0,0,0,0,0,0,0Z" fill="#ededed" stroke="#000" stroke-miterlimit="22.93" stroke-width="0.1" fill-rule="evenodd"></path><path d="M33.47,26.93a.05.05,0,0,0,0-.06.06.06,0,0,0-.06.06,0,0,0,0,0,0,.05h0A0,0,0,0,0,33.47,26.93Z" fill="#ededed" stroke="#000" stroke-miterlimit="22.93" stroke-width="0.1" fill-rule="evenodd"></path><path d="M33.6,27.08a0,0,0,0,0-.05,0,.06.06,0,0,0-.06,0h0a.06.06,0,0,0,.06.06A.06.06,0,0,0,33.6,27.08Z" fill="#ededed" stroke="#000" stroke-miterlimit="22.93" stroke-width="0.1" fill-rule="evenodd"></path><path d="M33.62,27.28a.05.05,0,0,0,0-.06.06.06,0,0,0-.06.06.06.06,0,0,0,.05.06h0A.06.06,0,0,0,33.62,27.28Z" fill="#ededed" stroke="#000" stroke-miterlimit="22.93" stroke-width="0.1" fill-rule="evenodd"></path><path d="M31.18,28l0-.06.08,0-.05.07Z" fill="#e00505" stroke="#000" stroke-miterlimit="10" stroke-width="0.11" fill-rule="evenodd"></path><path d="M31.54,27.93l-.09,0s-.05,0-.05,0,0,0,0,0h.09l.09,0a0,0,0,0,1,0,.08h-.09Z" fill="#00874a" fill-rule="evenodd"></path><path d="M31.54,27.93l-.09,0s-.05,0-.05,0,0,0,0,0h.09l.09,0a0,0,0,0,1,0,.08h-.09Z" fill="none" stroke="#000" stroke-miterlimit="22.93" stroke-width="0.07"></path><path d="M31.89,27.87a.06.06,0,0,0-.05-.06s-.06,0-.06.05a.05.05,0,0,0,0,.06h0a.06.06,0,0,0,.06-.05Z" fill="#ededed" stroke="#000" stroke-miterlimit="22.93" stroke-width="0.1" fill-rule="evenodd"></path><path d="M32.15,27.89H32a0,0,0,0,1,0-.08h.25a0,0,0,0,1,0,0h0a0,0,0,0,1,0,0Z" fill="#e00505" stroke="#000" stroke-miterlimit="10" stroke-width="0.11" fill-rule="evenodd"></path><path d="M32.52,27.87a.05.05,0,0,0-.06-.05s-.05,0-.06,0,0,.05,0,.06h0A.06.06,0,0,0,32.52,27.87Z" fill="#ededed" stroke="#000" stroke-miterlimit="22.93" stroke-width="0.1" fill-rule="evenodd"></path><path d="M32.76,27.93l.09,0a0,0,0,0,0,0,0s0,0,0,0h-.09l-.09,0s0,0,0,0h0a0,0,0,0,0,0,.05h.1Z" fill="#00874a" fill-rule="evenodd"></path><path d="M32.76,27.93l.09,0a0,0,0,0,0,0,0s0,0,0,0h-.09l-.09,0s0,0,0,0h0a0,0,0,0,0,0,.05h.1Z" fill="none" stroke="#000" stroke-miterlimit="22.93" stroke-width="0.07"></path><path d="M33.11,28l0-.07H33L33,28Z" fill="#e00505" fill-rule="evenodd"></path><path d="M33.11,28l0-.07H33L33,28Z" fill="none" stroke="#000" stroke-miterlimit="22.93" stroke-width="0.07"></path><path d="M32.15,28.23a3.06,3.06,0,0,1-.8-.08,3.6,3.6,0,0,1,1.6,0A3.11,3.11,0,0,1,32.15,28.23Z" fill="#e00505" stroke="#000" stroke-miterlimit="10" stroke-width="0.11" fill-rule="evenodd"></path><path d="M31.82,28.21Zm0,0v0Z" fill-rule="evenodd"></path><path d="M31.82,28.21Zm0,0v0Z" fill="none" stroke="#000" stroke-miterlimit="22.93" stroke-width="0.02"></path><path d="M31.73,28.21Zm0,0Zm0,0Z" fill-rule="evenodd"></path><path d="M31.73,28.21Zm0,0Zm0,0Z" fill="none" stroke="#000" stroke-miterlimit="22.93" stroke-width="0.02"></path><path d="M31.59,28.19v0Zm0,0Z" fill-rule="evenodd"></path><path d="M31.59,28.19v0Zm0,0Z" fill="none" stroke="#000" stroke-miterlimit="22.93" stroke-width="0.03"></path><path d="M34.13,41.48a.94.94,0,0,1-.5-.11,1.19,1.19,0,0,0-.49-.1,1.24,1.24,0,0,0-.5.1.94.94,0,0,1-.5.11,1,1,0,0,1-.49-.11,1,1,0,0,0-.48-.1,1,1,0,0,0-.49.1,1.25,1.25,0,0,1-.5.11v.3a1,1,0,0,0,.5-.11,1.16,1.16,0,0,1,.49-.1,1.15,1.15,0,0,1,.48.1,1.15,1.15,0,0,0,1,0,1.09,1.09,0,0,1,.5-.1,1.05,1.05,0,0,1,.49.1,1.17,1.17,0,0,0,.49.11Z" fill="#0c51bf" stroke="#000" stroke-miterlimit="22.93" stroke-width="0.16" fill-rule="evenodd"></path><path d="M34.13,41.79a1.18,1.18,0,0,1-.5-.11,1.05,1.05,0,0,0-.49-.1,1.09,1.09,0,0,0-.5.1,1.15,1.15,0,0,1-1,0,1.15,1.15,0,0,0-.48-.1,1.16,1.16,0,0,0-.49.1,1,1,0,0,1-.5.11v.31a1.25,1.25,0,0,0,.5-.11,1,1,0,0,1,.49-.1,1,1,0,0,1,.48.1.93.93,0,0,0,.49.11.94.94,0,0,0,.5-.11,1.09,1.09,0,0,1,.5-.1,1.05,1.05,0,0,1,.49.1.93.93,0,0,0,.49.11Z" fill="#ededed" stroke="#000" stroke-miterlimit="22.93" stroke-width="0.1" fill-rule="evenodd"></path><path d="M34.13,42.09a1,1,0,0,1-.5-.1,1.06,1.06,0,0,0-.49-.11,1.1,1.1,0,0,0-.5.11,1,1,0,0,1-.5.1.93.93,0,0,1-.49-.11,1.15,1.15,0,0,0-.48-.1,1,1,0,0,0-.49.1,1.1,1.1,0,0,1-.5.11v.31a1.11,1.11,0,0,0,.5-.12,1.16,1.16,0,0,1,.49-.1,1.33,1.33,0,0,1,.48.1,1,1,0,0,0,.49.12,1.18,1.18,0,0,0,.5-.11,1.09,1.09,0,0,1,.5-.1,1.05,1.05,0,0,1,.49.1,1,1,0,0,0,.49.11Z" fill="#0c51bf" stroke="#000" stroke-miterlimit="22.93" stroke-width="0.16" fill-rule="evenodd"></path><path d="M34.12,42.7a.93.93,0,0,1-.49-.11,1.31,1.31,0,0,0-1,0,.94.94,0,0,1-.5.11.93.93,0,0,1-.49-.11,1.15,1.15,0,0,0-.48-.1,1,1,0,0,0-.49.1,1.1,1.1,0,0,1-.5.11v-.3a1.11,1.11,0,0,0,.5-.12,1.16,1.16,0,0,1,.49-.1,1.15,1.15,0,0,1,.48.1,1,1,0,0,0,.49.12,1.18,1.18,0,0,0,.5-.11,1.25,1.25,0,0,1,.5-.11,1.21,1.21,0,0,1,.49.11,1.18,1.18,0,0,0,.5.11Z" fill="#ededed" stroke="#000" stroke-miterlimit="22.93" stroke-width="0.1" fill-rule="evenodd"></path><path d="M34.12,42.7a.93.93,0,0,1-.49-.11,1.31,1.31,0,0,0-1,0,.94.94,0,0,1-.5.11.93.93,0,0,1-.49-.11,1.15,1.15,0,0,0-.48-.1,1,1,0,0,0-.49.1,1.1,1.1,0,0,1-.5.11v-.3a1.11,1.11,0,0,0,.5-.12,1.16,1.16,0,0,1,.49-.1,1.15,1.15,0,0,1,.48.1,1,1,0,0,0,.49.12,1.18,1.18,0,0,0,.5-.11,1.25,1.25,0,0,1,.5-.11,1.21,1.21,0,0,1,.49.11,1.18,1.18,0,0,0,.5.11Z" fill="none" stroke="#000" stroke-miterlimit="22.93" stroke-width="0.1"></path><path d="M34.12,43a1,1,0,0,1-.49-.11,1.19,1.19,0,0,0-.49-.1,1.24,1.24,0,0,0-.5.1,1,1,0,0,1-.5.11,1.17,1.17,0,0,1-.49-.11,1.16,1.16,0,0,0-.48-.11,1,1,0,0,0-.49.11,1.25,1.25,0,0,1-.5.11V42.7a1.1,1.1,0,0,0,.5-.11,1,1,0,0,1,.49-.1,1.15,1.15,0,0,1,.48.1.93.93,0,0,0,.49.11.94.94,0,0,0,.5-.11,1.31,1.31,0,0,1,1,0,.94.94,0,0,0,.5.11Z" fill="#0c51bf" stroke="#000" stroke-miterlimit="22.93" stroke-width="0.16" fill-rule="evenodd"></path><path d="M31,40.23a.19.19,0,0,1,0,.08.33.33,0,0,1-.35.33h2.91a.34.34,0,0,1-.36-.33.19.19,0,0,1,0-.08H31Z" fill="#c3ac00" stroke="#000" stroke-linejoin="round" stroke-width="0.1" fill-rule="evenodd"></path><path d="M31.09,40h2.12c.07,0,.13,0,.13.1a.12.12,0,0,1-.13.1H31.09a.12.12,0,0,1-.13-.1A.11.11,0,0,1,31.09,40Z" fill="#c3ac00" stroke="#000" stroke-miterlimit="22.93" stroke-width="0.1" fill-rule="evenodd"></path><rect x="30.7" y="40.64" width="2.9" height="0.74" fill="#c3ac00" stroke="#000" stroke-miterlimit="22.93" stroke-width="0.1"></rect><rect x="31.12" y="29.82" width="2.06" height="10.1" fill="#ededed" stroke="#000" stroke-miterlimit="22.93" stroke-width="0.1"></rect><path d="M33.83,37.42c.28.16.48.33.45.42s-.11.13-.24.22-.33.4-.23.52a.73.73,0,0,1,0-1.16Z" fill="#e00505" stroke="#000" stroke-miterlimit="10" stroke-width="0.11" fill-rule="evenodd"></path><path d="M29,33.6a6,6,0,0,1,3.08-.27c1.23.2,2.17.7,2.09,1.1v0s.46-1,.47-1.08c.08-.44-1-1-2.33-1.22a7,7,0,0,0-1.21-.09,6.49,6.49,0,0,0-2.1.28Z" fill="#e00505" fill-rule="evenodd"></path><path d="M29,33.6a6,6,0,0,1,3.08-.27c1.23.2,2.17.7,2.09,1.1v0s.46-1,.47-1.08c.08-.44-1-1-2.33-1.22a7,7,0,0,0-1.21-.09,6.49,6.49,0,0,0-2.1.28Z" fill="none" stroke="#000" stroke-linejoin="round" stroke-width="0.1"></path><path d="M33.19,34.86c.57,0,1-.19,1-.43s-.15-.41-.5-.59l-.51,0Z" fill="#e00505" stroke="#000" stroke-miterlimit="10" stroke-width="0.11" fill-rule="evenodd"></path><path d="M31.12,34.09a1.71,1.71,0,0,0-.76.25v0c-.07.13.25.41.77.72Z" fill="#e00505" stroke="#000" stroke-miterlimit="10" stroke-width="0.11" fill-rule="evenodd"></path><path d="M34.47,36.81c.05-.16-.51-.49-1.29-.78-.36-.13-.66-.26-1-.42-1.09-.49-1.9-1-1.8-1.24v0a6.32,6.32,0,0,0-.15,1c-.1.18.64.73,1.65,1.21.32.16,1,.41,1.32.52.58.21,1.15.58,1.1.71Z" fill="#e00505" stroke="#000" stroke-miterlimit="10" stroke-width="0.11" fill-rule="evenodd"></path><path d="M12.06,33.11c.26-.09.42-.2.34-.4s-.18-.15-.37-.08l-.35.13.31.76.1,0,.11,0Zm-.15-.37.09,0a.15.15,0,0,1,.19.1.15.15,0,0,1-.06.2l-.09,0Z" fill="#c3ac00" fill-rule="evenodd"></path><path d="M12.87,32.42l-.11,0-.11,0,.17.79.56-.11s0,0,0,0v-.05a2.28,2.28,0,0,1-.33.08Z" fill="#c3ac00" fill-rule="evenodd"></path><path d="M14,33.11a9,9,0,0,1,.36-.85H14.2a6.44,6.44,0,0,1-.24.61c-.1-.19-.22-.38-.3-.57l-.13,0h-.14c.16.26.32.52.47.79l.06,0Z" fill="#c3ac00" fill-rule="evenodd"></path><path d="M15.14,32.5l.06-.12A.63.63,0,0,0,15,32.3c-.22,0-.35.08-.37.22s.42.26.4.45-.1.11-.19.1a.19.19,0,0,1-.19-.15h0a.47.47,0,0,1-.06.15.61.61,0,0,0,.24.07c.23,0,.4-.07.42-.22s-.43-.29-.41-.45.06-.11.18-.1a.17.17,0,0,1,.16.12Z" fill="#c3ac00" fill-rule="evenodd"></path><path d="M30.3,33.15c.08-.29.18-.58.28-.87l-.07,0h-.06c-.05.21-.12.42-.18.63a5.74,5.74,0,0,1-.36-.55l-.13,0h-.13l.53.75h.12Z" fill="#c3ac00" fill-rule="evenodd"></path><path d="M31.09,32.29h-.23v.82h.57a.13.13,0,0,1,0-.06.11.11,0,0,1,0,0,2,2,0,0,1-.35,0Z" fill="#c3ac00" fill-rule="evenodd"></path><path d="M32,32.42l.27,0a0,0,0,0,1,0-.05.07.07,0,0,1,0,0l-.77-.06v.05a.43.43,0,0,0,0,0h.28l-.07.73h.11l.11,0Z" fill="#c3ac00" fill-rule="evenodd"></path><path d="M32.29,33.22l.12,0,.1,0,.1-.37h0c0,.05,0,.11.06.15l.11.28.13,0,.14,0,0-.09c-.06-.12-.13-.25-.18-.38.14,0,.25,0,.28-.16a.17.17,0,0,0-.09-.19.63.63,0,0,0-.23-.08l-.31-.06Zm.4-.68c.09,0,.21,0,.21.13s0,0,0,.06-.12.16-.27.12Z" fill="#c3ac00" fill-rule="evenodd"></path><path d="M33.76,33.47a2.34,2.34,0,0,1,0,.26l.12.06.1.06.08-.91-.05,0s0,0,0,0l-.81.52.07,0,.06,0,.22-.17Zm-.23-.21.27-.18,0,.31Z" fill="#c3ac00" fill-rule="evenodd"></path><path d="M22.61,22.72a6.11,6.11,0,0,1,2.08.32,4.33,4.33,0,0,0,1.07.28,4.22,4.22,0,0,0,.87,0,3.28,3.28,0,0,1,1.34.31,3.51,3.51,0,0,1,1,.62l-.2.18-.06.5-.54.63-.27.23-.65.52-.33,0-.1.29-4.17-.49-4.19.49-.1-.29-.33,0-.65-.52-.27-.23L16.55,25l-.05-.5-.2-.18a3.38,3.38,0,0,1,1-.62,3.28,3.28,0,0,1,1.34-.31A4.4,4.4,0,0,0,20.56,23,5.75,5.75,0,0,1,22.61,22.72Z" fill="#e00505" stroke="#000" stroke-miterlimit="10" stroke-width="0.11" fill-rule="evenodd"></path><path d="M19.53,23.83l.18.14.26-.43a1,1,0,0,1-.48-.83.49.49,0,0,1,0-.12c0-.55.69-1,1.54-1a2,2,0,0,1,1.12.31l0-.23A2.21,2.21,0,0,0,21,21.38c-1,0-1.74.56-1.78,1.21v.12a1.19,1.19,0,0,0,.41.89Z" fill="#c3ac00" stroke="#000" stroke-miterlimit="22.93" stroke-width="0.1" fill-rule="evenodd"></path><path d="M19.54,23.83a1.22,1.22,0,0,1-.54-1,1.29,1.29,0,0,1,.71-1.07,1.13,1.13,0,0,0-.44.79.49.49,0,0,0,0,.12,1.19,1.19,0,0,0,.41.89Z" fill="#c3ac00" fill-rule="evenodd"></path><path d="M19.54,23.83a1.22,1.22,0,0,1-.54-1,1.29,1.29,0,0,1,.71-1.07,1.13,1.13,0,0,0-.44.79.49.49,0,0,0,0,.12,1.19,1.19,0,0,0,.41.89Z" fill="none" stroke="#000" stroke-miterlimit="22.93" stroke-width="0.1"></path><path d="M16.6,24.27A1.16,1.16,0,0,1,16.41,23a2.36,2.36,0,0,1,2.13-1,3.94,3.94,0,0,1,.77.08,2.14,2.14,0,0,0-.13.19,3.47,3.47,0,0,0-.64-.06,2.1,2.1,0,0,0-1.92.84,1,1,0,0,0-.09.41,1,1,0,0,0,.35.74l-.33.54-.18-.14Z" fill="#c3ac00" stroke="#000" stroke-miterlimit="22.93" stroke-width="0.1" fill-rule="evenodd"></path><path d="M16.94,22.44a1.4,1.4,0,0,0-.53.55,1.16,1.16,0,0,0,.19,1.28l-.21.33a1.43,1.43,0,0,1-.3-.86A1.55,1.55,0,0,1,16.94,22.44Z" fill="#c3ac00" stroke="#000" stroke-miterlimit="22.93" stroke-width="0.1" fill-rule="evenodd"></path><path d="M22.66,21.27a.46.46,0,0,1,.46.35,3.8,3.8,0,0,1,.06.58v.15a3.62,3.62,0,0,0,.16,1.08l-.68.65L22,23.43a3.34,3.34,0,0,0,.17-1.08V22.2a3.79,3.79,0,0,1,.05-.58A.47.47,0,0,1,22.66,21.27Z" fill="#c3ac00" stroke="#000" stroke-miterlimit="22.93" stroke-width="0.1" fill-rule="evenodd"></path><path d="M22.66,21.48a.25.25,0,0,1,.24.18,3.41,3.41,0,0,1,.05.55v.07a.2.2,0,0,0,0,.07,2.94,2.94,0,0,0,.15,1l-.45.42-.45-.42a3.2,3.2,0,0,0,.16-1v-.14a2.56,2.56,0,0,1,.05-.55A.25.25,0,0,1,22.66,21.48Z" fill="#c3ac00" stroke="#000" stroke-miterlimit="22.93" stroke-width="0.1" fill-rule="evenodd"></path><path d="M25.79,23.83l-.18.14-.26-.43a1,1,0,0,0,.48-.83.49.49,0,0,0,0-.12c0-.55-.69-1-1.54-1a2,2,0,0,0-1.12.31l0-.23a2.31,2.31,0,0,1,1.15-.29c1,0,1.74.56,1.78,1.21v.12a1.19,1.19,0,0,1-.41.89Z" fill="#c3ac00" stroke="#000" stroke-miterlimit="22.93" stroke-width="0.1" fill-rule="evenodd"></path><path d="M25.78,23.83a1.24,1.24,0,0,0,.54-1,1.29,1.29,0,0,0-.71-1.07,1.13,1.13,0,0,1,.44.79.49.49,0,0,1,0,.12,1.18,1.18,0,0,1-.42.89Z" fill="#c3ac00" fill-rule="evenodd"></path><path d="M25.78,23.83a1.24,1.24,0,0,0,.54-1,1.29,1.29,0,0,0-.71-1.07,1.13,1.13,0,0,1,.44.79.49.49,0,0,1,0,.12,1.18,1.18,0,0,1-.42.89Z" fill="none" stroke="#000" stroke-miterlimit="22.93" stroke-width="0.1"></path><path d="M28.72,24.27a1.2,1.2,0,0,0,.31-.78,1.11,1.11,0,0,0-.12-.5,2.35,2.35,0,0,0-2.12-1,4,4,0,0,0-.78.08l.14.19a3.39,3.39,0,0,1,.64-.06,2.09,2.09,0,0,1,1.91.84.92.92,0,0,1-.26,1.15l.34.54.18-.14Z" fill="#c3ac00" stroke="#000" stroke-miterlimit="22.93" stroke-width="0.1" fill-rule="evenodd"></path><path d="M28.38,22.44a1.4,1.4,0,0,1,.53.55,1.25,1.25,0,0,1,.11.5,1.19,1.19,0,0,1-.3.78l.2.32a1.39,1.39,0,0,0,.31-.85A1.59,1.59,0,0,0,28.38,22.44Z" fill="#c3ac00" stroke="#000" stroke-miterlimit="22.93" stroke-width="0.1" fill-rule="evenodd"></path><path d="M23.23,20.77a.57.57,0,0,0-.54-.59.56.56,0,0,0-.59.53.57.57,0,0,0,.53.59h0A.55.55,0,0,0,23.23,20.77Z" fill="#0c51bf" stroke="#000" stroke-miterlimit="22.93" stroke-width="0.16" fill-rule="evenodd"></path><path d="M22.52,19.28v.28h-.31v.29h.31v.84h-.39s0,0,0,.08a.46.46,0,0,0,0,.2h1a.65.65,0,0,0,0-.2s0-.05,0-.08h-.37v-.84h.3v-.29h-.3v-.28Z" fill="#c3ac00" stroke="#000" stroke-miterlimit="22.93" stroke-width="0.07" fill-rule="evenodd"></path><path d="M22.9,23.51a.23.23,0,0,0-.22-.25.24.24,0,1,0,0,.48h0A.23.23,0,0,0,22.9,23.51Z" fill="#ededed" stroke="#000" stroke-miterlimit="22.93" stroke-width="0.1" fill-rule="evenodd"></path><path d="M22.9,23.06a.23.23,0,0,0-.22-.25.24.24,0,0,0-.26.23.24.24,0,0,0,.23.25h0A.23.23,0,0,0,22.9,23.06Z" fill="#ededed" stroke="#000" stroke-miterlimit="22.93" stroke-width="0.1" fill-rule="evenodd"></path><path d="M22.85,22.58a.19.19,0,0,0-.38,0,.18.18,0,0,0,.18.2h0a.18.18,0,0,0,.19-.18Z" fill="#ededed" stroke="#000" stroke-miterlimit="22.93" stroke-width="0.1" fill-rule="evenodd"></path><path d="M22.8,22.15a.13.13,0,0,0-.13-.15.14.14,0,0,0-.15.13.15.15,0,0,0,.13.15h0a.13.13,0,0,0,.14-.13Z" fill="#ededed" stroke="#000" stroke-miterlimit="22.93" stroke-width="0.1" fill-rule="evenodd"></path><path d="M22.77,21.77a.11.11,0,0,0-.1-.12.11.11,0,0,0-.12.1.12.12,0,0,0,.1.12h0A.11.11,0,0,0,22.77,21.77Z" fill="#ededed" stroke="#000" stroke-miterlimit="22.93" stroke-width="0.1" fill-rule="evenodd"></path><path d="M16.32,24.74a.13.13,0,0,0-.13-.14.14.14,0,0,0-.15.13.15.15,0,0,0,.14.15h0A.14.14,0,0,0,16.32,24.74Z" fill="#ededed" stroke="#000" stroke-miterlimit="22.93" stroke-width="0.1" fill-rule="evenodd"></path><path d="M16.13,24.41a.14.14,0,0,0-.13-.15.14.14,0,0,0-.14.13.13.13,0,0,0,.13.15h0a.13.13,0,0,0,.13-.13Z" fill="#ededed" stroke="#000" stroke-miterlimit="22.93" stroke-width="0.1" fill-rule="evenodd"></path><path d="M16,24a.15.15,0,0,0-.14-.15.14.14,0,0,0-.14.13.13.13,0,0,0,.13.15h0A.15.15,0,0,0,16,24Z" fill="#ededed" stroke="#000" stroke-miterlimit="22.93" stroke-width="0.1" fill-rule="evenodd"></path><path d="M16,23.6a.15.15,0,0,0-.13-.15.15.15,0,0,0-.15.14.14.14,0,0,0,.13.14h0A.14.14,0,0,0,16,23.6Z" fill="#ededed" stroke="#000" stroke-miterlimit="22.93" stroke-width="0.1" fill-rule="evenodd"></path><path d="M16.09,23.19A.14.14,0,0,0,16,23a.15.15,0,0,0-.15.13.15.15,0,0,0,.14.15h0a.13.13,0,0,0,.14-.13Z" fill="#ededed" stroke="#000" stroke-miterlimit="22.93" stroke-width="0.1" fill-rule="evenodd"></path><path d="M16.31,22.82a.14.14,0,0,0-.13-.15.13.13,0,0,0-.15.13.14.14,0,0,0,.13.15h0A.15.15,0,0,0,16.31,22.82Z" fill="#ededed" stroke="#000" stroke-miterlimit="22.93" stroke-width="0.1" fill-rule="evenodd"></path><path d="M16.59,22.51a.13.13,0,0,0-.13-.15.14.14,0,0,0-.15.13.15.15,0,0,0,.13.15h0A.13.13,0,0,0,16.59,22.51Z" fill="#ededed" stroke="#000" stroke-miterlimit="22.93" stroke-width="0.1" fill-rule="evenodd"></path><path d="M16.92,22.25a.14.14,0,1,0-.14.13h0A.12.12,0,0,0,16.92,22.25Z" fill="#ededed" stroke="#000" stroke-miterlimit="22.93" stroke-width="0.1" fill-rule="evenodd"></path><path d="M17.32,22a.13.13,0,0,0-.13-.14A.14.14,0,0,0,17,22a.14.14,0,0,0,.13.14h0A.13.13,0,0,0,17.32,22Z" fill="#ededed" stroke="#000" stroke-miterlimit="22.93" stroke-width="0.1" fill-rule="evenodd"></path><path d="M17.73,21.9a.14.14,0,0,0-.28,0,.15.15,0,0,0,.13.15h0A.13.13,0,0,0,17.73,21.9Z" fill="#ededed" stroke="#000" stroke-miterlimit="22.93" stroke-width="0.1" fill-rule="evenodd"></path><path d="M18.19,21.81a.14.14,0,0,0-.13-.14.13.13,0,0,0-.15.13.14.14,0,0,0,.13.14h0A.13.13,0,0,0,18.19,21.81Z" fill="#ededed" stroke="#000" stroke-miterlimit="22.93" stroke-width="0.1" fill-rule="evenodd"></path><path d="M18.63,21.79a.15.15,0,0,0-.14-.15.14.14,0,0,0-.14.13.13.13,0,0,0,.13.15h0a.15.15,0,0,0,.14-.13Z" fill="#ededed" stroke="#000" stroke-miterlimit="22.93" stroke-width="0.1" fill-rule="evenodd"></path><path d="M19.05,21.8a.13.13,0,0,0-.13-.14.14.14,0,0,0-.15.13.15.15,0,0,0,.14.15h0A.14.14,0,0,0,19.05,21.8Z" fill="#ededed" stroke="#000" stroke-miterlimit="22.93" stroke-width="0.1" fill-rule="evenodd"></path><path d="M19.53,23.69a.15.15,0,0,0-.14-.15.14.14,0,0,0-.14.13.14.14,0,0,0,.13.15h0A.15.15,0,0,0,19.53,23.69Z" fill="#ededed" stroke="#000" stroke-miterlimit="22.93" stroke-width="0.1" fill-rule="evenodd"></path><path d="M19.29,23.35a.15.15,0,0,0-.13-.15.14.14,0,0,0,0,.28h0A.14.14,0,0,0,19.29,23.35Z" fill="#ededed" stroke="#000" stroke-miterlimit="22.93" stroke-width="0.1" fill-rule="evenodd"></path><path d="M19.16,23a.14.14,0,0,0-.13-.15.14.14,0,0,0-.14.13.13.13,0,0,0,.13.15h0A.13.13,0,0,0,19.16,23Z" fill="#ededed" stroke="#000" stroke-miterlimit="22.93" stroke-width="0.1" fill-rule="evenodd"></path><path d="M19.18,22.58a.14.14,0,0,0-.13-.15.14.14,0,0,0-.15.13.15.15,0,0,0,.13.15h0A.14.14,0,0,0,19.18,22.58Z" fill="#ededed" stroke="#000" stroke-miterlimit="22.93" stroke-width="0.1" fill-rule="evenodd"></path><path d="M19.27,22.17a.15.15,0,0,0-.14-.15.14.14,0,0,0-.14.14.13.13,0,0,0,.13.14h0A.13.13,0,0,0,19.27,22.17Z" fill="#ededed" stroke="#000" stroke-miterlimit="22.93" stroke-width="0.1" fill-rule="evenodd"></path><path d="M19.48,21.8a.13.13,0,0,0-.13-.14.14.14,0,0,0-.15.13.15.15,0,0,0,.13.15h0A.14.14,0,0,0,19.48,21.8Z" fill="#ededed" stroke="#000" stroke-miterlimit="22.93" stroke-width="0.1" fill-rule="evenodd"></path><path d="M19.8,21.55a.14.14,0,0,0-.14-.14.17.17,0,0,0-.14.14.15.15,0,0,0,.15.14A.15.15,0,0,0,19.8,21.55Z" fill="#ededed" stroke="#000" stroke-miterlimit="22.93" stroke-width="0.1" fill-rule="evenodd"></path><path d="M20.18,21.34a.14.14,0,0,0-.13-.15.14.14,0,0,0-.14.13.13.13,0,0,0,.13.15h0a.13.13,0,0,0,.14-.13Z" fill="#ededed" stroke="#000" stroke-miterlimit="22.93" stroke-width="0.1" fill-rule="evenodd"></path><path d="M20.6,21.21a.13.13,0,0,0-.14-.13.15.15,0,0,0-.14.13.15.15,0,0,0,.15.14A.13.13,0,0,0,20.6,21.21Z" fill="#ededed" stroke="#000" stroke-miterlimit="22.93" stroke-width="0.1" fill-rule="evenodd"></path><path d="M21,21.14a.15.15,0,0,0-.13-.15.14.14,0,0,0-.15.13.14.14,0,0,0,.13.15h0A.14.14,0,0,0,21,21.14Z" fill="#ededed" stroke="#000" stroke-miterlimit="22.93" stroke-width="0.1" fill-rule="evenodd"></path><path d="M21.47,21.15a.15.15,0,0,0-.14-.15.13.13,0,0,0-.14.13.14.14,0,0,0,.13.15h0A.15.15,0,0,0,21.47,21.15Z" fill="#ededed" stroke="#000" stroke-miterlimit="22.93" stroke-width="0.1" fill-rule="evenodd"></path><path d="M21.91,21.22a.15.15,0,0,0-.13-.15.15.15,0,0,0-.15.14.13.13,0,0,0,.13.14h0A.14.14,0,0,0,21.91,21.22Z" fill="#ededed" stroke="#000" stroke-miterlimit="22.93" stroke-width="0.1" fill-rule="evenodd"></path><path d="M22.32,21.36a.14.14,0,0,0-.13-.14.13.13,0,0,0-.15.13.14.14,0,0,0,.13.14h0A.12.12,0,0,0,22.32,21.36Z" fill="#ededed" stroke="#000" stroke-miterlimit="22.93" stroke-width="0.1" fill-rule="evenodd"></path><path d="M23.28,21.36a.14.14,0,0,0-.13-.14.13.13,0,0,0-.15.13.14.14,0,0,0,.13.14h0A.13.13,0,0,0,23.28,21.36Z" fill="#ededed" stroke="#000" stroke-miterlimit="22.93" stroke-width="0.1" fill-rule="evenodd"></path><path d="M23.69,21.22a.14.14,0,0,0-.28,0,.13.13,0,0,0,.13.15h0a.13.13,0,0,0,.14-.13Z" fill="#ededed" stroke="#000" stroke-miterlimit="22.93" stroke-width="0.1" fill-rule="evenodd"></path><path d="M24.13,21.15A.14.14,0,0,0,24,21a.14.14,0,1,0,0,.27A.13.13,0,0,0,24.13,21.15Z" fill="#ededed" stroke="#000" stroke-miterlimit="22.93" stroke-width="0.1" fill-rule="evenodd"></path><path d="M24.56,21.14a.15.15,0,0,0-.15-.13.15.15,0,0,0-.13.13.15.15,0,0,0,.15.13A.15.15,0,0,0,24.56,21.14Z" fill="#ededed" stroke="#000" stroke-miterlimit="22.93" stroke-width="0.1" fill-rule="evenodd"></path><path d="M25,21.21a.14.14,0,0,0-.27,0,.14.14,0,0,0,.13.15h0A.13.13,0,0,0,25,21.21Z" fill="#ededed" stroke="#000" stroke-miterlimit="22.93" stroke-width="0.1" fill-rule="evenodd"></path><path d="M25.41,21.34a.14.14,0,0,0-.13-.15.14.14,0,0,0-.14.13.13.13,0,0,0,.13.15h0a.13.13,0,0,0,.14-.13Z" fill="#ededed" stroke="#000" stroke-miterlimit="22.93" stroke-width="0.1" fill-rule="evenodd"></path><path d="M25.79,21.55a.14.14,0,0,0-.13-.15.14.14,0,0,0-.14.14.13.13,0,0,0,.13.14h0A.13.13,0,0,0,25.79,21.55Z" fill="#ededed" stroke="#000" stroke-miterlimit="22.93" stroke-width="0.1" fill-rule="evenodd"></path><path d="M26.12,21.8a.14.14,0,0,0-.15-.13.13.13,0,0,0-.13.13.14.14,0,0,0,.28,0Z" fill="#ededed" stroke="#000" stroke-miterlimit="22.93" stroke-width="0.1" fill-rule="evenodd"></path><path d="M26.33,22.17A.14.14,0,0,0,26.2,22a.15.15,0,0,0-.15.14.14.14,0,0,0,.14.14h0A.13.13,0,0,0,26.33,22.17Z" fill="#ededed" stroke="#000" stroke-miterlimit="22.93" stroke-width="0.1" fill-rule="evenodd"></path><path d="M26.42,22.58a.14.14,0,1,0-.15.13h0A.14.14,0,0,0,26.42,22.58Z" fill="#ededed" stroke="#000" stroke-miterlimit="22.93" stroke-width="0.1" fill-rule="evenodd"></path><path d="M26.43,23a.14.14,0,0,0-.13-.15.14.14,0,0,0-.14.13.13.13,0,0,0,.13.15h0A.13.13,0,0,0,26.43,23Z" fill="#ededed" stroke="#000" stroke-miterlimit="22.93" stroke-width="0.1" fill-rule="evenodd"></path><path d="M26.31,23.35a.14.14,0,0,0-.13-.15.13.13,0,0,0-.15.13.14.14,0,0,0,.13.15h0A.13.13,0,0,0,26.31,23.35Z" fill="#ededed" stroke="#000" stroke-miterlimit="22.93" stroke-width="0.1" fill-rule="evenodd"></path><path d="M26.07,23.69a.13.13,0,0,0-.13-.15.14.14,0,1,0,0,.28h0A.13.13,0,0,0,26.07,23.69Z" fill="#ededed" stroke="#000" stroke-miterlimit="22.93" stroke-width="0.1" fill-rule="evenodd"></path><path d="M26.55,21.8a.14.14,0,0,0-.14-.14.13.13,0,0,0-.14.13.14.14,0,0,0,.13.15h0A.15.15,0,0,0,26.55,21.8Z" fill="#ededed" stroke="#000" stroke-miterlimit="22.93" stroke-width="0.1" fill-rule="evenodd"></path><path d="M27,21.79a.14.14,0,0,0-.13-.15.15.15,0,0,0-.15.13.14.14,0,0,0,.13.15h0a.13.13,0,0,0,.14-.13Z" fill="#ededed" stroke="#000" stroke-miterlimit="22.93" stroke-width="0.1" fill-rule="evenodd"></path><path d="M27.41,21.81a.14.14,0,0,0-.13-.14.13.13,0,0,0-.15.13.14.14,0,0,0,.13.14h0A.13.13,0,0,0,27.41,21.81Z" fill="#ededed" stroke="#000" stroke-miterlimit="22.93" stroke-width="0.1" fill-rule="evenodd"></path><path d="M27.87,21.9a.14.14,0,0,0-.13-.15.13.13,0,0,0-.15.13.14.14,0,0,0,.13.15h0A.14.14,0,0,0,27.87,21.9Z" fill="#ededed" stroke="#000" stroke-miterlimit="22.93" stroke-width="0.1" fill-rule="evenodd"></path><path d="M28.28,22a.13.13,0,0,0-.13-.14A.14.14,0,0,0,28,22a.14.14,0,0,0,.13.14h0a.13.13,0,0,0,.14-.13Z" fill="#ededed" stroke="#000" stroke-miterlimit="22.93" stroke-width="0.1" fill-rule="evenodd"></path><path d="M28.67,22.25a.14.14,0,1,0-.14.13h0A.12.12,0,0,0,28.67,22.25Z" fill="#ededed" stroke="#000" stroke-miterlimit="22.93" stroke-width="0.1" fill-rule="evenodd"></path><path d="M29,22.51a.15.15,0,0,0-.14-.15.14.14,0,0,0-.14.13.13.13,0,0,0,.13.15h0A.15.15,0,0,0,29,22.51Z" fill="#ededed" stroke="#000" stroke-miterlimit="22.93" stroke-width="0.1" fill-rule="evenodd"></path><path d="M29.29,22.82a.14.14,0,1,0-.28,0,.14.14,0,0,0,.15.13A.13.13,0,0,0,29.29,22.82Z" fill="#ededed" stroke="#000" stroke-miterlimit="22.93" stroke-width="0.1" fill-rule="evenodd"></path><path d="M29.51,23.19a.15.15,0,0,0-.14-.15.14.14,0,0,0-.14.13.13.13,0,0,0,.13.15h0A.15.15,0,0,0,29.51,23.19Z" fill="#ededed" stroke="#000" stroke-miterlimit="22.93" stroke-width="0.1" fill-rule="evenodd"></path><path d="M29.61,23.6a.15.15,0,0,0-.13-.15.14.14,0,0,0-.15.13.13.13,0,0,0,.13.15h0A.14.14,0,0,0,29.61,23.6Z" fill="#ededed" stroke="#000" stroke-miterlimit="22.93" stroke-width="0.1" fill-rule="evenodd"></path><path d="M29.59,24a.14.14,0,0,0-.13-.15.15.15,0,0,0-.15.13.15.15,0,0,0,.14.15h0A.13.13,0,0,0,29.59,24Z" fill="#ededed" stroke="#000" stroke-miterlimit="22.93" stroke-width="0.1" fill-rule="evenodd"></path><path d="M29.46,24.41a.14.14,0,0,0-.14-.14.13.13,0,0,0-.13.14.14.14,0,0,0,.14.14A.15.15,0,0,0,29.46,24.41Z" fill="#ededed" stroke="#000" stroke-miterlimit="22.93" stroke-width="0.1" fill-rule="evenodd"></path><path d="M29.28,24.74a.14.14,0,0,0-.14-.14.13.13,0,0,0-.14.13.14.14,0,0,0,.13.15h0A.15.15,0,0,0,29.28,24.74Z" fill="#ededed" stroke="#000" stroke-miterlimit="22.93" stroke-width="0.1" fill-rule="evenodd"></path><path d="M22.68,28.23a14.64,14.64,0,0,1-3.95-.48.18.18,0,0,1-.1-.16.15.15,0,0,1,.1-.15,16.21,16.21,0,0,1,7.89,0,.15.15,0,0,1,.1.15.15.15,0,0,1-.1.16A14.57,14.57,0,0,1,22.68,28.23Z" fill="#c3ac00" stroke="#000" stroke-miterlimit="22.93" stroke-width="0.1" fill-rule="evenodd"></path><path d="M22.67,27a14.78,14.78,0,0,0-4,.51c.08,0,.07-.14,0-.4s-.32-.31-.32-.31a18,18,0,0,1,8.68,0s-.2,0-.32.31-.11.36,0,.4A15,15,0,0,0,22.67,27Z" fill="#c3ac00" stroke="#000" stroke-linejoin="round" stroke-width="0.1" fill-rule="evenodd"></path><path d="M22.67,26.22a16.21,16.21,0,0,0-4.33.53.13.13,0,0,1-.1-.24h0a17.88,17.88,0,0,1,8.84,0,.13.13,0,0,1-.07.25h0A16.23,16.23,0,0,0,22.67,26.22Z" fill="#c3ac00" fill-rule="evenodd"></path><path d="M22.67,26.22a16.21,16.21,0,0,0-4.33.53.13.13,0,0,1-.1-.24h0a17.88,17.88,0,0,1,8.84,0,.13.13,0,0,1-.07.25h0A16.23,16.23,0,0,0,22.67,26.22Z" fill="none" stroke="#000" stroke-miterlimit="22.93" stroke-width="0.1"></path><path d="M22.68,24.89l.16,0a.76.76,0,0,0,0,.21A.62.62,0,0,0,24,25.3s.06-.21.09-.21,0,.23,0,.23a.63.63,0,0,0,.74.48.64.64,0,0,0,.5-.58v-.07l.19-.19.11.24a.58.58,0,0,0-.06.26.57.57,0,0,0,.59.56h0a.61.61,0,0,0,.5-.24l.12-.16v.19a.37.37,0,0,0,.28.41.82.82,0,0,0,.51-.22,3,3,0,0,0,.45-.42l0,.23a1.81,1.81,0,0,1-.5.53.93.93,0,0,1-.54.14.52.52,0,0,1-.38-.34.89.89,0,0,1-.45.12.86.86,0,0,1-.8-.49.87.87,0,0,1-.66.28.93.93,0,0,0-1.31-.1v0a.93.93,0,0,0-1.3-.21.84.84,0,0,0-.21.21.92.92,0,0,0-1.31.07h0a.87.87,0,0,1-.66-.28.86.86,0,0,1-.8.49.89.89,0,0,1-.45-.12.52.52,0,0,1-.38.34.93.93,0,0,1-.54-.14,2,2,0,0,1-.51-.53l0-.23a3,3,0,0,0,.45.42.82.82,0,0,0,.51.22.37.37,0,0,0,.27-.41v-.19l.13.16a.59.59,0,0,0,.49.24.57.57,0,0,0,.54-.82l.1-.24.19.19v.07a.63.63,0,0,0,1.25.1s0-.23,0-.23.08.22.09.21a.63.63,0,0,0,1.22-.18.76.76,0,0,0,0-.21Z" fill="#c3ac00" fill-rule="evenodd"></path><path d="M22.68,24.89l.16,0a.76.76,0,0,0,0,.21A.62.62,0,0,0,24,25.3s.06-.21.09-.21,0,.23,0,.23a.63.63,0,0,0,.74.48.64.64,0,0,0,.5-.58v-.07l.19-.19.11.24a.58.58,0,0,0-.06.26.57.57,0,0,0,.59.56h0a.61.61,0,0,0,.5-.24l.12-.16v.19a.37.37,0,0,0,.28.41.82.82,0,0,0,.51-.22,3,3,0,0,0,.45-.42l0,.23a1.81,1.81,0,0,1-.5.53.93.93,0,0,1-.54.14.52.52,0,0,1-.38-.34.89.89,0,0,1-.45.12.86.86,0,0,1-.8-.49.87.87,0,0,1-.66.28.93.93,0,0,0-1.31-.1v0a.93.93,0,0,0-1.3-.21.84.84,0,0,0-.21.21.92.92,0,0,0-1.31.07h0a.87.87,0,0,1-.66-.28.86.86,0,0,1-.8.49.89.89,0,0,1-.45-.12.52.52,0,0,1-.38.34.93.93,0,0,1-.54-.14,2,2,0,0,1-.51-.53l0-.23a3,3,0,0,0,.45.42.82.82,0,0,0,.51.22.37.37,0,0,0,.27-.41v-.19l.13.16a.59.59,0,0,0,.49.24.57.57,0,0,0,.54-.82l.1-.24.19.19v.07a.63.63,0,0,0,1.25.1s0-.23,0-.23.08.22.09.21a.63.63,0,0,0,1.22-.18.76.76,0,0,0,0-.21Z" fill="none" stroke="#000" stroke-miterlimit="22.93" stroke-width="0.1"></path><path d="M17.38,25.71a.38.38,0,0,0-.09-.13.23.23,0,0,0-.3,0l0,0a1,1,0,0,0-.31-.35,1,1,0,0,0-.44-.07.36.36,0,0,1,.37-.36h0a.38.38,0,0,1,.31.14l0-.14a.36.36,0,0,1,.25.23.79.79,0,0,1,0,.48,1.28,1.28,0,0,1,.11-.2,1,1,0,0,1,.32-.21,1,1,0,0,0,.17-.1.6.6,0,0,0,0,.08v.1a1,1,0,0,1,.48.06.59.59,0,0,1-.33.29.84.84,0,0,1,.1.1s0,0,.06.06l-.16,0a2,2,0,0,1-.34,0A.78.78,0,0,1,17.38,25.71Z" fill="#c3ac00" fill-rule="evenodd"></path><path d="M17.38,25.71a.38.38,0,0,0-.09-.13.23.23,0,0,0-.3,0l0,0a1,1,0,0,0-.31-.35,1,1,0,0,0-.44-.07.36.36,0,0,1,.37-.36h0a.38.38,0,0,1,.31.14l0-.14a.36.36,0,0,1,.25.23.79.79,0,0,1,0,.48,1.28,1.28,0,0,1,.11-.2,1,1,0,0,1,.32-.21,1,1,0,0,0,.17-.1.6.6,0,0,0,0,.08v.1a1,1,0,0,1,.48.06.59.59,0,0,1-.33.29.84.84,0,0,1,.1.1s0,0,.06.06l-.16,0a2,2,0,0,1-.34,0A.78.78,0,0,1,17.38,25.71Z" fill="none" stroke="#000" stroke-miterlimit="22.93" stroke-width="0.1"></path><path d="M17,25.55a.23.23,0,0,1,.3,0c.1.09.13.21.06.28a.24.24,0,0,1-.3,0C17,25.74,16.92,25.62,17,25.55Z" fill="#e00505" stroke="#000" stroke-miterlimit="10" stroke-width="0.11" fill-rule="evenodd"></path><path d="M18.4,25.66a.17.17,0,0,1,.07-.23.18.18,0,0,1,.2.15.18.18,0,0,1-.07.23C18.53,25.84,18.43,25.77,18.4,25.66Z" fill="#ededed" fill-rule="evenodd"></path><path d="M18.4,25.66a.17.17,0,0,1,.07-.23.18.18,0,0,1,.2.15.18.18,0,0,1-.07.23C18.53,25.84,18.43,25.77,18.4,25.66Z" fill="none" stroke="#000" stroke-miterlimit="22.93" stroke-width="0.1"></path><path d="M19.63,25.15a.28.28,0,0,1-.09-.14.2.2,0,0,1,0-.15.92.92,0,0,0-.23-.09,1.53,1.53,0,0,0-.3,0h-.15a.16.16,0,0,0,0,.07l.06.1a.64.64,0,0,0-.38.26.66.66,0,0,0,.45.13.36.36,0,0,0,0,.11.17.17,0,0,0,0,.07l.14-.05a1.59,1.59,0,0,0,.27-.12Z" fill="#c3ac00" fill-rule="evenodd"></path><path d="M19.63,25.15a.28.28,0,0,1-.09-.14.2.2,0,0,1,0-.15.92.92,0,0,0-.23-.09,1.53,1.53,0,0,0-.3,0h-.15a.16.16,0,0,0,0,.07l.06.1a.64.64,0,0,0-.38.26.66.66,0,0,0,.45.13.36.36,0,0,0,0,.11.17.17,0,0,0,0,.07l.14-.05a1.59,1.59,0,0,0,.27-.12Z" fill="none" stroke="#000" stroke-miterlimit="22.93" stroke-width="0.1"></path><path d="M19.57,23.86a.62.62,0,0,1,.29.38.39.39,0,0,1,.1-.08l.13,0s0,.13,0,.17a2.69,2.69,0,0,1,0,.29.83.83,0,0,1-.08.22.21.21,0,0,0-.2-.05.25.25,0,0,0-.17.11.8.8,0,0,1-.15-.17c-.07-.11-.12-.23-.15-.27l-.09-.14a.26.26,0,0,1,.15,0,.21.21,0,0,1,.11,0A.6.6,0,0,1,19.57,23.86Z" fill="#c3ac00" stroke="#000" stroke-miterlimit="22.93" stroke-width="0.1" fill-rule="evenodd"></path><path d="M20,25.09a.22.22,0,0,0,0-.29.9.9,0,0,1,.18-.16,1.39,1.39,0,0,1,.28-.12l.13-.05v.07l0,.11a.71.71,0,0,1,.46.13.7.7,0,0,1-.39.26.86.86,0,0,1,.07.1l0,.07h-.14a1.55,1.55,0,0,1-.31,0A.92.92,0,0,1,20,25.09Z" fill="#c3ac00" fill-rule="evenodd"></path><path d="M20,25.09a.22.22,0,0,0,0-.29.9.9,0,0,1,.18-.16,1.39,1.39,0,0,1,.28-.12l.13-.05v.07l0,.11a.71.71,0,0,1,.46.13.7.7,0,0,1-.39.26.86.86,0,0,1,.07.1l0,.07h-.14a1.55,1.55,0,0,1-.31,0A.92.92,0,0,1,20,25.09Z" fill="none" stroke="#000" stroke-miterlimit="22.93" stroke-width="0.1"></path><path d="M20.06,25a.28.28,0,1,0-.29.26h0A.25.25,0,0,0,20.06,25Z" fill="#e00505" stroke="#000" stroke-miterlimit="10" stroke-width="0.11" fill-rule="evenodd"></path><path d="M21.11,25.14a.18.18,0,0,1,.11-.22c.08,0,.16.08.17.18s0,.21-.11.22S21.12,25.25,21.11,25.14Z" fill="#ededed" stroke="#000" stroke-miterlimit="22.93" stroke-width="0.1" fill-rule="evenodd"></path><path d="M22.47,24.89a.21.21,0,0,1-.07-.17.23.23,0,0,1,.06-.16,1.14,1.14,0,0,0-.23-.15l-.33-.08-.17,0,0,.08a.61.61,0,0,0,0,.12.79.79,0,0,0-.48.22.8.8,0,0,0,.48.23.37.37,0,0,0,0,.11l0,.09.17,0a2,2,0,0,0,.33-.09A1.49,1.49,0,0,0,22.47,24.89Z" fill="#c3ac00" fill-rule="evenodd"></path><path d="M22.47,24.89a.21.21,0,0,1-.07-.17.23.23,0,0,1,.06-.16,1.14,1.14,0,0,0-.23-.15l-.33-.08-.17,0,0,.08a.61.61,0,0,0,0,.12.79.79,0,0,0-.48.22.8.8,0,0,0,.48.23.37.37,0,0,0,0,.11l0,.09.17,0a2,2,0,0,0,.33-.09A1.49,1.49,0,0,0,22.47,24.89Z" fill="none" stroke="#000" stroke-miterlimit="22.93" stroke-width="0.1"></path><path d="M22.67,23.44a.75.75,0,0,1,.25.48.24.24,0,0,1,.11-.06.51.51,0,0,1,.17,0s-.05.14-.07.18a3.07,3.07,0,0,1-.11.33,1.27,1.27,0,0,1-.13.22.27.27,0,0,0-.4,0l0,0a.85.85,0,0,1-.13-.22,3.07,3.07,0,0,1-.11-.33s-.07-.18-.07-.18a.41.41,0,0,1,.16,0,.23.23,0,0,1,.12.06A.75.75,0,0,1,22.67,23.44Z" fill="#c3ac00" fill-rule="evenodd"></path><path d="M22.67,23.44a.75.75,0,0,1,.25.48.24.24,0,0,1,.11-.06.51.51,0,0,1,.17,0s-.05.14-.07.18a3.07,3.07,0,0,1-.11.33,1.27,1.27,0,0,1-.13.22.27.27,0,0,0-.4,0l0,0a.85.85,0,0,1-.13-.22,3.07,3.07,0,0,1-.11-.33s-.07-.18-.07-.18a.41.41,0,0,1,.16,0,.23.23,0,0,1,.12.06A.75.75,0,0,1,22.67,23.44Z" fill="none" stroke="#000" stroke-miterlimit="22.93" stroke-width="0.1"></path><path d="M22.88,24.89a.24.24,0,0,0,.07-.17.2.2,0,0,0-.07-.16,1.58,1.58,0,0,1,.24-.15l.33-.08.16,0a.19.19,0,0,1,0,.08.61.61,0,0,1-.05.12.79.79,0,0,1,.48.22.8.8,0,0,1-.48.23.37.37,0,0,1,.05.11.29.29,0,0,1,0,.09l-.16,0a1.13,1.13,0,0,1-.57-.23Z" fill="#c3ac00" fill-rule="evenodd"></path><path d="M22.88,24.89a.24.24,0,0,0,.07-.17.2.2,0,0,0-.07-.16,1.58,1.58,0,0,1,.24-.15l.33-.08.16,0a.19.19,0,0,1,0,.08.61.61,0,0,1-.05.12.79.79,0,0,1,.48.22.8.8,0,0,1-.48.23.37.37,0,0,1,.05.11.29.29,0,0,1,0,.09l-.16,0a1.13,1.13,0,0,1-.57-.23Z" fill="none" stroke="#000" stroke-miterlimit="22.93" stroke-width="0.1"></path><path d="M23,24.73a.27.27,0,0,0-.26-.29.27.27,0,0,0-.29.26.28.28,0,0,0,.26.29h0A.27.27,0,0,0,23,24.73Z" fill="#e00505" stroke="#000" stroke-miterlimit="10" stroke-width="0.11" fill-rule="evenodd"></path><path d="M24.25,25.14a.18.18,0,0,0-.12-.22c-.08,0-.15.08-.17.18s0,.21.12.22S24.24,25.25,24.25,25.14Z" fill="#ededed" stroke="#000" stroke-miterlimit="22.93" stroke-width="0.1" fill-rule="evenodd"></path><path d="M25.37,25.09a.21.21,0,0,1,.05-.29,1.29,1.29,0,0,0-.18-.16,1.39,1.39,0,0,0-.28-.12l-.13-.05v.07l0,.11a.69.69,0,0,0-.46.13.67.67,0,0,0,.39.26.36.36,0,0,0-.07.1l0,.07h.14a1.53,1.53,0,0,0,.3,0A1.17,1.17,0,0,0,25.37,25.09Z" fill="#c3ac00" fill-rule="evenodd"></path><path d="M25.37,25.09a.21.21,0,0,1,.05-.29,1.29,1.29,0,0,0-.18-.16,1.39,1.39,0,0,0-.28-.12l-.13-.05v.07l0,.11a.69.69,0,0,0-.46.13.67.67,0,0,0,.39.26.36.36,0,0,0-.07.1l0,.07h.14a1.53,1.53,0,0,0,.3,0A1.17,1.17,0,0,0,25.37,25.09Z" fill="none" stroke="#000" stroke-miterlimit="22.93" stroke-width="0.1"></path><path d="M25.79,23.86a.63.63,0,0,0-.3.38.24.24,0,0,0-.09-.08l-.14,0,0,.17a2.69,2.69,0,0,0,0,.29.83.83,0,0,0,.08.22.21.21,0,0,1,.2-.05.25.25,0,0,1,.17.11.8.8,0,0,0,.15-.17c.07-.11.12-.23.15-.27l.09-.14a.26.26,0,0,0-.15,0,.21.21,0,0,0-.11,0A.6.6,0,0,0,25.79,23.86Z" fill="#c3ac00" fill-rule="evenodd"></path><path d="M25.79,23.86a.63.63,0,0,0-.3.38.24.24,0,0,0-.09-.08l-.14,0,0,.17a2.69,2.69,0,0,0,0,.29.83.83,0,0,0,.08.22.21.21,0,0,1,.2-.05.25.25,0,0,1,.17.11.8.8,0,0,0,.15-.17c.07-.11.12-.23.15-.27l.09-.14a.26.26,0,0,0-.15,0,.21.21,0,0,0-.11,0A.6.6,0,0,0,25.79,23.86Z" fill="none" stroke="#000" stroke-miterlimit="22.93" stroke-width="0.1"></path><path d="M25.73,25.15a.22.22,0,0,0,.08-.14.2.2,0,0,0,0-.15,1.17,1.17,0,0,1,.24-.09,1.53,1.53,0,0,1,.3,0h.14l0,.07a.36.36,0,0,1-.07.1.67.67,0,0,1,.39.26.69.69,0,0,1-.46.13.57.57,0,0,1,0,.18l-.13-.05a1.11,1.11,0,0,1-.27-.12Z" fill="#c3ac00" fill-rule="evenodd"></path><path d="M25.73,25.15a.22.22,0,0,0,.08-.14.2.2,0,0,0,0-.15,1.17,1.17,0,0,1,.24-.09,1.53,1.53,0,0,1,.3,0h.14l0,.07a.36.36,0,0,1-.07.1.67.67,0,0,1,.39.26.69.69,0,0,1-.46.13.57.57,0,0,1,0,.18l-.13-.05a1.11,1.11,0,0,1-.27-.12Z" fill="none" stroke="#000" stroke-miterlimit="22.93" stroke-width="0.1"></path><path d="M25.85,25a.29.29,0,0,0-.27-.29.26.26,0,0,0-.28.26.27.27,0,0,0,.26.29h0a.27.27,0,0,0,.28-.26Z" fill="#e00505" stroke="#000" stroke-miterlimit="10" stroke-width="0.11" fill-rule="evenodd"></path><path d="M27,25.66a.17.17,0,0,0-.07-.23.18.18,0,0,0-.2.15.18.18,0,0,0,.07.23C26.83,25.84,26.93,25.77,27,25.66Z" fill="#ededed" fill-rule="evenodd"></path><path d="M27,25.66a.17.17,0,0,0-.07-.23.18.18,0,0,0-.2.15.18.18,0,0,0,.07.23C26.83,25.84,26.93,25.77,27,25.66Z" fill="none" stroke="#000" stroke-miterlimit="22.93" stroke-width="0.1"></path><path d="M28,25.71a.38.38,0,0,1,.09-.13.23.23,0,0,1,.3,0l0,0a1,1,0,0,1,.31-.35,1,1,0,0,1,.44-.07.36.36,0,0,0-.37-.36h0a.38.38,0,0,0-.31.14l0-.14a.36.36,0,0,0-.25.23,1,1,0,0,0,0,.48.54.54,0,0,0-.1-.2,1.06,1.06,0,0,0-.31-.21l-.18-.1v.08a.17.17,0,0,0,0,.1,1,1,0,0,0-.49.06.63.63,0,0,0,.33.29l-.1.1a.17.17,0,0,0-.06.06l.17,0a1.87,1.87,0,0,0,.34,0A.76.76,0,0,0,28,25.71Z" fill="#c3ac00" fill-rule="evenodd"></path><path d="M28,25.71a.38.38,0,0,1,.09-.13.23.23,0,0,1,.3,0l0,0a1,1,0,0,1,.31-.35,1,1,0,0,1,.44-.07.36.36,0,0,0-.37-.36h0a.38.38,0,0,0-.31.14l0-.14a.36.36,0,0,0-.25.23,1,1,0,0,0,0,.48.54.54,0,0,0-.1-.2,1.06,1.06,0,0,0-.31-.21l-.18-.1v.08a.17.17,0,0,0,0,.1,1,1,0,0,0-.49.06.63.63,0,0,0,.33.29l-.1.1a.17.17,0,0,0-.06.06l.17,0a1.87,1.87,0,0,0,.34,0A.76.76,0,0,0,28,25.71Z" fill="none" stroke="#000" stroke-miterlimit="22.93" stroke-width="0.1"></path><path d="M28.37,25.55a.23.23,0,0,0-.3,0c-.1.09-.13.21-.07.28a.24.24,0,0,0,.3,0C28.41,25.74,28.43,25.62,28.37,25.55Z" fill="#e00505" stroke="#000" stroke-miterlimit="10" stroke-width="0.11" fill-rule="evenodd"></path><path d="M22.67,28A15.31,15.31,0,0,1,19,27.62a16.56,16.56,0,0,1,7.28,0A15.48,15.48,0,0,1,22.67,28Z" fill="#e00505" stroke="#000" stroke-miterlimit="10" stroke-width="0.11" fill-rule="evenodd"></path><path d="M23.68,28Zm-.39,0v0ZM23,28Z" fill="none" stroke="#000" stroke-miterlimit="22.93" stroke-width="0.01"></path><path d="M21.58,28v0Zm.17,0Z" fill="none" stroke="#000" stroke-miterlimit="22.93" stroke-width="0.09"></path><path d="M21.24,28Zm.17,0v0Z" fill="none" stroke="#000" stroke-miterlimit="22.93" stroke-width="0.1"></path><path d="M20.8,27.92Zm.15,0Zm.15,0Z" fill="none" stroke="#000" stroke-miterlimit="22.93" stroke-width="0.11"></path><path d="M20,27.82v0Zm.17,0Z" fill="none" stroke="#000" stroke-miterlimit="22.93" stroke-width="0.16"></path><path d="M18.44,27.09l.15-.2.43.05-.34.25Z" fill="#e00505" stroke="#000" stroke-miterlimit="10" stroke-width="0.11" fill-rule="evenodd"></path><ellipse cx="19.5" cy="26.85" rx="0.14" ry="0.13" fill="#ededed" stroke="#000" stroke-miterlimit="22.93" stroke-width="0.1"></ellipse><path d="M20.58,26.82l-.3,0a.13.13,0,0,1-.15-.12h0a.12.12,0,0,1,.11-.14h0l.3,0,.31,0a.13.13,0,0,1,.15.11h0a.13.13,0,0,1-.12.15h0Z" fill="#00874a" fill-rule="evenodd"></path><path d="M20.58,26.82l-.3,0a.13.13,0,0,1-.15-.12h0a.12.12,0,0,1,.11-.14h0l.3,0,.31,0a.13.13,0,0,1,.15.11h0a.13.13,0,0,1-.12.15h0Z" fill="none" stroke="#000" stroke-miterlimit="22.93" stroke-width="0.1"></path><path d="M21.46,26.61a.14.14,0,0,1,.14-.14h0a.13.13,0,0,1,.12.14.13.13,0,0,1-.14.13A.13.13,0,0,1,21.46,26.61Z" fill="#ededed" stroke="#000" stroke-miterlimit="22.93" stroke-width="0.1" fill-rule="evenodd"></path><path d="M22.68,26.71h-.42a.13.13,0,0,1-.13-.13.13.13,0,0,1,.13-.13h.84a.13.13,0,0,1,.13.13.13.13,0,0,1-.13.13Z" fill="#e00505" stroke="#000" stroke-miterlimit="10" stroke-width="0.11" fill-rule="evenodd"></path><path d="M23.62,26.61a.13.13,0,0,1,.13-.15.14.14,0,0,1,.15.13.15.15,0,0,1-.14.15h0A.13.13,0,0,1,23.62,26.61Z" fill="#ededed" stroke="#000" stroke-miterlimit="22.93" stroke-width="0.1" fill-rule="evenodd"></path><path d="M24.77,26.82l.3,0a.15.15,0,0,0,.16-.12.14.14,0,0,0-.12-.14h0l-.3,0-.3,0a.15.15,0,0,0-.16.11h0a.15.15,0,0,0,.12.15h0Z" fill="#00874a" fill-rule="evenodd"></path><path d="M24.77,26.82l.3,0a.15.15,0,0,0,.16-.12.14.14,0,0,0-.12-.14h0l-.3,0-.3,0a.15.15,0,0,0-.16.11h0a.15.15,0,0,0,.12.15h0Z" fill="none" stroke="#000" stroke-miterlimit="22.93" stroke-width="0.1"></path><path d="M25.71,26.85a.14.14,0,0,1,.13-.15.15.15,0,0,1,.15.14.14.14,0,0,1-.13.14h0A.12.12,0,0,1,25.71,26.85Z" fill="#ededed" stroke="#000" stroke-miterlimit="22.93" stroke-width="0.1" fill-rule="evenodd"></path><path d="M26.91,27.09l-.15-.2-.43.05.34.25Z" fill="#e00505" fill-rule="evenodd"></path><path d="M26.91,27.09l-.15-.2-.43.05.34.25Z" fill="none" stroke="#000" stroke-miterlimit="22.93" stroke-width="0.1"></path><path d="M22.72,43.21A10.7,10.7,0,0,1,18,42.13a3,3,0,0,1-1.7-2.69V35.22H29.08v4.22a3,3,0,0,1-1.7,2.69A10.58,10.58,0,0,1,22.72,43.21Z" fill="#ededed" stroke="#000" stroke-miterlimit="22.93" stroke-width="0.1" fill-rule="evenodd"></path><path d="M23,41.34a.53.53,0,0,1,.4.51.7.7,0,0,1-1.36,0,.45.45,0,0,1,.39-.5l0-.06-.08-.09a.38.38,0,0,1,.15,0l.1.06.07-.09a.22.22,0,0,1,.09-.07l.07.08a.11.11,0,0,1,0,.07l.11-.06.1,0,0,.09A.28.28,0,0,0,23,41.34Z" fill="#ffd894" fill-rule="evenodd"></path><path d="M23,41.34a.53.53,0,0,1,.4.51.7.7,0,0,1-1.36,0,.45.45,0,0,1,.39-.5l0-.06-.08-.09a.38.38,0,0,1,.15,0l.1.06.07-.09a.22.22,0,0,1,.09-.07l.07.08a.11.11,0,0,1,0,.07l.11-.06.1,0,0,.09A.28.28,0,0,0,23,41.34Z" fill="none" stroke="#000" stroke-miterlimit="22.93" stroke-width="0.14"></path><path d="M22.7,42.7a4.14,4.14,0,0,0-.72-.38,3.66,3.66,0,0,0-.74,0,2.23,2.23,0,0,1,.24.19,1.22,1.22,0,0,0,.43.24A1.52,1.52,0,0,0,22.7,42.7Z" fill="#00874a" stroke="#000" stroke-miterlimit="22.93" stroke-width="0.09" fill-rule="evenodd"></path><path d="M22.7,42.7a4.14,4.14,0,0,0-.72-.38,3.66,3.66,0,0,0-.74,0,2.23,2.23,0,0,1,.24.19,1.22,1.22,0,0,0,.43.24A1.52,1.52,0,0,0,22.7,42.7Z" fill="none" stroke="#000" stroke-miterlimit="22.93" stroke-width="0.14"></path><path d="M22.84,42.74a1.44,1.44,0,0,1,.66-.39,1.89,1.89,0,0,1,.82.08,1.59,1.59,0,0,0-.2.11.91.91,0,0,1-.52.2c-.28,0-.59,0-.64,0Z" fill="#00874a" stroke="#000" stroke-miterlimit="22.93" stroke-width="0.09" fill-rule="evenodd"></path><path d="M22.84,42.74a1.44,1.44,0,0,1,.66-.39,1.89,1.89,0,0,1,.82.08,1.59,1.59,0,0,0-.2.11.91.91,0,0,1-.52.2c-.28,0-.59,0-.64,0Z" fill="none" stroke="#000" stroke-miterlimit="22.93" stroke-width="0.14"></path><path d="M22.75,42.32a.65.65,0,0,1,0-.94.65.65,0,0,1,0,.91Z" fill="#e00505" fill-rule="evenodd"></path><path d="M22.75,42.32a.65.65,0,0,1,0-.94.65.65,0,0,1,0,.91Z" fill="none" stroke="#000" stroke-miterlimit="22.93" stroke-width="0.14"></path><path d="M22.75,43a.9.9,0,0,1,0-.28.82.82,0,0,0,0-.35l.06-.06.06.06s0,.18,0,.3.06.29.08.38Z" fill="#00874a" stroke="#000" stroke-miterlimit="22.93" stroke-width="0.09" fill-rule="evenodd"></path><path d="M22.75,43a.9.9,0,0,1,0-.28.82.82,0,0,0,0-.35l.06-.06.06.06s0,.18,0,.3.06.29.08.38Z" fill="none" stroke="#000" stroke-miterlimit="22.93" stroke-width="0.14"></path><path d="M22.7,39.44a3.19,3.19,0,0,1-6.37,0V35.21H22.7Z" fill="#e00505" fill-rule="evenodd"></path><path d="M22.7,39.44a3.19,3.19,0,0,1-6.37,0V35.21H22.7Z" fill="none" stroke="#000" stroke-miterlimit="22.93" stroke-width="0.14"></path><path d="M16.32,39.38a3.2,3.2,0,0,0,.73,2V35.1h-.71Z" fill="#c3ac00" stroke="#000" stroke-miterlimit="22.93" stroke-width="0.14" fill-rule="evenodd"></path><path d="M17.72,41.93a3.15,3.15,0,0,0,.77.35l0-7.22h-.75Z" fill="#c3ac00" stroke="#000" stroke-miterlimit="22.93" stroke-width="0.14" fill-rule="evenodd"></path><path d="M19.14,42.44a3.14,3.14,0,0,0,.75,0V35.06h-.75Z" fill="#c3ac00" stroke="#000" stroke-miterlimit="22.93" stroke-width="0.14" fill-rule="evenodd"></path><path d="M20.54,42.28a2.49,2.49,0,0,0,.77-.33V35.06h-.75Z" fill="#c3ac00" stroke="#000" stroke-miterlimit="22.93" stroke-width="0.14" fill-rule="evenodd"></path><path d="M22,41.3a2.88,2.88,0,0,0,.71-1.62l0-4.62H22Z" fill="#c3ac00" stroke="#000" stroke-miterlimit="22.93" stroke-width="0.14" fill-rule="evenodd"></path><path d="M29.08,35.21v4.23a3.19,3.19,0,0,1-6.38,0V35.21Z" fill="#e00505" stroke="#000" stroke-miterlimit="10" stroke-width="0.11" fill-rule="evenodd"></path><path d="M28.09,38.78a.32.32,0,0,0,.23-.39.3.3,0,0,0-.23-.23v-.52l.22-.06V37L28.09,37v-.51A.33.33,0,0,0,28,35.8h0a.36.36,0,0,0-.33.23h-.39l-.06-.22h-.6l-.06.22h-.34a.35.35,0,0,0-.33-.23h0a.34.34,0,0,0-.32.23h-.34l-.07-.22h-.59l-.07.22h-.39a.35.35,0,0,0-.33-.23.34.34,0,0,0-.35.32h0a.34.34,0,0,0,.24.31V37L23.4,37v.57l.23.06v.52a.32.32,0,0,0-.24.39.33.33,0,0,0,.24.23v.33l-.23.08,0,.56.13,0h.1a1.93,1.93,0,0,0,.13.47l0,0a.31.31,0,0,0,0,.44l0,0a.36.36,0,0,0,.33.06,2.08,2.08,0,0,0,.32.27l0,.23a2.81,2.81,0,0,0,.54.29l.17-.17a2,2,0,0,0,.4.11.35.35,0,0,0,.32.26h0a.33.33,0,0,0,.32-.26,1.69,1.69,0,0,0,.44-.12h0l.17.17a2.81,2.81,0,0,0,.54-.29l-.05-.23a2.08,2.08,0,0,0,.32-.27.36.36,0,0,0,.33-.06A.32.32,0,0,0,28,40.3l0,0,0,0a2.14,2.14,0,0,0,.13-.48l.23,0,0-.56-.22-.08Zm0-.31a.15.15,0,0,1-.14.15.15.15,0,0,1,0-.29h0A.15.15,0,0,1,28.13,38.47Zm0-1.34v.33h-.22v-.33Zm-.25-.69h0V37l-.22.06v.56l.22.07v.51a.34.34,0,0,0-.22.22h-.41l-.06-.22h-.6l-.06.22h-.35a.14.14,0,0,0,0-.06l.54-.6.21.1.39-.44-.13-.18Zm-.77,1.93v.2h-.36v-.2Zm-.42-.92.22-.25.17.13-.23.25ZM26.71,36h.35v.21h-.35Zm-.75.42a.33.33,0,0,0,.22-.21h.34l.07.21h.59l.07-.21h.39a.25.25,0,0,0,0,.07l-.68.76L26.78,37l-.38.43.12.18-.53.59h0v-.79l.22-.06v-.56L26,36.68Zm-.11.42H26v.33h-.21v-.33h.1ZM24.65,36H25v.21h-.35Zm-.59.21h.39l.07.21h.6l.06-.21h.34a.35.35,0,0,0,.23.21v.24l-.23.06v.57l.23.06v.79h0l-.53-.59.13-.18L24.92,37l-.21.09L24,36.3a.2.2,0,0,0,0-.08Zm1,1.22-.16.13-.22-.25.16-.13Zm-1.18-1,.67.75-.12.19.38.43.22-.09.54.6,0,0h-.34l-.07-.21h-.6l-.06.21h-.41a.31.31,0,0,0-.22-.21v-.52l.22-.06V37L23.83,37v-.51ZM25,38.37v.2h-.36v-.2Zm-1.37-.92v-.33h.21v.33Zm-.05,1a.15.15,0,1,1,.16.14h0a.14.14,0,0,1-.14-.13Zm.09,1.16a1.06,1.06,0,0,1,0-.19v-.15h.2v.15a1.1,1.1,0,0,0,0,.18Zm.32.54a1.73,1.73,0,0,1-.11-.37h0l.22-.07s0-.24,0-.29,0-.27,0-.27l-.22,0v-.33a.3.3,0,0,0,.21-.2h.41l.06.21h.6l.07-.21h.35a.14.14,0,0,0,0,.06l-.51.56-.21-.09-.39.43.13.18-.42.47a.55.55,0,0,0-.18,0Zm1.12-.7-.23.25-.16-.13.22-.25ZM25,41.33l-.31-.16.08-.14.3.17Zm.8-.19a.32.32,0,0,0-.2.18,1.78,1.78,0,0,1-.33-.09l0-.18a1.66,1.66,0,0,1-.54-.29l-.14.13a1.71,1.71,0,0,1-.25-.22.32.32,0,0,0,0-.36l.42-.47.21.09.39-.43-.13-.18.51-.56s0,0,0,0v1l-.22.06v.57l.22.06Zm.1-.89h-.1v-.33H26v.33Zm.92,1.09-.09-.15A1.43,1.43,0,0,0,27,41l.09.14a2.28,2.28,0,0,1-.3.17Zm.37-.45L27,40.76a1.81,1.81,0,0,1-.55.29l0,.18a1.78,1.78,0,0,1-.33.09.32.32,0,0,0-.2-.18v-.71l.22-.06V39.8L26,39.74v-1h0l.51.56-.13.18.39.43.21-.09.42.47a.3.3,0,0,0,0,.36,1.38,1.38,0,0,1-.26.22Zm-.53-1.43.17-.13.22.25-.16.13Zm1.23.33a1.58,1.58,0,0,1-.11.37.37.37,0,0,0-.18,0l-.42-.46.12-.19-.39-.43-.21.09-.51-.56a.09.09,0,0,0,0-.06h.35l.07.21h.59l.07-.21h.4a.38.38,0,0,0,.22.21v.32l-.22,0s0,.25,0,.28,0,.29,0,.29l.22.07Zm.25-.35c0,.06,0,.12,0,.18h-.2c0-.06,0-.12,0-.18v-.15h.2Z" fill="#c3ac00" stroke="#000" stroke-linejoin="round" stroke-width="0.1"></path><path d="M25.52,38.47a.35.35,0,0,1,.33-.36.35.35,0,0,1,0,.69h0A.34.34,0,0,1,25.52,38.47Z" fill="#1e9877" stroke="#000" stroke-miterlimit="22.93" stroke-width="0.09" fill-rule="evenodd"></path><rect x="16.33" y="28.15" width="6.36" height="7.07" fill="#e00505" stroke="#000" stroke-miterlimit="10" stroke-width="0.11"></rect><path d="M18.52,29.78H18.4v-.11h-.2v.46h.2v.33H18v.94h.23v1.87h-.46v1h3.6v-1h-.47V31.4h.24v-.94h-.44v-.33h.2v-.46h-.2v.11h-.12v-.11h-.21v.11h-.14v-.11H20v.46h.21v.33h-.44v-1H20V29h-.23v.12h-.12V29h-.2v.12h-.12V29h-.23v.47h.23v1h-.44v-.33h.2v-.46h-.2v.11h-.12v-.11h-.23Zm-.8,4.46Zm0-.24Zm0-.23Zm0-.24Zm0-.26Zm.47-.2Zm0-.24Zm0-.26Zm0-.23Zm0-.24Zm0-.23Zm0-.24ZM18,31.4Zm0-.24Zm0-.23Zm0-.23Zm.44-.24Zm.91-.23Zm0-.24Zm0-.23Zm0-.24Zm-.24-.29Zm-.67,1Zm-.2-.3Zm0,4.31Zm0-.47Zm-.24,0Zm.44.24Zm.23.23Zm0-.47Zm0-.5Zm0-.44Zm-.23.71Zm-.44,0Zm.91-.27Zm.2,0Zm-.67-.44Zm.47,0Zm.44,0Zm-.24,0Zm.24-.49Zm0-.47Zm-.24-.24Zm.24-.23Zm-.44,0Zm-.47,0Zm-.2-.24Zm.44,0Zm.44,0Zm.23-.23Zm-.44,0Zm-.47,0Zm-.2-.23Zm.88,0Zm-.44-.47Zm2,0Zm.2-.3Zm0,4.31Zm0-.47Zm.24,0Zm-.44.24Zm-.23.23Zm0-.47Zm0-.5Zm0-.44Zm.23.71Zm.44,0Zm-.91-.27Zm-.2,0Zm.67-.44Zm-.47,0Zm-.44,0Zm.24,0Zm-.24-.49Zm0-.47Zm.24-.24Zm-.24-.23Zm.44,0Zm.47,0Zm.21-.24Zm-.44,0Zm-.44,0Zm-.24-.23Zm.44,0Zm.47,0Zm.2-.23Zm-.87,0Zm.43-.47Zm-.9,2.6Zm0-1Zm0,.47Zm0-.94Zm0-.47Zm0-.7Zm0-.47Zm-1.12.38Zm.91-.71Zm.88.71Z" fill="#c3ac00" fill-rule="evenodd"></path><path d="M18.52,29.78H18.4v-.11h-.2v.46h.2v.33H18v.94h.23v1.87h-.46v1h3.6v-1h-.47V31.4h.24v-.94h-.44v-.33h.2v-.46h-.2v.11h-.12v-.11h-.21v.11h-.14v-.11H20v.46h.21v.33h-.44v-1H20V29h-.23v.12h-.12V29h-.2v.12h-.12V29h-.23v.47h.23v1h-.44v-.33h.2v-.46h-.2v.11h-.12v-.11h-.23Zm-.8,4.46Zm0-.24Zm0-.23Zm0-.24Zm0-.26Zm.47-.2Zm0-.24Zm0-.26Zm0-.23Zm0-.24Zm0-.23Zm0-.24ZM18,31.4Zm0-.24Zm0-.23Zm0-.23Zm.44-.24Zm.91-.23Zm0-.24Zm0-.23Zm0-.24Zm-.24-.29Zm-.67,1Zm-.2-.3Zm0,4.31Zm0-.47Zm-.24,0Zm.44.24Zm.23.23Zm0-.47Zm0-.5Zm0-.44Zm-.23.71Zm-.44,0Zm.91-.27Zm.2,0Zm-.67-.44Zm.47,0Zm.44,0Zm-.24,0Zm.24-.49Zm0-.47Zm-.24-.24Zm.24-.23Zm-.44,0Zm-.47,0Zm-.2-.24Zm.44,0Zm.44,0Zm.23-.23Zm-.44,0Zm-.47,0Zm-.2-.23Zm.88,0Zm-.44-.47Zm2,0Zm.2-.3Zm0,4.31Zm0-.47Zm.24,0Zm-.44.24Zm-.23.23Zm0-.47Zm0-.5Zm0-.44Zm.23.71Zm.44,0Zm-.91-.27Zm-.2,0Zm.67-.44Zm-.47,0Zm-.44,0Zm.24,0Zm-.24-.49Zm0-.47Zm.24-.24Zm-.24-.23Zm.44,0Zm.47,0Zm.21-.24Zm-.44,0Zm-.44,0Zm-.24-.23Zm.44,0Zm.47,0Zm.2-.23Zm-.87,0Zm.43-.47Zm-.9,2.6Zm0-1Zm0,.47Zm0-.94Zm0-.47Zm0-.7Zm0-.47Zm-1.12.38Zm.91-.71Zm.88.71Z" fill="none" stroke="#000" stroke-miterlimit="22.93" stroke-width="0.12"></path><path d="M20.13,34.24v-.62c0-.11-.06-.47-.61-.47s-.59.35-.59.47v.62Z" fill="#c3ac00" stroke="#000" stroke-miterlimit="22.93" stroke-width="0.12" fill-rule="evenodd"></path><path d="M19.13,33.65l-.29,0a.47.47,0,0,1,.12-.35l.26.2A.31.31,0,0,0,19.13,33.65Z" fill="#c3ac00" stroke="#000" stroke-miterlimit="22.93" stroke-width="0.12" fill-rule="evenodd"></path><path d="M19.63,33.36l.15-.27a.86.86,0,0,0-.27-.05.59.59,0,0,0-.23.05l.14.27Z" fill="#c3ac00" stroke="#000" stroke-miterlimit="22.93" stroke-width="0.12" fill-rule="evenodd"></path><path d="M19.92,33.65l.3,0a.47.47,0,0,0-.12-.35l-.26.2A.37.37,0,0,1,19.92,33.65Z" fill="#c3ac00" stroke="#000" stroke-miterlimit="22.93" stroke-width="0.12" fill-rule="evenodd"></path><path d="M19.07,32.63V32a.32.32,0,0,0-.64,0v.65Z" fill="#c3ac00" stroke="#000" stroke-miterlimit="22.93" stroke-width="0.12" fill-rule="evenodd"></path><path d="M20,32.63V32a.33.33,0,0,1,.65,0v.65Z" fill="#c3ac00" stroke="#000" stroke-miterlimit="22.93" stroke-width="0.12" fill-rule="evenodd"></path><path d="M18.87,31l0-.58h-.56l.06.58Z" fill="#c3ac00" stroke="#000" stroke-miterlimit="22.93" stroke-width="0.12" fill-rule="evenodd"></path><path d="M19.75,31l.06-.58h-.56l0,.58Z" fill="#c3ac00" stroke="#000" stroke-miterlimit="22.93" stroke-width="0.12" fill-rule="evenodd"></path><path d="M20.19,31l-.06-.58h.58l-.05.58Z" fill="#c3ac00" stroke="#000" stroke-miterlimit="22.93" stroke-width="0.12" fill-rule="evenodd"></path><path d="M19.92,34.24v-.53a.35.35,0,0,0-.37-.35h0a.36.36,0,0,0-.39.33v.55Z" fill="#00874a" stroke="#000" stroke-miterlimit="22.93" stroke-width="0.09" fill-rule="evenodd"></path><path d="M19,32.57V32a.26.26,0,0,0-.24-.29.25.25,0,0,0-.29.23v.62Z" fill="#00874a" fill-rule="evenodd"></path><path d="M20,32.57V32a.26.26,0,0,1,.24-.29.27.27,0,0,1,.29.23v.62Z" fill="#00874a" fill-rule="evenodd"></path><rect x="22.69" y="28.15" width="6.38" height="7.07" fill="#ededed" stroke="#000" stroke-miterlimit="22.93" stroke-width="0.1"></rect><path d="M25.94,29.89v-.12a1.61,1.61,0,0,1-.31,0,.79.79,0,0,1-.3-.16c-.11-.09-.14-.14-.22-.15a.45.45,0,0,0-.3.05.5.5,0,0,1,.22.16.6.6,0,0,0,.25.2h.41Z" fill="#de4844" stroke="#000" stroke-miterlimit="22.93" stroke-width="0.1" fill-rule="evenodd"></path><path d="M26.9,29.61s0,.09,0,.18,0,.15,0,.2a.53.53,0,0,0,0,.12.21.21,0,0,1,0,.12l-.09-.07-.08-.06v.13a.33.33,0,0,0,.07.16.7.7,0,0,1,.13.17.55.55,0,0,1,0,.18s-.06-.09-.11-.11l-.16-.08a.35.35,0,0,1,.1.2.79.79,0,0,1,0,.2.71.71,0,0,0-.1-.14l-.14-.12a1,1,0,0,1,.06.25c0,.1,0,.31,0,.31l-.1-.12-.13-.1a.35.35,0,0,1,.07.15,1.39,1.39,0,0,0,.24.59c.12.17.31.48.7.38s.25-.63.17-.88a2.2,2.2,0,0,1-.12-.62c0-.09.07-.37.06-.43a1.13,1.13,0,0,1,0-.41,1.66,1.66,0,0,1,.12-.31.49.49,0,0,0,.06-.17,1.39,1.39,0,0,0,0-.17s.07.13.09.18a1.23,1.23,0,0,1,0,.19.3.3,0,0,1,.12-.21,1.27,1.27,0,0,0,.27-.18.16.16,0,0,0,0-.07,1,1,0,0,1-.07.34l-.23.27a.51.51,0,0,1,.27,0,.91.91,0,0,0-.18.21c-.1.14-.06.16-.14.28s-.13.12-.22.2-.06.55-.05.62a6.39,6.39,0,0,1,.27.73.69.69,0,0,1-.21.61c-.15.12-.39.12-.44.16a.4.4,0,0,0-.17.37.33.33,0,0,0,.15.32c.06,0,.15,0,.16.06l.06.1a.1.1,0,0,1,0,.1c0,.05-.12.16-.15.24a1.66,1.66,0,0,0-.12.31.47.47,0,0,0,0,.17s.11.14,0,.16-.1,0-.12,0-.1.06-.12.05-.05,0-.05-.09,0-.09,0-.09a0,0,0,0,0,0,0s0,.12,0,.12-.08-.06-.1-.07-.1,0-.11-.06a.17.17,0,0,1,.1-.13c.05,0,.09,0,.06-.06a.07.07,0,0,0-.1,0s-.1,0-.09,0,0-.08,0-.11-.06-.07,0-.1.1,0,.18,0a.22.22,0,0,0,.14-.09.19.19,0,0,0,0-.19c-.05,0-.1-.06-.12-.1a.8.8,0,0,1,0-.11.91.91,0,0,1,0,.17.41.41,0,0,0,0,.11l-.09-.1a.89.89,0,0,1-.08-.17v.17s.05.09,0,.11-.11-.1-.13-.11a.43.43,0,0,1-.13-.14,1.34,1.34,0,0,1-.07-.18.66.66,0,0,1,0-.2.9.9,0,0,0,.06-.14h-.18c-.09,0-.16,0-.2,0a.59.59,0,0,0,0,.37.67.67,0,0,1,.06.28.52.52,0,0,1-.1.11.21.21,0,0,1-.11,0,.45.45,0,0,0-.16,0h-.18s-.11,0-.14,0-.11,0-.09.09,0,.09-.06.09l-.12,0s-.11,0-.1,0,0-.06.05-.1,0-.06,0-.07a.15.15,0,0,0-.09,0s-.07.06-.1,0-.06-.06-.06-.14-.09-.15,0-.15.18.06.2,0,0-.07,0-.11-.1-.05,0-.1L25,33s.05-.1.09-.08,0,.1.08.18a.26.26,0,0,0,.26.11c.14,0,.17,0,.17-.07a.66.66,0,0,0,0-.14.5.5,0,0,1,0-.12.27.27,0,0,0-.08.07l-.06.11c0-.05,0-.1,0-.14a1,1,0,0,1,0-.12l0-.12a.34.34,0,0,1,0,.12.68.68,0,0,0,0,.14.24.24,0,0,1-.06-.2c0-.09,0-.22,0-.26a.33.33,0,0,1,.26-.21,2,2,0,0,1,.35,0l.26,0s-.38-.2-.46-.26a1,1,0,0,1-.26-.27.72.72,0,0,1-.09-.2.31.31,0,0,0-.13,0,.64.64,0,0,0-.15.13,1.13,1.13,0,0,0-.1.13s0-.12,0-.15v-.11a.5.5,0,0,1-.13.22,2,2,0,0,0-.19.15s0-.09,0-.11a1.23,1.23,0,0,1,0-.13.28.28,0,0,1-.15.11c-.09,0-.23,0-.24.07s0,.14,0,.18,0,.05-.07.06a.18.18,0,0,0-.1,0,.15.15,0,0,0-.09,0,.13.13,0,0,1,0-.09s.09-.08.07-.1-.07,0-.11,0-.11,0-.1,0,0-.09,0-.13,0-.07,0-.08.14,0,.15,0,0-.06-.1-.08-.11-.06-.07-.1a.27.27,0,0,0,.07-.08s0-.1.09-.07.05.1.12.13a.65.65,0,0,0,.28,0l.19-.13.2-.14L24.8,31a.8.8,0,0,0-.13-.13.75.75,0,0,0-.24-.08l-.22-.07.1,0s.08-.07.11-.07h-.15l-.16-.07H24a.67.67,0,0,1,.18-.07h.14a.36.36,0,0,1-.15-.08l-.08-.13s0-.07-.07-.07-.11.05-.15,0-.07,0-.07-.08,0,0,0-.07-.07-.1,0-.12.17,0,.18,0-.06-.08-.1-.1-.13-.06-.09-.1.08,0,.11-.08,0-.11.09-.09.11.16.15.15,0-.1,0-.14,0-.12,0-.11.07.06.12.06.15,0,.14,0a.22.22,0,0,1-.08.13.22.22,0,0,0,0,.19.58.58,0,0,0,.15.19,1.6,1.6,0,0,0,.23.1l.28.19.1,0a.4.4,0,0,1,.15,0,1.29,1.29,0,0,0,.34,0c.07,0,.17-.09.14-.15s-.19-.12-.18-.17.08-.06.17-.06.23,0,.26-.12,0-.21-.1-.24-.24,0-.27-.14,0-.12,0-.15a.28.28,0,0,1,.18,0,1.07,1.07,0,0,0,.25,0s0-.09.08-.12l.19-.05a2.32,2.32,0,0,1,.36.22A2,2,0,0,1,26.9,29.61Z" fill="#eb71ad" fill-rule="evenodd"></path><path d="M26.9,29.61s0,.09,0,.18,0,.15,0,.2a.53.53,0,0,0,0,.12.21.21,0,0,1,0,.12l-.09-.07-.08-.06v.13a.33.33,0,0,0,.07.16.7.7,0,0,1,.13.17.55.55,0,0,1,0,.18s-.06-.09-.11-.11l-.16-.08a.35.35,0,0,1,.1.2.79.79,0,0,1,0,.2.71.71,0,0,0-.1-.14l-.14-.12a1,1,0,0,1,.06.25c0,.1,0,.31,0,.31l-.1-.12-.13-.1a.35.35,0,0,1,.07.15,1.39,1.39,0,0,0,.24.59c.12.17.31.48.7.38s.25-.63.17-.88a2.2,2.2,0,0,1-.12-.62c0-.09.07-.37.06-.43a1.13,1.13,0,0,1,0-.41,1.66,1.66,0,0,1,.12-.31.49.49,0,0,0,.06-.17,1.39,1.39,0,0,0,0-.17s.07.13.09.18a1.23,1.23,0,0,1,0,.19.72.72,0,0,1,.12-.21,1.27,1.27,0,0,0,.27-.18.16.16,0,0,0,0-.07,1,1,0,0,1-.07.34l-.23.27a.51.51,0,0,1,.27,0,.91.91,0,0,0-.18.21c-.1.14-.06.16-.14.28s-.13.12-.22.2-.06.55-.05.62a6.39,6.39,0,0,1,.27.73.69.69,0,0,1-.21.61c-.15.12-.39.12-.44.16a.4.4,0,0,0-.17.37.33.33,0,0,0,.15.32c.06,0,.15,0,.16.06l.06.1a.1.1,0,0,1,0,.1c0,.05-.12.16-.15.24a1.66,1.66,0,0,0-.12.31.47.47,0,0,0,0,.17s.11.14,0,.16-.1,0-.12,0-.1.06-.12.05-.05,0-.05-.09,0-.09,0-.09a0,0,0,0,0,0,0s0,.12,0,.12-.08-.06-.1-.07-.1,0-.11-.06a.17.17,0,0,1,.1-.13c.05,0,.09,0,.06-.06a.07.07,0,0,0-.1,0s-.1,0-.09,0,0-.08,0-.11-.06-.07,0-.1.1,0,.18,0a.22.22,0,0,0,.14-.09.19.19,0,0,0,0-.19c-.05,0-.1-.06-.12-.1a.8.8,0,0,1,0-.11.91.91,0,0,1,0,.17.41.41,0,0,0,0,.11l-.09-.1a.89.89,0,0,1-.08-.17v.17s.05.09,0,.11-.11-.1-.13-.11a.43.43,0,0,1-.13-.14,1.34,1.34,0,0,1-.07-.18.66.66,0,0,1,0-.2.9.9,0,0,0,.06-.14h-.18c-.09,0-.16,0-.2,0a.59.59,0,0,0,0,.37.67.67,0,0,1,.06.28.52.52,0,0,1-.1.11.21.21,0,0,1-.11,0,.45.45,0,0,0-.16,0h-.18s-.11,0-.14,0-.11,0-.09.09,0,.09-.06.09l-.12,0s-.11,0-.1,0,0-.06.05-.1,0-.06,0-.07a.15.15,0,0,0-.09,0s-.07.06-.1,0-.06-.06-.06-.14-.09-.15,0-.15.18.06.2,0,0-.07,0-.11-.1-.05,0-.1L25,33s.05-.1.09-.08,0,.1.08.18a.26.26,0,0,0,.26.11c.14,0,.17,0,.17-.07a.66.66,0,0,0,0-.14.5.5,0,0,1,0-.12.27.27,0,0,0-.08.07l-.06.11c0-.05,0-.1,0-.14a1,1,0,0,1,0-.12l0-.12a.34.34,0,0,1,0,.12.68.68,0,0,0,0,.14.24.24,0,0,1-.06-.2c0-.09,0-.22,0-.26a.33.33,0,0,1,.26-.21,2,2,0,0,1,.35,0l.26,0s-.38-.2-.46-.26a1,1,0,0,1-.26-.27.72.72,0,0,1-.09-.2.31.31,0,0,0-.13,0,.64.64,0,0,0-.15.13,1.13,1.13,0,0,0-.1.13s0-.12,0-.15v-.11a.5.5,0,0,1-.13.22,2,2,0,0,0-.19.15s0-.09,0-.11a1.23,1.23,0,0,1,0-.13.28.28,0,0,1-.15.11c-.09,0-.23,0-.24.07s0,.14,0,.18,0,.05-.07.06a.18.18,0,0,0-.1,0,.15.15,0,0,0-.09,0,.13.13,0,0,1,0-.09s.09-.08.07-.1-.07,0-.11,0-.11,0-.1,0,0-.09,0-.13,0-.07,0-.08.14,0,.15,0,0-.06-.1-.08-.11-.06-.07-.1a.27.27,0,0,0,.07-.08s0-.1.09-.07.05.1.12.13a.65.65,0,0,0,.28,0l.19-.13.2-.14L24.8,31a.8.8,0,0,0-.13-.13.75.75,0,0,0-.24-.08l-.22-.07.1,0s.08-.07.11-.07h-.15l-.16-.07H24a.67.67,0,0,1,.18-.07h.14a.36.36,0,0,1-.15-.08l-.08-.13s0-.07-.07-.07-.11.05-.15,0-.07,0-.07-.08,0,0,0-.07-.07-.1,0-.12.17,0,.18,0-.06-.08-.1-.1-.13-.06-.09-.1.08,0,.11-.08,0-.11.09-.09.11.16.15.15,0-.1,0-.14,0-.12,0-.11.07.06.12.06.15,0,.14,0a.22.22,0,0,1-.08.13.22.22,0,0,0,0,.19.58.58,0,0,0,.15.19,1.6,1.6,0,0,0,.23.1l.28.19.1,0a.4.4,0,0,1,.15,0,1.29,1.29,0,0,0,.34,0c.07,0,.17-.09.14-.15s-.19-.12-.18-.17.08-.06.17-.06.23,0,.26-.12,0-.21-.1-.24-.24,0-.27-.14,0-.12,0-.15a.28.28,0,0,1,.18,0,1.07,1.07,0,0,0,.25,0s0-.09.08-.12l.19-.05a2.32,2.32,0,0,1,.36.22A2,2,0,0,1,26.9,29.61Z" fill="none" stroke="#000" stroke-miterlimit="22.93" stroke-width="0.1"></path><path d="M26.17,31.4l0-.07a1.8,1.8,0,0,0-.08-.21A.36.36,0,0,1,26,31a.08.08,0,0,1,0,0,.31.31,0,0,1-.11.09h0a.39.39,0,0,0-.1.08l0,0v-.05a1.5,1.5,0,0,0,0-.2.21.21,0,0,1,0-.11l-.07.07a.67.67,0,0,1-.23.1l-.13,0-.07.05,0-.08a.44.44,0,0,0,.07-.19.17.17,0,0,0,0-.07.2.2,0,0,0,0-.07.27.27,0,0,1,.05-.15l-.1,0-.11,0-.07,0a.19.19,0,0,0-.18,0l0,0v0a.27.27,0,0,1,.05-.15.41.41,0,0,1,.13-.1l0,0L25,30.5a.36.36,0,0,0,0,.09.29.29,0,0,1,.18,0l.08,0h.08l.16,0,.07,0-.05.06s-.09.12-.08.17a.14.14,0,0,0,0,.07.22.22,0,0,1,0,.08.33.33,0,0,1-.05.16l.09,0a.61.61,0,0,0,.21-.11.43.43,0,0,0,.11-.12l.05-.08v.1a.48.48,0,0,0,0,.17.88.88,0,0,1,0,.17l.08-.05h0a.39.39,0,0,0,.1-.08.5.5,0,0,0,0-.13l0-.12v.12a1.09,1.09,0,0,0,.05.17,1.11,1.11,0,0,1,.07.16l.06-.1c.07-.08.08-.11.08-.12a.34.34,0,0,0,0-.1l0-.18.12.27,0,0a.45.45,0,0,1-.1.14.69.69,0,0,0-.07.15Z"></path><path d="M26.37,32.8l0,0a.69.69,0,0,0,.14-.3c0-.1-.17-.22-.24-.27l0,0s.27.16.26.3A.63.63,0,0,1,26.37,32.8Z"></path><path d="M25.58,29.51l0-.08a.06.06,0,0,0,0,0s.11,0,.11,0,0,0,0,0A.05.05,0,0,1,25.58,29.51Z" stroke="#000" stroke-miterlimit="22.93" stroke-width="0.07" fill-rule="evenodd"></path><path d="M26.09,29.33v0a.32.32,0,0,1,.14,0,.49.49,0,0,1,.12.13s-.07,0-.11,0h-.06s0,0,0,0,0,0,0,0Z" stroke="#000" stroke-miterlimit="22.93" stroke-width="0.01" fill-rule="evenodd"></path><path d="M25.58,30l.05-.06,0,.06Z" stroke="#000" stroke-miterlimit="22.93" stroke-width="0.07" fill-rule="evenodd"></path><path d="M25.69,30l0-.07.05.06Z" stroke="#000" stroke-miterlimit="22.93" stroke-width="0.07" fill-rule="evenodd"></path><path d="M25.64,29.58l.1,0-.09.05Z" fill-rule="evenodd"></path><path d="M25.64,29.58l.1,0-.09.05Z" fill="none" stroke="#000" stroke-miterlimit="22.93" stroke-width="0.07"></path><path d="M25.77,29.62l.09,0-.08.06Z" stroke="#000" stroke-miterlimit="22.93" stroke-width="0.07" fill-rule="evenodd"></path><path d="M24.16,29.49l.11.05h.1a.25.25,0,0,0,0-.12.24.24,0,0,0-.16-.19s0,.1,0,.14A.28.28,0,0,1,24.16,29.49Z" fill="#de4844" stroke="#000" stroke-miterlimit="22.93" stroke-width="0.1" fill-rule="evenodd"></path><path d="M23.87,29.62a.17.17,0,0,0-.17-.08.3.3,0,0,0-.19.1.43.43,0,0,1,.16,0,.24.24,0,0,1,.06.11l.09-.07Z" fill="#de4844" stroke="#000" stroke-miterlimit="22.93" stroke-width="0.1" fill-rule="evenodd"></path><path d="M23.73,30a.3.3,0,0,0-.15.07.28.28,0,0,0,0,.18.19.19,0,0,1,.12-.07l.14,0a.36.36,0,0,1,0-.1A.31.31,0,0,0,23.73,30Z" fill="#de4844" stroke="#000" stroke-miterlimit="22.93" stroke-width="0.1" fill-rule="evenodd"></path><path d="M24.06,31.3a.16.16,0,0,0-.15,0,.26.26,0,0,0-.15.12h.12a.12.12,0,0,1,.08.06l.06-.06Z" fill="#de4844" stroke="#000" stroke-miterlimit="22.93" stroke-width="0.1" fill-rule="evenodd"></path><path d="M24,31.68a.21.21,0,0,0-.15,0,.29.29,0,0,0-.07.16s.07-.06.12-.05l.11,0s0-.06,0-.08A.12.12,0,0,0,24,31.68Z" fill="#de4844" stroke="#000" stroke-miterlimit="22.93" stroke-width="0.1" fill-rule="evenodd"></path><path d="M24.14,32a.25.25,0,0,0,0,.17.23.23,0,0,0,.14.07.38.38,0,0,1,0-.1.08.08,0,0,1,0-.09.14.14,0,0,0-.09,0Z" fill="#de4844" stroke="#000" stroke-miterlimit="22.93" stroke-width="0.1" fill-rule="evenodd"></path><path d="M25.07,32.92a.21.21,0,0,0-.16-.08.37.37,0,0,0-.18.08s.11,0,.14,0l.06.09L25,33A.46.46,0,0,0,25.07,32.92Z" fill="#de4844" stroke="#000" stroke-miterlimit="22.93" stroke-width="0.1" fill-rule="evenodd"></path><path d="M24.79,33.27a.25.25,0,0,0-.18,0,.34.34,0,0,0-.05.17s.07-.08.14-.07l.13,0a.84.84,0,0,0,0-.1Z" fill="#de4844" stroke="#000" stroke-miterlimit="22.93" stroke-width="0.1" fill-rule="evenodd"></path><path d="M25.05,33.65s-.06.08,0,.14a.31.31,0,0,0,.13.1.12.12,0,0,1,0-.1.31.31,0,0,1,.08-.1Z" fill="#de4844" stroke="#000" stroke-miterlimit="22.93" stroke-width="0.1" fill-rule="evenodd"></path><path d="M26.62,33.8a.33.33,0,0,0-.17,0,.56.56,0,0,0-.1.18s.1-.08.16-.07l.12,0a.17.17,0,0,0,0-.1S26.62,33.82,26.62,33.8Z" fill="#de4844" stroke="#000" stroke-miterlimit="22.93" stroke-width="0.1" fill-rule="evenodd"></path><path d="M26.67,34.18s-.08.08-.05.15a.64.64,0,0,0,.08.14s0-.1,0-.13a.29.29,0,0,1,.13-.05l-.09-.06Z" fill="#de4844" stroke="#000" stroke-miterlimit="22.93" stroke-width="0.1" fill-rule="evenodd"></path><path d="M27.06,34.3a.14.14,0,0,0,0,.16.29.29,0,0,0,.14.08s-.06-.11,0-.16a.16.16,0,0,1,.07-.09l-.11,0Z" fill="#de4844" stroke="#000" stroke-miterlimit="22.93" stroke-width="0.1" fill-rule="evenodd"></path><path d="M26.83,29.06h0l0,.05a.09.09,0,0,1-.11,0,.07.07,0,0,1,0-.06s-.05,0-.06,0a.06.06,0,0,1,0-.09h0s0,0,0,0v0h0l0,0a.05.05,0,0,1-.08,0l0,0h0c-.07,0-.1-.13-.1-.17l0,0a1,1,0,0,1,0,.17.83.83,0,0,1,0,.15,1.47,1.47,0,0,1,.67.51l.15-.06.17,0,0,0s-.2,0-.2-.06v0h0s0-.05,0-.08l0,0v0h0l0,0a.08.08,0,0,1-.11,0,.05.05,0,0,0-.07-.07.06.06,0,0,1,0-.09h0l0,0Z" fill="#c3ac00" stroke="#000" stroke-miterlimit="22.93" stroke-width="0.07" fill-rule="evenodd"></path><path d="M26.54,29.15h0s0,0,0,0h0S26.53,29.15,26.54,29.15Z" stroke="#000" stroke-miterlimit="22.93" stroke-width="0.01" fill-rule="evenodd"></path><path d="M26.66,29.25l0,0s0,0,0,0h0l0,0,.05,0s0,0,0,0h0Z" stroke="#000" stroke-miterlimit="22.93" stroke-width="0.01" fill-rule="evenodd"></path><path d="M26.44,29.1l0,0s0,0,0,0h0l0,0,0,0a0,0,0,0,1,0,0h0Z" fill-rule="evenodd"></path><path d="M26.44,29.1l0,0s0,0,0,0h0l0,0,0,0a0,0,0,0,1,0,0h0Z" fill="none" stroke="#000" stroke-miterlimit="22.93" stroke-width="0.01"></path><path d="M26.31,29a0,0,0,0,1,0,0,0,0,0,0,1,0,0h0S26.3,29,26.31,29Z" stroke="#000" stroke-miterlimit="22.93" stroke-width="0.01" fill-rule="evenodd"></path><path d="M26.79,29.34s0,0,0,0h0v0S26.79,29.35,26.79,29.34Z" stroke="#000" stroke-miterlimit="22.93" stroke-width="0.01" fill-rule="evenodd"></path><path d="M26.87,29.43l0,0a0,0,0,0,0,0,0v0h0l0,0,0,0h0v0Z" stroke="#000" stroke-miterlimit="22.93" stroke-width="0.01" fill-rule="evenodd"></path><path d="M27,29.53a0,0,0,0,0,0,0,0,0,0,0,0,0,0h0a0,0,0,0,0,0,0Z" stroke="#000" stroke-miterlimit="22.93" stroke-width="0.01" fill-rule="evenodd"></path><path d="M26.64,28.76h-.08v.13h0l.09-.06Z" fill="#c3ac00" fill-rule="evenodd"></path><path d="M26.64,28.76h-.08v.13h0l.09-.06Z" fill="none" stroke="#000" stroke-miterlimit="22.93" stroke-width="0.07"></path><path d="M26.64,28.76h-.08v.13h0l.09-.06Z" fill="#c3ac00" fill-rule="evenodd"></path><path d="M26.64,28.76h-.08v.13h0l.09-.06Z" fill="none" stroke="#000" stroke-miterlimit="22.93" stroke-width="0.07"></path><path d="M26.44,28.82v.07l.11,0h0v0l-.07-.09Z" fill="#c3ac00" stroke="#000" stroke-miterlimit="22.93" stroke-width="0.07" fill-rule="evenodd"></path><path d="M26.68,29l-.07,0-.06-.1h.13Z" fill="#c3ac00" fill-rule="evenodd"></path><path d="M26.68,29l-.07,0-.06-.1h.13Z" fill="none" stroke="#000" stroke-miterlimit="22.93" stroke-width="0.07"></path><path d="M26.53,28.88s0,0,0,0h0a0,0,0,0,1,0,.05h0s0,0-.05,0,0,0,0,0Z" fill="#c3ac00" stroke="#000" stroke-miterlimit="22.93" stroke-width="0.07" fill-rule="evenodd"></path><path d="M26.25,28.76a.29.29,0,0,0,0-.09.12.12,0,0,0,0-.05.09.09,0,0,1,.11,0s0,.11,0,.11Z" fill="#c3ac00" stroke="#000" stroke-miterlimit="22.93" stroke-width="0.07" fill-rule="evenodd"></path><path d="M26.38,28.8l-.05.05-.09-.08h0v0h.12Z" fill="#c3ac00" fill-rule="evenodd"></path><path d="M26.38,28.8l-.05.05-.09-.08h0v0h.12Z" fill="none" stroke="#000" stroke-miterlimit="22.93" stroke-width="0.07"></path><path d="M26.24,28.75s0,0,0,0,0,0,0,0,0,0,0,0S26.23,28.77,26.24,28.75Z" fill="#c3ac00" stroke="#000" stroke-miterlimit="22.93" stroke-width="0.07" fill-rule="evenodd"></path><path d="M26.93,28.94h-.08l0,.11v0h0l.1,0Z" fill="#c3ac00" fill-rule="evenodd"></path><path d="M26.93,28.94h-.08l0,.11v0h0l.1,0Z" fill="none" stroke="#000" stroke-miterlimit="22.93" stroke-width="0.07"></path><path d="M26.72,29V29l.11,0h0v0l-.06-.1Z" fill="#c3ac00" fill-rule="evenodd"></path><path d="M26.72,29V29l.11,0h0v0l-.06-.1Z" fill="none" stroke="#000" stroke-miterlimit="22.93" stroke-width="0.07"></path><path d="M26.93,29.14l-.06,0-.06-.1v0h0l.12,0Z" fill="#c3ac00" stroke="#000" stroke-miterlimit="22.93" stroke-width="0.07" fill-rule="evenodd"></path><path d="M26.8,29a0,0,0,1,1,.06,0h0s0,0-.05,0a0,0,0,0,1,0-.05Z" fill="#c3ac00" stroke="#000" stroke-miterlimit="22.93" stroke-width="0.07" fill-rule="evenodd"></path><path d="M27.18,29.18v.06l-.11,0h0v0l.05-.1Z" fill="#c3ac00" fill-rule="evenodd"></path><path d="M27.18,29.18v.06l-.11,0h0v0l.05-.1Z" fill="none" stroke="#000" stroke-miterlimit="22.93" stroke-width="0.07"></path><path d="M27.16,29.38h-.07l0-.1v0h0l.11.05Z" fill="#c3ac00" stroke="#000" stroke-miterlimit="22.93" stroke-width="0.07" fill-rule="evenodd"></path><path d="M27,29.18l0,.07.11,0h0v0l0-.1Z" fill="#c3ac00" fill-rule="evenodd"></path><path d="M27,29.18l0,.07.11,0h0v0l0-.1Z" fill="none" stroke="#000" stroke-miterlimit="22.93" stroke-width="0.07"></path><path d="M27.08,29.3a0,0,0,0,0,0,0h0s0,0,0,0a0,0,0,0,0,0,0h0S27.07,29.32,27.08,29.3Z" fill="#c3ac00" stroke="#000" stroke-miterlimit="22.93" stroke-width="0.07" fill-rule="evenodd"></path><path d="M27.26,29.53h.1l.07,0a.11.11,0,0,0,0-.1c-.05-.05-.11,0-.11,0S27.26,29.52,27.26,29.53Z" fill="#c3ac00" stroke="#000" stroke-miterlimit="22.93" stroke-width="0.07" fill-rule="evenodd"></path><path d="M27.19,29.42l0,.06.1.06h0l0-.11Z" fill="#c3ac00" fill-rule="evenodd"></path><path d="M27.19,29.42l0,.06.1.06h0l0-.11Z" fill="none" stroke="#000" stroke-miterlimit="22.93" stroke-width="0.07"></path><path d="M27.27,29.55s0,0,0,0,0,0-.05,0,0,0,0,0S27.25,29.56,27.27,29.55Z" fill="#c3ac00" stroke="#000" stroke-miterlimit="22.93" stroke-width="0.07" fill-rule="evenodd"></path><path d="M24.77,35.18a2.07,2.07,0,0,0-4.12.49,2.09,2.09,0,0,0,2.06,1.84A2.21,2.21,0,0,0,24.77,35.18Z" fill="#e00505" stroke="#000" stroke-miterlimit="10" stroke-width="0.11" fill-rule="evenodd"></path><path d="M24.16,35.18a1.47,1.47,0,1,0-1.45,1.7A1.58,1.58,0,0,0,24.16,35.18Z" fill="#0c51bf" stroke="#000" stroke-miterlimit="22.93" stroke-width="0.16" fill-rule="evenodd"></path><path d="M22,34a.58.58,0,0,0-.17.36.71.71,0,0,0,.07.32.2.2,0,0,0-.18-.12.19.19,0,0,0-.19.18h0a.19.19,0,0,0,0,.1l.06.12a.14.14,0,0,1,.13-.07.13.13,0,0,1,.13.13,0,0,0,0,1,0,0h-.15v.13h.14l-.1.2.13,0,.1.12.1-.12.14,0-.1-.2h.14v-.13h-.16v0a.13.13,0,0,1,.13-.13h0a.13.13,0,0,1,.13.07l.06-.12a.23.23,0,0,0,0-.11.19.19,0,0,0-.19-.18h0a.2.2,0,0,0-.18.12.89.89,0,0,0,.08-.32A.82.82,0,0,0,22,34Z" fill="#c3ac00" stroke="#000" stroke-linejoin="round" stroke-width="0.09" fill-rule="evenodd"></path><rect x="21.75" y="35.07" width="0.55" height="0.13" fill="#c3ac00" stroke="#000" stroke-miterlimit="22.93" stroke-width="0.09"></rect><rect x="30.75" y="28.28" width="2.83" height="0.74" fill="#c3ac00" stroke="#000" stroke-miterlimit="22.93" stroke-width="0.1"></rect><path d="M31,29.51h2.23a.17.17,0,0,1-.12-.17.18.18,0,0,1,.13-.17H31.05a.16.16,0,0,1,.12.16A.17.17,0,0,1,31,29.51Z" fill="#c3ac00" stroke="#000" stroke-linejoin="round" stroke-width="0.1" fill-rule="evenodd"></path><path d="M31.09,29.5h2.12a.12.12,0,0,1,.13.1h0a.12.12,0,0,1-.13.11H31.09a.11.11,0,0,1-.1-.1.1.1,0,0,1,.1-.11Z" fill="#c3ac00" stroke="#000" stroke-miterlimit="22.93" stroke-width="0.1" fill-rule="evenodd"></path><path d="M31.09,29h2.12c.07,0,.13,0,.13.08s-.06.09-.13.09H31.09c-.07,0-.13,0-.13-.09S31,29,31.09,29Z" fill="#c3ac00" stroke="#000" stroke-miterlimit="22.93" stroke-width="0.1" fill-rule="evenodd"></path><path d="M23.4,34a.58.58,0,0,0-.17.36.71.71,0,0,0,.07.32.2.2,0,0,0-.18-.12.19.19,0,0,0-.19.18h0a.19.19,0,0,0,0,.1L23,35a.16.16,0,0,1,.13-.07.13.13,0,0,1,.13.13v0h-.16v.13h.14l-.1.2.14,0,.1.12.1-.12.14,0-.1-.2h.14v-.13h-.16v0a.13.13,0,0,1,.14-.13.12.12,0,0,1,.12.07l.06-.12a.23.23,0,0,0,0-.11.18.18,0,0,0-.19-.18h0a.2.2,0,0,0-.18.12.53.53,0,0,0-.1-.68Z" fill="#c3ac00" stroke="#000" stroke-linejoin="round" stroke-width="0.09" fill-rule="evenodd"></path><rect x="23.12" y="35.07" width="0.55" height="0.13" fill="#c3ac00" stroke="#000" stroke-miterlimit="22.93" stroke-width="0.09"></rect><path d="M22.72,35.17a.71.71,0,0,0-.17.36.88.88,0,0,0,.07.32.2.2,0,0,0-.18-.12.19.19,0,0,0-.19.18h0l0,.11.07.12a.11.11,0,0,1,.12-.07.14.14,0,0,1,.14.13,0,0,0,0,1,0,0h-.15v.13h.14l-.11.2.14-.05.1.11.1-.11.14.05-.1-.2H23v-.13h-.15v0a.14.14,0,0,1,.26,0l.06-.13a.17.17,0,0,0,0-.1.2.2,0,0,0-.2-.18.21.21,0,0,0-.17.12.89.89,0,0,0,.08-.32A.69.69,0,0,0,22.72,35.17Z" fill="#c3ac00" stroke="#000" stroke-linejoin="round" stroke-width="0.09" fill-rule="evenodd"></path><rect x="22.45" y="36.23" width="0.55" height="0.13" fill="#c3ac00" stroke="#000" stroke-miterlimit="22.93" stroke-width="0.09"></rect></g></svg> 