<?xml version="1.0" encoding="UTF-8"?> <svg xmlns="http://www.w3.org/2000/svg" xmlns:xlink="http://www.w3.org/1999/xlink" viewBox="0 0 62.5 62.5"><defs><clipPath id="a"><rect width="62.5" height="62.5" fill="none"></rect></clipPath></defs><g clip-path="url(#a)"><rect x="-16.96" y="-0.89" width="96.41" height="64.28" fill="#fff"></rect><path d="M79.45,25.86V36.64H36V63.39H26.53V36.64H-17V25.86H26.53V-.89H36V25.86Z" fill="#f20000" fill-rule="evenodd"></path><path d="M-8.07-.89H24.07V20.3Zm46.49,0H70.56L38.42,20.3V-.89Zm41,6.58L53.3,22.93H79.45ZM53.3,39.57H79.45V56.8ZM70.56,63.39,38.42,42.2V63.39ZM-17,39.57H9.19L-17,56.8Zm41,2.63L-8.07,63.39H24.07V42.2ZM9.19,22.93-17,5.69V22.93Z" fill="#0032a0" fill-rule="evenodd"></path><path d="M12.68,22.93-17,3.39v-4L18.71,22.93Z" fill="#f20000" fill-rule="evenodd"></path><path d="M24.07,40.06-11.31,63.39H-17v-.25L18.79,39.57h5.28Z" fill="#f20000" fill-rule="evenodd"></path><path d="M79.45-.43,44,22.93h-5.6v-.28L74.13-.89h5.33Z" fill="#f20000" fill-rule="evenodd"></path><path d="M79.45,62.91,44,39.57h6L79.45,58.93Z" fill="#f20000" fill-rule="evenodd"></path></g></svg> 