<?xml version="1.0" encoding="UTF-8"?> <svg xmlns="http://www.w3.org/2000/svg" xmlns:xlink="http://www.w3.org/1999/xlink" viewBox="0 0 62.5 62.5"><defs><clipPath id="a"><rect width="62.5" height="62.5" fill="none"></rect></clipPath></defs><g clip-path="url(#a)"><path d="M-9.6-.27H85v63H-9.6Z" fill="#fff"></path><path d="M-9.6,57.92H85v4.85H-9.6Zm0-58.19H85V4.58H-9.6Zm0,9.7H85v4.85H-9.6V9.43Zm0,9.7H85V24H-9.6Zm0,9.69H85v4.85H-9.6Zm0,9.7H85v4.85H-9.6Zm0,9.7H85v4.85H-9.6Z" fill="#ef0315"></path><path d="M-9.6-.27H38.32V33.67H-9.6Z" fill="#004cba"></path><path d="M34.65,9.29,34.22,8l-.44,1.34H32.37l1.14.83-.43,1.34,1.14-.83,1.14.83-.44-1.34,1.14-.83Zm-39.44-6,1.14-.83H-5.06L-5.5,1.14l-.43,1.34H-7.34l1.14.83-.44,1.35,1.14-.83,1.14.83Zm7.94,0,1.14-.83H2.88L2.45,1.14,2,2.48H.6l1.14.83L1.3,4.66l1.15-.83,1.14.83Zm7.94,0,1.14-.83H10.82l-.43-1.34L10,2.48H8.54l1.14.83L9.25,4.66l1.14-.83,1.14.83-.44-1.35Zm8,0,1.14-.83H18.77l-.44-1.34L17.9,2.48H16.48l1.15.83-.44,1.35,1.14-.83,1.14.83ZM-.61,27l1.14-.83H-.88l-.43-1.34-.44,1.34H-3.16L-2,27l-.43,1.34,1.14-.83,1.14.83L-.61,27Zm-.16-6.61,1.14-.83H-1l-.44-1.35-.43,1.35H-3.32l1.14.83-.44,1.34,1.14-.83,1.14.83Zm0-6.58L.41,13H-1l-.44-1.34L-1.87,13H-3.28l1.14.83-.44,1.34,1.14-.83,1.15.83ZM27,3.31l1.14-.83H26.7l-.43-1.34-.44,1.34H24.42l1.14.83-.43,1.35,1.14-.83,1.14.83L27,3.31Zm8,0,1.14-.83H34.65l-.44-1.34-.43,1.34H32.37l1.14.83-.44,1.35,1.14-.83,1.14.83ZM7.21,13.79,8.35,13H6.94l-.43-1.34L6.07,13H4.66l1.14.83-.43,1.34,1.14-.83,1.14.83-.44-1.34Zm0,6.58,1.14-.83H6.9l-.44-1.35L6,19.54H4.62l1.14.83-.44,1.34,1.15-.83,1.14.83-.44-1.34ZM7.33,27l1.14-.83H7.06L6.62,24.8l-.43,1.35H4.78L5.92,27l-.44,1.34,1.14-.83,1.15.83L7.33,27Zm7.94,0,1.14-.83H15l-.44-1.35-.43,1.35H12.73l1.14.82-.44,1.35,1.14-.83,1.15.83L15.28,27Zm-.16-6.61,1.15-.83H14.84l-.43-1.35L14,19.54h-1.4l1.14.83-.43,1.34,1.14-.83,1.14.83-.44-1.34Zm.05-6.58L16.3,13H14.89l-.44-1.34L14,13H12.6l1.14.83-.43,1.34,1.14-.83,1.14.83Zm-16-7.07L.31,5.89H-1.1l-.43-1.34L-2,5.89h-1.4l1.14.83-.44,1.34,1.14-.83,1.14.83L-.82,6.72Zm8,0,1.14-.83H6.85L6.41,4.55,6,5.89H4.56l1.15.83L5.27,8.06l1.14-.83,1.14.83L7.12,6.72Zm16,7.07L24.24,13H22.83l-.44-1.34L22,13H20.55l1.14.83-.43,1.34,1.14-.83,1.14.83-.44-1.34Zm0,6.58,1.14-.83H22.79l-.44-1.35-.43,1.35H20.51l1.14.83-.44,1.34,1.14-.83,1.14.83ZM23.21,27l1.15-.83H23l-.44-1.35-.44,1.35H20.66l1.15.82-.44,1.35,1.14-.83,1.14.83L23.21,27Zm8,0,1.14-.83H30.89l-.44-1.35L30,26.15H28.61l1.14.83-.44,1.34,1.14-.83,1.14.83ZM31,20.36l1.15-.83H30.73l-.44-1.34-.44,1.34H28.44l1.14.83-.43,1.34,1.14-.83,1.14.83L31,20.36ZM31,13.78,32.18,13H30.77l-.44-1.34L29.89,13H28.48l1.15.83-.44,1.35,1.14-.83,1.14.83L31,13.78Zm-16-7.07,1.15-.83H14.78l-.43-1.34-.44,1.34H12.5l1.14.83-.43,1.34,1.14-.82,1.14.82-.44-1.34Zm8,0,1.14-.83h-1.4L22.3,4.54l-.44,1.34H20.45l1.15.83-.44,1.34,1.14-.82,1.14.82L23,6.71Zm7.94,0,1.14-.83H30.67l-.44-1.34L29.8,5.88H28.39l1.14.83-.44,1.34,1.15-.83,1.14.83ZM-4.59,30.38l1.14-.83H-4.86l-.44-1.34-.43,1.34H-7.14l1.14.83-.44,1.34,1.14-.83,1.15.83-.44-1.34Zm-.16-6.61,1.14-.83H-5l-.43-1.34-.44,1.34H-7.3l1.14.83-.43,1.34,1.14-.83,1.14.83Zm0-6.58,1.14-.83H-5L-5.41,15l-.44,1.34H-7.26l1.14.83-.43,1.34,1.14-.83,1.14.83-.44-1.34Zm8,0,1.14-.83H3L2.53,15l-.44,1.34H.69l1.15.83L1.4,18.53l1.14-.82,1.14.82-.43-1.34Zm-.05,6.58,1.15-.83H2.93L2.49,21.6l-.44,1.34H.65l1.14.83-.43,1.34,1.14-.83,1.14.83-.43-1.34Zm.16,6.61,1.14-.83H3.09l-.43-1.34-.44,1.34H.81L2,30.38l-.43,1.34,1.14-.83,1.14.83-.44-1.34Zm7.94,0,1.15-.83H11l-.44-1.34-.44,1.34H8.74l1.15.83-.44,1.34,1.14-.83,1.14.83Zm-.15-6.61,1.14-.83H10.87l-.44-1.34L10,22.94H8.59l1.14.83-.44,1.34,1.14-.83,1.14.83-.42-1.35Zm0-6.58,1.14-.83H10.91L10.47,15,10,16.36H8.63l1.14.83-.44,1.34,1.14-.82,1.14.82-.43-1.34Zm-16-7.07,1.14-.83h-1.4L-5.5,8l-.43,1.34H-7.34l1.14.83-.44,1.34,1.14-.83,1.14.83-.43-1.34Zm7.94,0,1.14-.83H2.87L2.44,8,2,9.29H.59l1.14.83-.44,1.34,1.15-.83,1.14.83Zm16,7.07,1.14-.83h-1.4L18.43,15,18,16.36H16.58l1.14.83-.43,1.34,1.14-.82,1.14.82-.44-1.34Zm0,6.58,1.14-.83H18.81l-.44-1.34-.43,1.34H16.53l1.15.83-.44,1.34,1.14-.83,1.14.83-.43-1.34Zm.16,6.61,1.14-.83H19l-.43-1.34-.44,1.34H16.69l1.14.83-.43,1.34,1.14-.83,1.14.83-.44-1.34Zm7.94,0,1.15-.82H26.92l-.44-1.34-.43,1.34H24.64l1.14.83-.44,1.34,1.14-.83,1.14.83-.43-1.34Zm7.94,0,1.15-.83H34.85l-.43-1.34L34,29.55H32.57l1.14.83-.43,1.34,1.14-.83,1.14.83-.44-1.34ZM27,23.77l1.14-.83H26.75l-.43-1.34-.44,1.34H24.47l1.14.83-.43,1.34,1.14-.83,1.14.83L27,23.77Zm8,0,1.14-.83H34.7l-.44-1.34-.44,1.34h-1.4l1.14.83-.44,1.34,1.14-.83,1.14.83L35,23.77Zm-7.91-6.58,1.14-.83H26.8L26.37,15l-.44,1.34H24.52l1.14.83-.43,1.34,1.14-.82,1.14.82-.44-1.34Zm8,0,1.14-.83H34.74L34.3,15l-.43,1.34H32.46l1.14.83-.44,1.34,1.14-.82,1.14.82ZM11.08,10.12l1.14-.83H10.81L10.38,8,9.94,9.29H8.53l1.14.83-.43,1.34,1.14-.83,1.14.83-.44-1.34Zm8,0,1.14-.83H18.76L18.32,8l-.44,1.34h-1.4l1.15.83-.44,1.34,1.14-.83,1.14.83L19,10.12Zm7.94,0,1.14-.83H26.7L26.26,8l-.43,1.34H24.42l1.14.83-.44,1.34,1.14-.83,1.14.83L27,10.12Z" fill="#ededed"></path></g></svg> 